M48
; DRILL file {KiCad 6.0.4-6f826c9f35~116~ubuntu20.04.1} date Thu 24 Mar 2022 04:15:23 PM CET
; FORMAT={-:-/ absolute / inch / decimal}
; #@! TF.CreationDate,2022-03-24T16:15:23+01:00
; #@! TF.GenerationSoftware,Kicad,Pcbnew,6.0.4-6f826c9f35~116~ubuntu20.04.1
; #@! TF.FileFunction,Plated,1,2,PTH
FMAT,2
INCH
; #@! TA.AperFunction,Plated,PTH,ViaDrill
T1C0.0118
; #@! TA.AperFunction,Plated,PTH,ComponentDrill
T2C0.0197
; #@! TA.AperFunction,Plated,PTH,ComponentDrill
T3C0.0236
; #@! TA.AperFunction,Plated,PTH,ComponentDrill
T4C0.0394
; #@! TA.AperFunction,Plated,PTH,ComponentDrill
T5C0.0551
; #@! TA.AperFunction,Plated,PTH,ComponentDrill
T6C0.1260
%
G90
G05
T1
X2.2151Y-3.319
X2.216Y-3.2776
X2.2165Y-3.248
X2.2736Y-3.002
X2.3194Y-3.2904
X2.372Y-2.0669
X2.372Y-2.2441
X2.372Y-2.4016
X2.3898Y-3.3228
X2.3898Y-3.3514
X2.3917Y-3.2283
X2.3957Y-3.0689
X2.4173Y-2.3543
X2.4173Y-2.4488
X2.4311Y-3.1496
X2.4409Y-3.0217
X2.4508Y-2.9429
X2.4528Y-3.2992
X2.4705Y-2.5394
X2.4705Y-2.7067
X2.4882Y-2.8543
X2.4902Y-2.9665
X2.5197Y-2.9094
X2.5394Y-3.1791
X2.5591Y-2.815
X2.5591Y-3.2992
X2.5669Y-3.0192
X2.5669Y-3.0586
X2.5669Y-3.0979
X2.6063Y-3.0192
X2.6063Y-3.0586
X2.6063Y-3.0979
X2.6181Y-2.8661
X2.622Y-2.9665
X2.628Y-2.7559
X2.6299Y-3.378
X2.6496Y-2.3898
X2.685Y-3.315
X2.6969Y-3.1791
X2.7008Y-2.252
X2.7008Y-2.8898
X2.7047Y-3.0
X2.7165Y-3.4646
X2.7244Y-3.0984
X2.7953Y-2.4409
X2.7953Y-2.7165
X2.811Y-2.2913
X2.815Y-2.874
X2.8189Y-3.4449
X2.8583Y-2.2677
X2.8976Y-3.4449
X2.9055Y-3.1024
X2.9134Y-3.3071
X2.9488Y-3.1811
X2.9636Y-3.0207
X2.9724Y-2.8937
X3.0079Y-2.2047
X3.0315Y-3.0551
X3.0551Y-3.1811
X3.063Y-3.2953
X3.0709Y-3.0315
X3.126Y-3.0709
X3.1299Y-3.2677
X3.1339Y-2.2047
X3.1358Y-3.1772
X3.1378Y-3.437
X3.1436Y-3.3031
X3.1644Y-3.247
X3.189Y-3.3031
X3.2234Y-3.3406
X3.3858Y-2.0866
X3.3858Y-2.1654
X3.3858Y-2.2441
X3.3858Y-2.3228
X3.3858Y-2.4016
X3.3858Y-2.4803
X3.3858Y-2.5591
X3.3858Y-2.6378
X3.3858Y-2.7165
X3.3858Y-2.7953
X3.3858Y-2.874
X3.3858Y-2.9528
X3.3858Y-3.0315
X3.3858Y-3.1102
X3.3858Y-3.189
X3.437Y-3.2972
X3.5Y-3.3071
X3.5906Y-3.3071
X3.6811Y-3.2638
X3.685Y-3.378
X3.7382Y-3.376
X3.7972Y-3.376
X3.8406Y-3.2638
X3.9134Y-3.3071
T2
X2.0709Y-2.2244
X2.0709Y-3.6811
X2.0985Y-2.1576
X2.0985Y-2.2912
X2.0985Y-3.6143
X2.0985Y-3.7479
X2.1654Y-2.1299
X2.1654Y-2.3189
X2.1654Y-3.5866
X2.1654Y-3.7756
X2.2322Y-2.1576
X2.2322Y-2.2912
X2.2322Y-3.6143
X2.2322Y-3.7479
X2.2598Y-2.2244
X2.2598Y-3.6811
X4.1378Y-2.2244
X4.1378Y-3.6811
X4.1655Y-2.1576
X4.1655Y-2.2912
X4.1655Y-3.6143
X4.1655Y-3.7479
X4.2323Y-2.1299
X4.2323Y-2.3189
X4.2323Y-3.5866
X4.2323Y-3.7756
X4.2991Y-2.1576
X4.2991Y-2.2912
X4.2991Y-3.6143
X4.2991Y-3.7479
X4.3268Y-2.2244
X4.3268Y-3.6811
T4
X2.5591Y-2.2407
X2.5591Y-2.3407
X2.5591Y-2.4407
X2.5591Y-2.5407
X2.5591Y-2.6407
X3.226Y-3.4449
X3.326Y-3.4449
X3.426Y-3.4449
X3.526Y-3.4449
X3.6705Y-3.4449
X3.7705Y-3.4449
T5
X2.3633Y-2.5969
X2.3633Y-2.7969
X4.0344Y-2.7528
X4.0344Y-2.9528
X4.0344Y-3.1528
T6
X2.1654Y-2.2244
X2.1654Y-3.6811
X4.2323Y-2.2244
X4.2323Y-3.6811
T3
G00X2.075Y-3.1173
M15
G01X2.0514Y-3.1173
M16
G05
G00X2.075Y-3.4575
M15
G01X2.0514Y-3.4575
M16
G05
G00X2.2494Y-3.1173
M15
G01X2.2061Y-3.1173
M16
G05
G00X2.2494Y-3.4575
M15
G01X2.2061Y-3.4575
M16
G05
T0
M30
