G04 #@! TF.GenerationSoftware,KiCad,Pcbnew,6.0.4-6f826c9f35~116~ubuntu20.04.1*
G04 #@! TF.CreationDate,2022-03-24T16:15:20+01:00*
G04 #@! TF.ProjectId,philphoc-luma,7068696c-7068-46f6-932d-6c756d612e6b,rev?*
G04 #@! TF.SameCoordinates,Original*
G04 #@! TF.FileFunction,Copper,L2,Bot*
G04 #@! TF.FilePolarity,Positive*
%FSLAX46Y46*%
G04 Gerber Fmt 4.6, Leading zero omitted, Abs format (unit mm)*
G04 Created by KiCad (PCBNEW 6.0.4-6f826c9f35~116~ubuntu20.04.1) date 2022-03-24 16:15:20*
%MOMM*%
%LPD*%
G01*
G04 APERTURE LIST*
G04 Aperture macros list*
%AMRoundRect*
0 Rectangle with rounded corners*
0 $1 Rounding radius*
0 $2 $3 $4 $5 $6 $7 $8 $9 X,Y pos of 4 corners*
0 Add a 4 corners polygon primitive as box body*
4,1,4,$2,$3,$4,$5,$6,$7,$8,$9,$2,$3,0*
0 Add four circle primitives for the rounded corners*
1,1,$1+$1,$2,$3*
1,1,$1+$1,$4,$5*
1,1,$1+$1,$6,$7*
1,1,$1+$1,$8,$9*
0 Add four rect primitives between the rounded corners*
20,1,$1+$1,$2,$3,$4,$5,0*
20,1,$1+$1,$4,$5,$6,$7,0*
20,1,$1+$1,$6,$7,$8,$9,0*
20,1,$1+$1,$8,$9,$2,$3,0*%
G04 Aperture macros list end*
G04 #@! TA.AperFunction,ComponentPad*
%ADD10R,1.700000X1.700000*%
G04 #@! TD*
G04 #@! TA.AperFunction,ComponentPad*
%ADD11O,1.700000X1.700000*%
G04 #@! TD*
G04 #@! TA.AperFunction,ComponentPad*
%ADD12C,0.800000*%
G04 #@! TD*
G04 #@! TA.AperFunction,ComponentPad*
%ADD13C,6.400000*%
G04 #@! TD*
G04 #@! TA.AperFunction,ComponentPad*
%ADD14RoundRect,0.249999X-1.550001X0.790001X-1.550001X-0.790001X1.550001X-0.790001X1.550001X0.790001X0*%
G04 #@! TD*
G04 #@! TA.AperFunction,ComponentPad*
%ADD15O,3.600000X2.080000*%
G04 #@! TD*
G04 #@! TA.AperFunction,ComponentPad*
%ADD16RoundRect,0.249999X1.550001X-0.790001X1.550001X0.790001X-1.550001X0.790001X-1.550001X-0.790001X0*%
G04 #@! TD*
G04 #@! TA.AperFunction,ComponentPad*
%ADD17O,2.100000X1.000000*%
G04 #@! TD*
G04 #@! TA.AperFunction,ComponentPad*
%ADD18O,1.600000X1.000000*%
G04 #@! TD*
G04 #@! TA.AperFunction,ViaPad*
%ADD19C,0.600000*%
G04 #@! TD*
G04 #@! TA.AperFunction,Conductor*
%ADD20C,0.300000*%
G04 #@! TD*
G04 #@! TA.AperFunction,Conductor*
%ADD21C,0.600000*%
G04 #@! TD*
G04 #@! TA.AperFunction,Conductor*
%ADD22C,0.200000*%
G04 #@! TD*
G04 APERTURE END LIST*
D10*
X65000000Y-67075000D03*
D11*
X65000000Y-64535000D03*
X65000000Y-61995000D03*
X65000000Y-59455000D03*
X65000000Y-56915000D03*
D12*
X109197056Y-54802944D03*
D13*
X107500000Y-56500000D03*
D12*
X107500000Y-54100000D03*
X105802944Y-54802944D03*
X105100000Y-56500000D03*
X105802944Y-58197056D03*
X109900000Y-56500000D03*
X107500000Y-58900000D03*
X109197056Y-58197056D03*
X55000000Y-58900000D03*
X57400000Y-56500000D03*
X56697056Y-54802944D03*
D13*
X55000000Y-56500000D03*
D12*
X52600000Y-56500000D03*
X55000000Y-54100000D03*
X56697056Y-58197056D03*
X53302944Y-54802944D03*
X53302944Y-58197056D03*
D14*
X60027500Y-65960000D03*
D15*
X60027500Y-71040000D03*
D10*
X89560000Y-87500000D03*
D11*
X87020000Y-87500000D03*
X84480000Y-87500000D03*
X81940000Y-87500000D03*
D12*
X107500000Y-91100000D03*
X107500000Y-95900000D03*
D13*
X107500000Y-93500000D03*
D12*
X105802944Y-95197056D03*
X109197056Y-95197056D03*
X109900000Y-93500000D03*
X105802944Y-91802944D03*
X105100000Y-93500000D03*
X109197056Y-91802944D03*
D10*
X95770000Y-87500000D03*
D11*
X93230000Y-87500000D03*
D12*
X53302944Y-91802944D03*
X57400000Y-93500000D03*
D13*
X55000000Y-93500000D03*
D12*
X52600000Y-93500000D03*
X56697056Y-91802944D03*
X55000000Y-95900000D03*
X55000000Y-91100000D03*
X53302944Y-95197056D03*
X56697056Y-95197056D03*
D16*
X102472500Y-80080000D03*
D15*
X102472500Y-75000000D03*
X102472500Y-69920000D03*
D17*
X56585000Y-79180000D03*
X56585000Y-87820000D03*
D18*
X52405000Y-87820000D03*
X52405000Y-79180000D03*
D19*
X79650000Y-80700000D03*
X86000000Y-61000000D03*
X86000000Y-69000000D03*
X66750000Y-70000000D03*
X61400000Y-59800000D03*
X66800000Y-85800000D03*
X65200000Y-77687500D03*
X86000000Y-53000000D03*
X73600000Y-87500000D03*
X60250000Y-52500000D03*
X88900000Y-84000000D03*
X86000000Y-73000000D03*
X60750000Y-82000000D03*
X66200000Y-78687500D03*
X86000000Y-65000000D03*
X65200000Y-78687500D03*
X79600000Y-56000000D03*
X87300000Y-83750000D03*
X86000000Y-75000000D03*
X86000000Y-71000000D03*
X61400000Y-62200000D03*
X79400000Y-78000000D03*
X79700000Y-87300000D03*
X74900000Y-80800000D03*
X93600000Y-85800000D03*
X67300000Y-60700000D03*
X65200000Y-76687500D03*
X68500000Y-80750000D03*
X72600000Y-57600000D03*
X71600000Y-87500000D03*
X60250000Y-57000000D03*
X91200000Y-84000000D03*
X58913500Y-83575000D03*
X71000000Y-69000000D03*
X94950000Y-85750000D03*
X68700000Y-76200000D03*
X75500000Y-73500000D03*
X69000000Y-88000000D03*
X66500000Y-72800000D03*
X62750000Y-68750000D03*
X96450000Y-85750000D03*
X62000000Y-76750000D03*
X86000000Y-59000000D03*
X66200000Y-77687500D03*
X86000000Y-77000000D03*
X77600000Y-80800000D03*
X71000000Y-62000000D03*
X60250000Y-61000000D03*
X86000000Y-55000000D03*
X68200000Y-84200000D03*
X64500000Y-80750000D03*
X66200000Y-76687500D03*
X76400000Y-56000000D03*
X86000000Y-79000000D03*
X97550000Y-82900000D03*
X61750000Y-80000000D03*
X77000000Y-77600000D03*
X57750000Y-76250000D03*
X86000000Y-67000000D03*
X79500000Y-83000000D03*
X65000000Y-83800000D03*
X68600000Y-73400000D03*
X86000000Y-63000000D03*
X86000000Y-81000000D03*
X62300000Y-83800000D03*
X73800000Y-78800000D03*
X60850000Y-77950000D03*
X69200000Y-78700000D03*
X62750000Y-64500000D03*
X86000000Y-57000000D03*
X63200000Y-72500000D03*
X65000000Y-71500000D03*
X71500000Y-73000000D03*
X99400000Y-84000000D03*
X74000000Y-84000000D03*
X77800000Y-83700000D03*
X62250000Y-74750000D03*
X75275000Y-76725000D03*
X80375000Y-82475000D03*
X78000000Y-77000000D03*
X81875000Y-84850000D03*
X64000000Y-73900000D03*
X63250000Y-75350000D03*
X66600000Y-75350000D03*
X68600000Y-57200000D03*
X71400000Y-58200000D03*
X56264652Y-84302930D03*
X60700000Y-85126503D03*
X56286175Y-83249919D03*
X56300000Y-82500000D03*
X60700000Y-84400000D03*
X93500000Y-82900000D03*
X79848500Y-83900000D03*
X81001500Y-83900000D03*
D20*
X81940000Y-84915000D02*
X81940000Y-87500000D01*
X80391811Y-82475000D02*
X80375000Y-82475000D01*
D21*
X67500000Y-73900000D02*
X64000000Y-73900000D01*
X76100000Y-75100000D02*
X75300000Y-75100000D01*
X75300000Y-75100000D02*
X68700000Y-75100000D01*
D20*
X81875000Y-84850000D02*
X81816449Y-84791449D01*
D21*
X68700000Y-75100000D02*
X67500000Y-73900000D01*
D20*
X75275000Y-76725000D02*
X75275000Y-75125000D01*
D21*
X78000000Y-77000000D02*
X76100000Y-75100000D01*
D20*
X75275000Y-75125000D02*
X75300000Y-75100000D01*
X81816449Y-83899638D02*
X80391811Y-82475000D01*
X81816449Y-84791449D02*
X81816449Y-83899638D01*
X81875000Y-84850000D02*
X81940000Y-84915000D01*
D21*
X66600000Y-75350000D02*
X63250000Y-75350000D01*
D20*
X68600000Y-57200000D02*
X70400000Y-57200000D01*
X70400000Y-57200000D02*
X71400000Y-58200000D01*
D22*
X60473497Y-84900000D02*
X58100000Y-84900000D01*
X56449919Y-83249919D02*
X56286175Y-83249919D01*
X56286175Y-84281407D02*
X56286175Y-83249919D01*
X56264652Y-84302930D02*
X56286175Y-84281407D01*
X58100000Y-84900000D02*
X56449919Y-83249919D01*
X60700000Y-85126503D02*
X60473497Y-84900000D01*
X60600000Y-84500000D02*
X58300000Y-84500000D01*
X58300000Y-84500000D02*
X56300000Y-82500000D01*
X60700000Y-84400000D02*
X60600000Y-84500000D01*
D20*
X93500000Y-82900000D02*
X95770000Y-85170000D01*
X95770000Y-85170000D02*
X95770000Y-87500000D01*
X81001500Y-83900000D02*
X79848500Y-83900000D01*
G04 #@! TA.AperFunction,Conductor*
G36*
X86731694Y-51718806D02*
G01*
X86750000Y-51763000D01*
X86750000Y-82500000D01*
X87000010Y-82500000D01*
X87044204Y-82518306D01*
X87062510Y-82562500D01*
X87059827Y-82580617D01*
X87053507Y-82601484D01*
X87042775Y-82774468D01*
X87072126Y-82945282D01*
X87139986Y-83104762D01*
X87242713Y-83244353D01*
X87374799Y-83356568D01*
X87529157Y-83435387D01*
X87697507Y-83476582D01*
X87704976Y-83477045D01*
X87707467Y-83477200D01*
X87707471Y-83477200D01*
X87708436Y-83477260D01*
X87833400Y-83477260D01*
X87962151Y-83462249D01*
X87983298Y-83454573D01*
X88121652Y-83404353D01*
X88121655Y-83404352D01*
X88125067Y-83403113D01*
X88151325Y-83385898D01*
X88194306Y-83357718D01*
X88270010Y-83308085D01*
X88389203Y-83182261D01*
X88391026Y-83179123D01*
X88391028Y-83179120D01*
X88474435Y-83035524D01*
X88474436Y-83035523D01*
X88476254Y-83032392D01*
X88518223Y-82893823D01*
X88525440Y-82869993D01*
X88525440Y-82869992D01*
X88526493Y-82866516D01*
X88537225Y-82693532D01*
X88516528Y-82573083D01*
X88527085Y-82526429D01*
X88567541Y-82500903D01*
X88578125Y-82500000D01*
X93046883Y-82500000D01*
X93091077Y-82518306D01*
X93109383Y-82562500D01*
X93093729Y-82603873D01*
X93077377Y-82622388D01*
X93016447Y-82752163D01*
X92994391Y-82893823D01*
X92994968Y-82898236D01*
X92994968Y-82898238D01*
X92996486Y-82909845D01*
X93012980Y-83035979D01*
X93014773Y-83040054D01*
X93044534Y-83107690D01*
X93070720Y-83167203D01*
X93073584Y-83170610D01*
X93160107Y-83273543D01*
X93160110Y-83273546D01*
X93162970Y-83276948D01*
X93282313Y-83356390D01*
X93419157Y-83399142D01*
X93423607Y-83399224D01*
X93423610Y-83399224D01*
X93479820Y-83400254D01*
X93522869Y-83418550D01*
X95401194Y-85296875D01*
X95419500Y-85341069D01*
X95419500Y-86387000D01*
X95401194Y-86431194D01*
X95357000Y-86449500D01*
X94900252Y-86449500D01*
X94897242Y-86450099D01*
X94897239Y-86450099D01*
X94847805Y-86459932D01*
X94847803Y-86459933D01*
X94841769Y-86461133D01*
X94836655Y-86464550D01*
X94836653Y-86464551D01*
X94795812Y-86491841D01*
X94775448Y-86505448D01*
X94731133Y-86571769D01*
X94729933Y-86577803D01*
X94729932Y-86577805D01*
X94720568Y-86624882D01*
X94719500Y-86630252D01*
X94719500Y-88369748D01*
X94720099Y-88372758D01*
X94720099Y-88372761D01*
X94730551Y-88425307D01*
X94721219Y-88472223D01*
X94681445Y-88498799D01*
X94669252Y-88500000D01*
X93837940Y-88500000D01*
X93793746Y-88481694D01*
X93775440Y-88437500D01*
X93793746Y-88393306D01*
X93799461Y-88388249D01*
X93819349Y-88372711D01*
X93957951Y-88264424D01*
X93986910Y-88230875D01*
X94010980Y-88202989D01*
X94092564Y-88108472D01*
X94194323Y-87929344D01*
X94259351Y-87733863D01*
X94264452Y-87693489D01*
X94284951Y-87531216D01*
X94284951Y-87531215D01*
X94285171Y-87529474D01*
X94285583Y-87500000D01*
X94285414Y-87498280D01*
X94285414Y-87498271D01*
X94265778Y-87298010D01*
X94265480Y-87294970D01*
X94205935Y-87097749D01*
X94109218Y-86915849D01*
X93979011Y-86756200D01*
X93820275Y-86624882D01*
X93639055Y-86526897D01*
X93569764Y-86505448D01*
X93445169Y-86466879D01*
X93445166Y-86466878D01*
X93442254Y-86465977D01*
X93439221Y-86465658D01*
X93439220Y-86465658D01*
X93384739Y-86459932D01*
X93237369Y-86444443D01*
X93234336Y-86444719D01*
X93234332Y-86444719D01*
X93121436Y-86454993D01*
X93032203Y-86463114D01*
X93029270Y-86463977D01*
X93029266Y-86463978D01*
X92934597Y-86491841D01*
X92834572Y-86521280D01*
X92652002Y-86616726D01*
X92491447Y-86745815D01*
X92359024Y-86903630D01*
X92259776Y-87084162D01*
X92197484Y-87280532D01*
X92197143Y-87283570D01*
X92197143Y-87283571D01*
X92195524Y-87298010D01*
X92174520Y-87485262D01*
X92191759Y-87690553D01*
X92248544Y-87888586D01*
X92342712Y-88071818D01*
X92344603Y-88074204D01*
X92344605Y-88074207D01*
X92373598Y-88110787D01*
X92470677Y-88233270D01*
X92627564Y-88366791D01*
X92656463Y-88382942D01*
X92686111Y-88420482D01*
X92680530Y-88467991D01*
X92642990Y-88497639D01*
X92625972Y-88500000D01*
X90660238Y-88500000D01*
X90616044Y-88481694D01*
X90597738Y-88437500D01*
X90598939Y-88425307D01*
X90609401Y-88372711D01*
X90610000Y-88366627D01*
X90610000Y-87912431D01*
X90606359Y-87903641D01*
X90597569Y-87900000D01*
X88522431Y-87900000D01*
X88513641Y-87903641D01*
X88510000Y-87912431D01*
X88510000Y-88366627D01*
X88510599Y-88372711D01*
X88521061Y-88425307D01*
X88511729Y-88472223D01*
X88471955Y-88498799D01*
X88459762Y-88500000D01*
X87627940Y-88500000D01*
X87583746Y-88481694D01*
X87565440Y-88437500D01*
X87583746Y-88393306D01*
X87589461Y-88388249D01*
X87609349Y-88372711D01*
X87747951Y-88264424D01*
X87776910Y-88230875D01*
X87800980Y-88202989D01*
X87882564Y-88108472D01*
X87984323Y-87929344D01*
X88049351Y-87733863D01*
X88054452Y-87693489D01*
X88074951Y-87531216D01*
X88074951Y-87531215D01*
X88075171Y-87529474D01*
X88075583Y-87500000D01*
X88075414Y-87498280D01*
X88075414Y-87498271D01*
X88055778Y-87298010D01*
X88055480Y-87294970D01*
X87995935Y-87097749D01*
X87990522Y-87087569D01*
X88510000Y-87087569D01*
X88513641Y-87096359D01*
X88522431Y-87100000D01*
X89147569Y-87100000D01*
X89156359Y-87096359D01*
X89160000Y-87087569D01*
X89960000Y-87087569D01*
X89963641Y-87096359D01*
X89972431Y-87100000D01*
X90597569Y-87100000D01*
X90606359Y-87096359D01*
X90610000Y-87087569D01*
X90610000Y-86633373D01*
X90609401Y-86627289D01*
X90599597Y-86578003D01*
X90594976Y-86566845D01*
X90557611Y-86510925D01*
X90549075Y-86502389D01*
X90493155Y-86465024D01*
X90481997Y-86460403D01*
X90432711Y-86450599D01*
X90426627Y-86450000D01*
X89972431Y-86450000D01*
X89963641Y-86453641D01*
X89960000Y-86462431D01*
X89960000Y-87087569D01*
X89160000Y-87087569D01*
X89160000Y-86462431D01*
X89156359Y-86453641D01*
X89147569Y-86450000D01*
X88693373Y-86450000D01*
X88687289Y-86450599D01*
X88638003Y-86460403D01*
X88626845Y-86465024D01*
X88570925Y-86502389D01*
X88562389Y-86510925D01*
X88525024Y-86566845D01*
X88520403Y-86578003D01*
X88510599Y-86627289D01*
X88510000Y-86633373D01*
X88510000Y-87087569D01*
X87990522Y-87087569D01*
X87899218Y-86915849D01*
X87769011Y-86756200D01*
X87610275Y-86624882D01*
X87429055Y-86526897D01*
X87359764Y-86505448D01*
X87235169Y-86466879D01*
X87235166Y-86466878D01*
X87232254Y-86465977D01*
X87229221Y-86465658D01*
X87229220Y-86465658D01*
X87174739Y-86459932D01*
X87027369Y-86444443D01*
X87024336Y-86444719D01*
X87024332Y-86444719D01*
X86911436Y-86454993D01*
X86822203Y-86463114D01*
X86819270Y-86463977D01*
X86819266Y-86463978D01*
X86724597Y-86491841D01*
X86624572Y-86521280D01*
X86442002Y-86616726D01*
X86281447Y-86745815D01*
X86149024Y-86903630D01*
X86049776Y-87084162D01*
X85987484Y-87280532D01*
X85987143Y-87283570D01*
X85987143Y-87283571D01*
X85985524Y-87298010D01*
X85964520Y-87485262D01*
X85981759Y-87690553D01*
X86038544Y-87888586D01*
X86132712Y-88071818D01*
X86134603Y-88074204D01*
X86134605Y-88074207D01*
X86163598Y-88110787D01*
X86260677Y-88233270D01*
X86417564Y-88366791D01*
X86446463Y-88382942D01*
X86476111Y-88420482D01*
X86470530Y-88467991D01*
X86432990Y-88497639D01*
X86415972Y-88500000D01*
X85087940Y-88500000D01*
X85043746Y-88481694D01*
X85025440Y-88437500D01*
X85043746Y-88393306D01*
X85049461Y-88388249D01*
X85069349Y-88372711D01*
X85207951Y-88264424D01*
X85236910Y-88230875D01*
X85260980Y-88202989D01*
X85342564Y-88108472D01*
X85444323Y-87929344D01*
X85509351Y-87733863D01*
X85514452Y-87693489D01*
X85534951Y-87531216D01*
X85534951Y-87531215D01*
X85535171Y-87529474D01*
X85535583Y-87500000D01*
X85535414Y-87498280D01*
X85535414Y-87498271D01*
X85515778Y-87298010D01*
X85515480Y-87294970D01*
X85455935Y-87097749D01*
X85359218Y-86915849D01*
X85229011Y-86756200D01*
X85070275Y-86624882D01*
X84889055Y-86526897D01*
X84819764Y-86505448D01*
X84695169Y-86466879D01*
X84695166Y-86466878D01*
X84692254Y-86465977D01*
X84689221Y-86465658D01*
X84689220Y-86465658D01*
X84634739Y-86459932D01*
X84487369Y-86444443D01*
X84484336Y-86444719D01*
X84484332Y-86444719D01*
X84371436Y-86454993D01*
X84282203Y-86463114D01*
X84279270Y-86463977D01*
X84279266Y-86463978D01*
X84184597Y-86491841D01*
X84084572Y-86521280D01*
X83902002Y-86616726D01*
X83741447Y-86745815D01*
X83609024Y-86903630D01*
X83509776Y-87084162D01*
X83447484Y-87280532D01*
X83447143Y-87283570D01*
X83447143Y-87283571D01*
X83445524Y-87298010D01*
X83424520Y-87485262D01*
X83441759Y-87690553D01*
X83498544Y-87888586D01*
X83592712Y-88071818D01*
X83594603Y-88074204D01*
X83594605Y-88074207D01*
X83623598Y-88110787D01*
X83720677Y-88233270D01*
X83877564Y-88366791D01*
X83906463Y-88382942D01*
X83936111Y-88420482D01*
X83930530Y-88467991D01*
X83892990Y-88497639D01*
X83875972Y-88500000D01*
X82547940Y-88500000D01*
X82503746Y-88481694D01*
X82485440Y-88437500D01*
X82503746Y-88393306D01*
X82509461Y-88388249D01*
X82529349Y-88372711D01*
X82667951Y-88264424D01*
X82696910Y-88230875D01*
X82720980Y-88202989D01*
X82802564Y-88108472D01*
X82904323Y-87929344D01*
X82969351Y-87733863D01*
X82974452Y-87693489D01*
X82994951Y-87531216D01*
X82994951Y-87531215D01*
X82995171Y-87529474D01*
X82995583Y-87500000D01*
X82995414Y-87498280D01*
X82995414Y-87498271D01*
X82975778Y-87298010D01*
X82975480Y-87294970D01*
X82915935Y-87097749D01*
X82819218Y-86915849D01*
X82689011Y-86756200D01*
X82530275Y-86624882D01*
X82349055Y-86526897D01*
X82334518Y-86522397D01*
X82297714Y-86491841D01*
X82290500Y-86462692D01*
X82290500Y-85154734D01*
X82296754Y-85127483D01*
X82354768Y-85007741D01*
X82356710Y-85003733D01*
X82359012Y-84990054D01*
X82380096Y-84864729D01*
X82380496Y-84862354D01*
X82380647Y-84850000D01*
X82374413Y-84806468D01*
X87042775Y-84806468D01*
X87072126Y-84977282D01*
X87139986Y-85136762D01*
X87242713Y-85276353D01*
X87245479Y-85278703D01*
X87245481Y-85278705D01*
X87266869Y-85296875D01*
X87374799Y-85388568D01*
X87529157Y-85467387D01*
X87697507Y-85508582D01*
X87704976Y-85509045D01*
X87707467Y-85509200D01*
X87707471Y-85509200D01*
X87708436Y-85509260D01*
X87833400Y-85509260D01*
X87962151Y-85494249D01*
X88033777Y-85468250D01*
X88121652Y-85436353D01*
X88121655Y-85436352D01*
X88125067Y-85435113D01*
X88270010Y-85340085D01*
X88389203Y-85214261D01*
X88391026Y-85211123D01*
X88391028Y-85211120D01*
X88474435Y-85067524D01*
X88474436Y-85067523D01*
X88476254Y-85064392D01*
X88500425Y-84984585D01*
X88525440Y-84901993D01*
X88525440Y-84901992D01*
X88526493Y-84898516D01*
X88537225Y-84725532D01*
X88507874Y-84554718D01*
X88440014Y-84395238D01*
X88337287Y-84255647D01*
X88334179Y-84253006D01*
X88273747Y-84201666D01*
X88205201Y-84143432D01*
X88050843Y-84064613D01*
X87882493Y-84023418D01*
X87874981Y-84022952D01*
X87872533Y-84022800D01*
X87872529Y-84022800D01*
X87871564Y-84022740D01*
X87746600Y-84022740D01*
X87617849Y-84037751D01*
X87614430Y-84038992D01*
X87458348Y-84095647D01*
X87458345Y-84095648D01*
X87454933Y-84096887D01*
X87309990Y-84191915D01*
X87190797Y-84317739D01*
X87188974Y-84320877D01*
X87188972Y-84320880D01*
X87118188Y-84442744D01*
X87103746Y-84467608D01*
X87053507Y-84633484D01*
X87042775Y-84806468D01*
X82374413Y-84806468D01*
X82360323Y-84708082D01*
X82300984Y-84577572D01*
X82207400Y-84468963D01*
X82203665Y-84466542D01*
X82195456Y-84461221D01*
X82168326Y-84421823D01*
X82166949Y-84408774D01*
X82166949Y-84400726D01*
X82185255Y-84356532D01*
X82229449Y-84338226D01*
X82269914Y-84353094D01*
X82294089Y-84373632D01*
X82448711Y-84452586D01*
X82617348Y-84493851D01*
X82624832Y-84494315D01*
X82627324Y-84494470D01*
X82627328Y-84494470D01*
X82628293Y-84494530D01*
X82753478Y-84494530D01*
X82755268Y-84494321D01*
X82755273Y-84494321D01*
X82804477Y-84488584D01*
X82882445Y-84479494D01*
X82932786Y-84461221D01*
X83042225Y-84421497D01*
X83042228Y-84421495D01*
X83045640Y-84420257D01*
X83061372Y-84409943D01*
X83114232Y-84375286D01*
X83190830Y-84325066D01*
X83310227Y-84199027D01*
X83312050Y-84195889D01*
X83312052Y-84195886D01*
X83395608Y-84052034D01*
X83395609Y-84052032D01*
X83397427Y-84048902D01*
X83442448Y-83900255D01*
X83446699Y-83886220D01*
X83446699Y-83886219D01*
X83447752Y-83882743D01*
X83458502Y-83709463D01*
X83429101Y-83538357D01*
X83361125Y-83378605D01*
X83258222Y-83238775D01*
X83125911Y-83126368D01*
X82971289Y-83047414D01*
X82802652Y-83006149D01*
X82795076Y-83005679D01*
X82792676Y-83005530D01*
X82792672Y-83005530D01*
X82791707Y-83005470D01*
X82666522Y-83005470D01*
X82664732Y-83005679D01*
X82664727Y-83005679D01*
X82615523Y-83011416D01*
X82537555Y-83020506D01*
X82534139Y-83021746D01*
X82377775Y-83078503D01*
X82377772Y-83078505D01*
X82374360Y-83079743D01*
X82229170Y-83174934D01*
X82109773Y-83300973D01*
X82107950Y-83304111D01*
X82107948Y-83304114D01*
X82028552Y-83440804D01*
X82022573Y-83451098D01*
X82021522Y-83454569D01*
X82021520Y-83454573D01*
X82015855Y-83473275D01*
X81985525Y-83510266D01*
X81937922Y-83514974D01*
X81911845Y-83499352D01*
X80894226Y-82481733D01*
X80876551Y-82446399D01*
X80875776Y-82440985D01*
X80860323Y-82333082D01*
X80800984Y-82202572D01*
X80707400Y-82093963D01*
X80587095Y-82015985D01*
X80574456Y-82012205D01*
X80502681Y-81990740D01*
X80449739Y-81974907D01*
X80378058Y-81974469D01*
X80310829Y-81974058D01*
X80310828Y-81974058D01*
X80306376Y-81974031D01*
X80168529Y-82013428D01*
X80047280Y-82089930D01*
X80044337Y-82093262D01*
X80044335Y-82093264D01*
X80021639Y-82118963D01*
X79952377Y-82197388D01*
X79891447Y-82327163D01*
X79869391Y-82468823D01*
X79869968Y-82473236D01*
X79869968Y-82473238D01*
X79876439Y-82522718D01*
X79887980Y-82610979D01*
X79889773Y-82615054D01*
X79925898Y-82697153D01*
X79945720Y-82742203D01*
X79948584Y-82745610D01*
X80035107Y-82848543D01*
X80035110Y-82848546D01*
X80037970Y-82851948D01*
X80157313Y-82931390D01*
X80294157Y-82974142D01*
X80298607Y-82974224D01*
X80298610Y-82974224D01*
X80371945Y-82975568D01*
X80414993Y-82993864D01*
X80779282Y-83358153D01*
X80797588Y-83402347D01*
X80779282Y-83446541D01*
X80768439Y-83455205D01*
X80673780Y-83514930D01*
X80662416Y-83527798D01*
X80661909Y-83528372D01*
X80615062Y-83549500D01*
X80235860Y-83549500D01*
X80188513Y-83527798D01*
X80183808Y-83522338D01*
X80180900Y-83518963D01*
X80060595Y-83440985D01*
X80047956Y-83437205D01*
X79933959Y-83403113D01*
X79923239Y-83399907D01*
X79851558Y-83399469D01*
X79784329Y-83399058D01*
X79784328Y-83399058D01*
X79779876Y-83399031D01*
X79642029Y-83438428D01*
X79520780Y-83514930D01*
X79517837Y-83518262D01*
X79517835Y-83518264D01*
X79500090Y-83538357D01*
X79425877Y-83622388D01*
X79364947Y-83752163D01*
X79342891Y-83893823D01*
X79343468Y-83898236D01*
X79343468Y-83898238D01*
X79348564Y-83937205D01*
X79361480Y-84035979D01*
X79363273Y-84040054D01*
X79409794Y-84145780D01*
X79419220Y-84167203D01*
X79422084Y-84170610D01*
X79508607Y-84273543D01*
X79508610Y-84273546D01*
X79511470Y-84276948D01*
X79630813Y-84356390D01*
X79635064Y-84357718D01*
X79763405Y-84397814D01*
X79763408Y-84397814D01*
X79767657Y-84399142D01*
X79772109Y-84399224D01*
X79772111Y-84399224D01*
X79843142Y-84400526D01*
X79910999Y-84401770D01*
X80049317Y-84364060D01*
X80171491Y-84289045D01*
X80187772Y-84271058D01*
X80234109Y-84250500D01*
X80613127Y-84250500D01*
X80657321Y-84268806D01*
X80660966Y-84272780D01*
X80664470Y-84276948D01*
X80783813Y-84356390D01*
X80788064Y-84357718D01*
X80916405Y-84397814D01*
X80916408Y-84397814D01*
X80920657Y-84399142D01*
X80925109Y-84399224D01*
X80925111Y-84399224D01*
X80996142Y-84400526D01*
X81063999Y-84401770D01*
X81202317Y-84364060D01*
X81324491Y-84289045D01*
X81327479Y-84285744D01*
X81357112Y-84253006D01*
X81400342Y-84232525D01*
X81445391Y-84248611D01*
X81465949Y-84294948D01*
X81465949Y-84534186D01*
X81455685Y-84568503D01*
X81455327Y-84569048D01*
X81452377Y-84572388D01*
X81450485Y-84576417D01*
X81450484Y-84576419D01*
X81446134Y-84585684D01*
X81391447Y-84702163D01*
X81390762Y-84706561D01*
X81390762Y-84706562D01*
X81387245Y-84729153D01*
X81369391Y-84843823D01*
X81369968Y-84848236D01*
X81369968Y-84848238D01*
X81376543Y-84898516D01*
X81387980Y-84985979D01*
X81389773Y-84990054D01*
X81430349Y-85082269D01*
X81445720Y-85117203D01*
X81454361Y-85127483D01*
X81535107Y-85223543D01*
X81535110Y-85223546D01*
X81537970Y-85226948D01*
X81541672Y-85229413D01*
X81541674Y-85229414D01*
X81561633Y-85242700D01*
X81588278Y-85282428D01*
X81589500Y-85294727D01*
X81589500Y-86461301D01*
X81571194Y-86505495D01*
X81549896Y-86518181D01*
X81550337Y-86519273D01*
X81547509Y-86520416D01*
X81544572Y-86521280D01*
X81362002Y-86616726D01*
X81201447Y-86745815D01*
X81069024Y-86903630D01*
X80969776Y-87084162D01*
X80907484Y-87280532D01*
X80907143Y-87283570D01*
X80907143Y-87283571D01*
X80905524Y-87298010D01*
X80884520Y-87485262D01*
X80901759Y-87690553D01*
X80958544Y-87888586D01*
X81052712Y-88071818D01*
X81054603Y-88074204D01*
X81054605Y-88074207D01*
X81083598Y-88110787D01*
X81180677Y-88233270D01*
X81337564Y-88366791D01*
X81366463Y-88382942D01*
X81396111Y-88420482D01*
X81390530Y-88467991D01*
X81352990Y-88497639D01*
X81335972Y-88500000D01*
X68775888Y-88500000D01*
X68731694Y-88481694D01*
X64750000Y-84500000D01*
X61264644Y-84500000D01*
X61220450Y-84481694D01*
X61202144Y-84437500D01*
X61203010Y-84427130D01*
X61205097Y-84414728D01*
X61205097Y-84414723D01*
X61205496Y-84412354D01*
X61205647Y-84400000D01*
X61185323Y-84258082D01*
X61125984Y-84127572D01*
X61036239Y-84023418D01*
X61035303Y-84022332D01*
X61032400Y-84018963D01*
X60912095Y-83940985D01*
X60899456Y-83937205D01*
X60834770Y-83917860D01*
X60774739Y-83899907D01*
X60703058Y-83899469D01*
X60635829Y-83899058D01*
X60635828Y-83899058D01*
X60631376Y-83899031D01*
X60493529Y-83938428D01*
X60372280Y-84014930D01*
X60369337Y-84018262D01*
X60369335Y-84018264D01*
X60298140Y-84098878D01*
X60277377Y-84122388D01*
X60266395Y-84145780D01*
X60258046Y-84163562D01*
X60222694Y-84195786D01*
X60201471Y-84199500D01*
X58450359Y-84199500D01*
X58406165Y-84181194D01*
X57000000Y-82775029D01*
X57000000Y-79880000D01*
X57175593Y-79880000D01*
X57179365Y-79879772D01*
X57299456Y-79865240D01*
X57306727Y-79863454D01*
X57458164Y-79806230D01*
X57464794Y-79802764D01*
X57598211Y-79711069D01*
X57603825Y-79706120D01*
X57709864Y-79587105D01*
X57710393Y-79581514D01*
X57709522Y-79580461D01*
X57707667Y-79580000D01*
X57000000Y-79580000D01*
X57000000Y-78780000D01*
X57702591Y-78780000D01*
X57709675Y-78777066D01*
X57707574Y-78771462D01*
X57609307Y-78658816D01*
X57603748Y-78653811D01*
X57471301Y-78560726D01*
X57464702Y-78557187D01*
X57313871Y-78498380D01*
X57306624Y-78496520D01*
X57183171Y-78480267D01*
X57179092Y-78480000D01*
X57000000Y-78480000D01*
X57000000Y-75600000D01*
X57256177Y-75343823D01*
X62744391Y-75343823D01*
X62744968Y-75348235D01*
X62744968Y-75348237D01*
X62748708Y-75376833D01*
X62749235Y-75385320D01*
X62749031Y-75418624D01*
X62757235Y-75447330D01*
X62759110Y-75456380D01*
X62762980Y-75485979D01*
X62764774Y-75490056D01*
X62776389Y-75516454D01*
X62779275Y-75524447D01*
X62788428Y-75556471D01*
X62790801Y-75560232D01*
X62790805Y-75560241D01*
X62804353Y-75581713D01*
X62808702Y-75589891D01*
X62820720Y-75617203D01*
X62823584Y-75620610D01*
X62842145Y-75642691D01*
X62847160Y-75649556D01*
X62853914Y-75660260D01*
X62864930Y-75677720D01*
X62887304Y-75697480D01*
X62893769Y-75704106D01*
X62910104Y-75723540D01*
X62910109Y-75723545D01*
X62912970Y-75726948D01*
X62926187Y-75735746D01*
X62940691Y-75745401D01*
X62947432Y-75750582D01*
X62972388Y-75772623D01*
X62976418Y-75774515D01*
X62999398Y-75785304D01*
X63007468Y-75789851D01*
X63032313Y-75806390D01*
X63036564Y-75807718D01*
X63036566Y-75807719D01*
X63064095Y-75816320D01*
X63072019Y-75819401D01*
X63098128Y-75831659D01*
X63098131Y-75831660D01*
X63102163Y-75833553D01*
X63106563Y-75834238D01*
X63106566Y-75834239D01*
X63131656Y-75838145D01*
X63140679Y-75840245D01*
X63164903Y-75847813D01*
X63169157Y-75849142D01*
X63173607Y-75849224D01*
X63173610Y-75849224D01*
X63202448Y-75849752D01*
X63206202Y-75850075D01*
X63206212Y-75849942D01*
X63208629Y-75850129D01*
X63211009Y-75850500D01*
X63242682Y-75850500D01*
X63243828Y-75850511D01*
X63312499Y-75851770D01*
X63315889Y-75850846D01*
X63321463Y-75850500D01*
X66592682Y-75850500D01*
X66593828Y-75850511D01*
X66662499Y-75851770D01*
X66697958Y-75842103D01*
X66705533Y-75840534D01*
X66737514Y-75835954D01*
X66737516Y-75835953D01*
X66741918Y-75835323D01*
X66749729Y-75831772D01*
X66765937Y-75824403D01*
X66775365Y-75820999D01*
X66781226Y-75819401D01*
X66800817Y-75814060D01*
X66811145Y-75807719D01*
X66832138Y-75794829D01*
X66838971Y-75791196D01*
X66868376Y-75777827D01*
X66868380Y-75777825D01*
X66872428Y-75775984D01*
X66875800Y-75773079D01*
X66875804Y-75773076D01*
X66892419Y-75758760D01*
X66900513Y-75752847D01*
X66912639Y-75745401D01*
X66922991Y-75739045D01*
X66947660Y-75711790D01*
X66953189Y-75706395D01*
X66981037Y-75682400D01*
X66995391Y-75660254D01*
X67001497Y-75652312D01*
X67010206Y-75642691D01*
X67019200Y-75632754D01*
X67035222Y-75599684D01*
X67039021Y-75592942D01*
X67056595Y-75565829D01*
X67056596Y-75565828D01*
X67059015Y-75562095D01*
X67066576Y-75536812D01*
X67070210Y-75527469D01*
X67073656Y-75520356D01*
X67081710Y-75503733D01*
X67083997Y-75490142D01*
X67087807Y-75467489D01*
X67089559Y-75459961D01*
X67100093Y-75424739D01*
X67100254Y-75398353D01*
X67101119Y-75388367D01*
X67102349Y-75381062D01*
X67105496Y-75362354D01*
X67105647Y-75350000D01*
X67101416Y-75320455D01*
X67100786Y-75311216D01*
X67100942Y-75285830D01*
X67100942Y-75285828D01*
X67100969Y-75281376D01*
X67091817Y-75249352D01*
X67090044Y-75241047D01*
X67085954Y-75212488D01*
X67085323Y-75208082D01*
X67072973Y-75180918D01*
X67069776Y-75172228D01*
X67062799Y-75147817D01*
X67062795Y-75147808D01*
X67061572Y-75143529D01*
X67043805Y-75115369D01*
X67039769Y-75107890D01*
X67027825Y-75081622D01*
X67025984Y-75077572D01*
X67016787Y-75066898D01*
X67006503Y-75054963D01*
X67000993Y-75047517D01*
X66987447Y-75026048D01*
X66985070Y-75022280D01*
X66960109Y-75000236D01*
X66954133Y-74994186D01*
X66935308Y-74972337D01*
X66935305Y-74972334D01*
X66932400Y-74968963D01*
X66907356Y-74952730D01*
X66899978Y-74947130D01*
X66899297Y-74946528D01*
X66877612Y-74927377D01*
X66847471Y-74913225D01*
X66840040Y-74909098D01*
X66815830Y-74893406D01*
X66815831Y-74893406D01*
X66812095Y-74890985D01*
X66807834Y-74889711D01*
X66807826Y-74889707D01*
X66783503Y-74882433D01*
X66774849Y-74879129D01*
X66751868Y-74868339D01*
X66751864Y-74868338D01*
X66747837Y-74866447D01*
X66736470Y-74864677D01*
X66714932Y-74861323D01*
X66706643Y-74859447D01*
X66679009Y-74851184D01*
X66674739Y-74849907D01*
X66642761Y-74849711D01*
X66641235Y-74849702D01*
X66639944Y-74849648D01*
X66638991Y-74849500D01*
X66608349Y-74849500D01*
X66607967Y-74849499D01*
X66531376Y-74849031D01*
X66530171Y-74849376D01*
X66528342Y-74849500D01*
X63258349Y-74849500D01*
X63257967Y-74849499D01*
X63185829Y-74849058D01*
X63185828Y-74849058D01*
X63181376Y-74849031D01*
X63177096Y-74850254D01*
X63177091Y-74850255D01*
X63149358Y-74858182D01*
X63141046Y-74859957D01*
X63108082Y-74864677D01*
X63080919Y-74877027D01*
X63072228Y-74880224D01*
X63047817Y-74887201D01*
X63047808Y-74887205D01*
X63043529Y-74888428D01*
X63039760Y-74890806D01*
X63015371Y-74906194D01*
X63007891Y-74910230D01*
X62977572Y-74924016D01*
X62970251Y-74930324D01*
X62954963Y-74943497D01*
X62947517Y-74949007D01*
X62922280Y-74964930D01*
X62919331Y-74968269D01*
X62919330Y-74968270D01*
X62900236Y-74989891D01*
X62894186Y-74995867D01*
X62872337Y-75014692D01*
X62872334Y-75014695D01*
X62868963Y-75017600D01*
X62866541Y-75021337D01*
X62852731Y-75042643D01*
X62847131Y-75050021D01*
X62827377Y-75072388D01*
X62825485Y-75076418D01*
X62813226Y-75102528D01*
X62809099Y-75109958D01*
X62790985Y-75137905D01*
X62789711Y-75142166D01*
X62789707Y-75142174D01*
X62782433Y-75166497D01*
X62779129Y-75175151D01*
X62768339Y-75198132D01*
X62768338Y-75198136D01*
X62766447Y-75202163D01*
X62765762Y-75206562D01*
X62761323Y-75235068D01*
X62759447Y-75243357D01*
X62751699Y-75269270D01*
X62749907Y-75275261D01*
X62749880Y-75279716D01*
X62749724Y-75305107D01*
X62748981Y-75314338D01*
X62748744Y-75315863D01*
X62744391Y-75343823D01*
X57256177Y-75343823D01*
X58000000Y-74600000D01*
X61800000Y-74600000D01*
X62400000Y-74000000D01*
X62400000Y-73893823D01*
X63494391Y-73893823D01*
X63494968Y-73898235D01*
X63494968Y-73898237D01*
X63498708Y-73926833D01*
X63499235Y-73935320D01*
X63499031Y-73968624D01*
X63507235Y-73997330D01*
X63509110Y-74006380D01*
X63512980Y-74035979D01*
X63514774Y-74040056D01*
X63526389Y-74066454D01*
X63529275Y-74074447D01*
X63538428Y-74106471D01*
X63540801Y-74110232D01*
X63540805Y-74110241D01*
X63554353Y-74131713D01*
X63558702Y-74139891D01*
X63570720Y-74167203D01*
X63573584Y-74170610D01*
X63592145Y-74192691D01*
X63597160Y-74199555D01*
X63614930Y-74227720D01*
X63637304Y-74247480D01*
X63643769Y-74254106D01*
X63660104Y-74273540D01*
X63660109Y-74273545D01*
X63662970Y-74276948D01*
X63687017Y-74292955D01*
X63690691Y-74295401D01*
X63697432Y-74300582D01*
X63722388Y-74322623D01*
X63726418Y-74324515D01*
X63749398Y-74335304D01*
X63757468Y-74339851D01*
X63782313Y-74356390D01*
X63786564Y-74357718D01*
X63786566Y-74357719D01*
X63814095Y-74366320D01*
X63822019Y-74369401D01*
X63848128Y-74381659D01*
X63848131Y-74381660D01*
X63852163Y-74383553D01*
X63856563Y-74384238D01*
X63856566Y-74384239D01*
X63881656Y-74388145D01*
X63890680Y-74390245D01*
X63919157Y-74399142D01*
X63923607Y-74399224D01*
X63923610Y-74399224D01*
X63952448Y-74399752D01*
X63956202Y-74400075D01*
X63956212Y-74399942D01*
X63958629Y-74400129D01*
X63961009Y-74400500D01*
X63992682Y-74400500D01*
X63993828Y-74400511D01*
X64062499Y-74401770D01*
X64065889Y-74400846D01*
X64071463Y-74400500D01*
X67266798Y-74400500D01*
X67310992Y-74418806D01*
X68301484Y-75409298D01*
X68310148Y-75420141D01*
X68314930Y-75427720D01*
X68318262Y-75430663D01*
X68318264Y-75430665D01*
X68356073Y-75464056D01*
X68358894Y-75466708D01*
X68371506Y-75479320D01*
X68373281Y-75480651D01*
X68373283Y-75480652D01*
X68381720Y-75486975D01*
X68385608Y-75490141D01*
X68422388Y-75522623D01*
X68426418Y-75524515D01*
X68426421Y-75524517D01*
X68435059Y-75528573D01*
X68445978Y-75535133D01*
X68457176Y-75543526D01*
X68503128Y-75560753D01*
X68507746Y-75562699D01*
X68514413Y-75565829D01*
X68552163Y-75583553D01*
X68565991Y-75585706D01*
X68578312Y-75588939D01*
X68587249Y-75592289D01*
X68587251Y-75592289D01*
X68591419Y-75593852D01*
X68595857Y-75594182D01*
X68595858Y-75594182D01*
X68622934Y-75596194D01*
X68640363Y-75597489D01*
X68645338Y-75598060D01*
X68661009Y-75600500D01*
X68678568Y-75600500D01*
X68683197Y-75600672D01*
X68734391Y-75604476D01*
X68746567Y-75601877D01*
X68759614Y-75600500D01*
X74862000Y-75600500D01*
X74906194Y-75618806D01*
X74924500Y-75663000D01*
X74924500Y-76342076D01*
X74908846Y-76383449D01*
X74852377Y-76447388D01*
X74791447Y-76577163D01*
X74769391Y-76718823D01*
X74769968Y-76723236D01*
X74769968Y-76723238D01*
X74772963Y-76746143D01*
X74787980Y-76860979D01*
X74789773Y-76865054D01*
X74826685Y-76948942D01*
X74845720Y-76992203D01*
X74848584Y-76995610D01*
X74935107Y-77098543D01*
X74935110Y-77098546D01*
X74937970Y-77101948D01*
X75057313Y-77181390D01*
X75061564Y-77182718D01*
X75189905Y-77222814D01*
X75189908Y-77222814D01*
X75194157Y-77224142D01*
X75198609Y-77224224D01*
X75198611Y-77224224D01*
X75269642Y-77225526D01*
X75337499Y-77226770D01*
X75475817Y-77189060D01*
X75597991Y-77114045D01*
X75615097Y-77095147D01*
X75691213Y-77011054D01*
X75694200Y-77007754D01*
X75756710Y-76878733D01*
X75759012Y-76865054D01*
X75767700Y-76813413D01*
X75780496Y-76737354D01*
X75780647Y-76725000D01*
X75760323Y-76583082D01*
X75700984Y-76452572D01*
X75640652Y-76382553D01*
X75625500Y-76341756D01*
X75625500Y-75663000D01*
X75643806Y-75618806D01*
X75688000Y-75600500D01*
X75866798Y-75600500D01*
X75910992Y-75618806D01*
X77628554Y-77336368D01*
X77632203Y-77340346D01*
X77662970Y-77376948D01*
X77709573Y-77407969D01*
X77712383Y-77409956D01*
X77757176Y-77443527D01*
X77761346Y-77445090D01*
X77761351Y-77445093D01*
X77763768Y-77445999D01*
X77776454Y-77452490D01*
X77782313Y-77456390D01*
X77818829Y-77467798D01*
X77835704Y-77473070D01*
X77839005Y-77474203D01*
X77887253Y-77492290D01*
X77891420Y-77493852D01*
X77895857Y-77494182D01*
X77895859Y-77494182D01*
X77897859Y-77494330D01*
X77898436Y-77494373D01*
X77912448Y-77497046D01*
X77914905Y-77497814D01*
X77914908Y-77497815D01*
X77919157Y-77499142D01*
X77923609Y-77499224D01*
X77923611Y-77499224D01*
X77975092Y-77500168D01*
X77978577Y-77500329D01*
X78029950Y-77504146D01*
X78034392Y-77504476D01*
X78041274Y-77503007D01*
X78055465Y-77501641D01*
X78056904Y-77501667D01*
X78062499Y-77501770D01*
X78116494Y-77487049D01*
X78119860Y-77486231D01*
X78174599Y-77474547D01*
X78178520Y-77472431D01*
X78178524Y-77472430D01*
X78180797Y-77471204D01*
X78194026Y-77465912D01*
X78195327Y-77465557D01*
X78200817Y-77464060D01*
X78226133Y-77448516D01*
X78248495Y-77434786D01*
X78251518Y-77433044D01*
X78296853Y-77408582D01*
X78300771Y-77406468D01*
X78303937Y-77403340D01*
X78303944Y-77403335D01*
X78305777Y-77401524D01*
X78316994Y-77392728D01*
X78319196Y-77391376D01*
X78319201Y-77391372D01*
X78322991Y-77389045D01*
X78360535Y-77347567D01*
X78362948Y-77345046D01*
X78399593Y-77308846D01*
X78399594Y-77308844D01*
X78402763Y-77305714D01*
X78406182Y-77299559D01*
X78414478Y-77287971D01*
X78416213Y-77286055D01*
X78416216Y-77286051D01*
X78419200Y-77282754D01*
X78443597Y-77232399D01*
X78445189Y-77229333D01*
X78472378Y-77180384D01*
X78473362Y-77176035D01*
X78473932Y-77173518D01*
X78478643Y-77160066D01*
X78479768Y-77157744D01*
X78479771Y-77157736D01*
X78481710Y-77153733D01*
X78490991Y-77098568D01*
X78491665Y-77095147D01*
X78503036Y-77044897D01*
X78504019Y-77040553D01*
X78503583Y-77033526D01*
X78504329Y-77019293D01*
X78505496Y-77012354D01*
X78505647Y-77000000D01*
X78498689Y-76951413D01*
X78498179Y-76946433D01*
X78495417Y-76901905D01*
X78495417Y-76901903D01*
X78495141Y-76897462D01*
X78493630Y-76893276D01*
X78493629Y-76893272D01*
X78490390Y-76884300D01*
X78487308Y-76871942D01*
X78485954Y-76862490D01*
X78485323Y-76858082D01*
X78483478Y-76854024D01*
X78465014Y-76813413D01*
X78463122Y-76808767D01*
X78447972Y-76766802D01*
X78446460Y-76762613D01*
X78443485Y-76758541D01*
X78438205Y-76751312D01*
X78431779Y-76740316D01*
X78427827Y-76731626D01*
X78425984Y-76727572D01*
X78393947Y-76690391D01*
X78390826Y-76686460D01*
X78382905Y-76675617D01*
X78382903Y-76675615D01*
X78381478Y-76673664D01*
X78369070Y-76661256D01*
X78365916Y-76657860D01*
X78335303Y-76622332D01*
X78332400Y-76618963D01*
X78321952Y-76612191D01*
X78311752Y-76603938D01*
X76498516Y-74790702D01*
X76489852Y-74779859D01*
X76487444Y-74776043D01*
X76485070Y-74772280D01*
X76481738Y-74769337D01*
X76481736Y-74769335D01*
X76443927Y-74735944D01*
X76441106Y-74733292D01*
X76428494Y-74720680D01*
X76418279Y-74713024D01*
X76414390Y-74709858D01*
X76380949Y-74680324D01*
X76377612Y-74677377D01*
X76373582Y-74675485D01*
X76373579Y-74675483D01*
X76364941Y-74671427D01*
X76354023Y-74664867D01*
X76353292Y-74664319D01*
X76342824Y-74656474D01*
X76315884Y-74646374D01*
X76296875Y-74639248D01*
X76292252Y-74637300D01*
X76247837Y-74616447D01*
X76243439Y-74615762D01*
X76243438Y-74615762D01*
X76234008Y-74614294D01*
X76221682Y-74611060D01*
X76212755Y-74607713D01*
X76212754Y-74607713D01*
X76208580Y-74606148D01*
X76159639Y-74602511D01*
X76154658Y-74601939D01*
X76141382Y-74599872D01*
X76141379Y-74599872D01*
X76138991Y-74599500D01*
X76121431Y-74599500D01*
X76116802Y-74599328D01*
X76065608Y-74595524D01*
X76061256Y-74596453D01*
X76053433Y-74598123D01*
X76040385Y-74599500D01*
X68933202Y-74599500D01*
X68889008Y-74581194D01*
X67898516Y-73590702D01*
X67889852Y-73579859D01*
X67887444Y-73576043D01*
X67885070Y-73572280D01*
X67881738Y-73569337D01*
X67881736Y-73569335D01*
X67843927Y-73535944D01*
X67841106Y-73533292D01*
X67828494Y-73520680D01*
X67825279Y-73518270D01*
X67818280Y-73513025D01*
X67814390Y-73509858D01*
X67780949Y-73480324D01*
X67777612Y-73477377D01*
X67773582Y-73475485D01*
X67773579Y-73475483D01*
X67764941Y-73471427D01*
X67754023Y-73464867D01*
X67753292Y-73464319D01*
X67742824Y-73456474D01*
X67715884Y-73446374D01*
X67696875Y-73439248D01*
X67692252Y-73437300D01*
X67692041Y-73437201D01*
X67647837Y-73416447D01*
X67643439Y-73415762D01*
X67643438Y-73415762D01*
X67634008Y-73414294D01*
X67621682Y-73411060D01*
X67612755Y-73407713D01*
X67612754Y-73407713D01*
X67608580Y-73406148D01*
X67559639Y-73402511D01*
X67554658Y-73401939D01*
X67541382Y-73399872D01*
X67541379Y-73399872D01*
X67538991Y-73399500D01*
X67521431Y-73399500D01*
X67516802Y-73399328D01*
X67465608Y-73395524D01*
X67461256Y-73396453D01*
X67453433Y-73398123D01*
X67440385Y-73399500D01*
X64008349Y-73399500D01*
X64007967Y-73399499D01*
X63935829Y-73399058D01*
X63935828Y-73399058D01*
X63931376Y-73399031D01*
X63927096Y-73400254D01*
X63927091Y-73400255D01*
X63899358Y-73408182D01*
X63891046Y-73409957D01*
X63858082Y-73414677D01*
X63830919Y-73427027D01*
X63822228Y-73430224D01*
X63797817Y-73437201D01*
X63797808Y-73437205D01*
X63793529Y-73438428D01*
X63789760Y-73440806D01*
X63765371Y-73456194D01*
X63757891Y-73460230D01*
X63727572Y-73474016D01*
X63720251Y-73480324D01*
X63704963Y-73493497D01*
X63697517Y-73499007D01*
X63672280Y-73514930D01*
X63669331Y-73518269D01*
X63669330Y-73518270D01*
X63650236Y-73539891D01*
X63644186Y-73545867D01*
X63622337Y-73564692D01*
X63622334Y-73564695D01*
X63618963Y-73567600D01*
X63616541Y-73571337D01*
X63602731Y-73592643D01*
X63597131Y-73600021D01*
X63577377Y-73622388D01*
X63575485Y-73626418D01*
X63563226Y-73652528D01*
X63559099Y-73659958D01*
X63540985Y-73687905D01*
X63539711Y-73692166D01*
X63539707Y-73692174D01*
X63532433Y-73716497D01*
X63529129Y-73725151D01*
X63518339Y-73748132D01*
X63518338Y-73748136D01*
X63516447Y-73752163D01*
X63515762Y-73756562D01*
X63511323Y-73785068D01*
X63509447Y-73793357D01*
X63501699Y-73819270D01*
X63499907Y-73825261D01*
X63499880Y-73829716D01*
X63499724Y-73855107D01*
X63498981Y-73864338D01*
X63495777Y-73884922D01*
X63494391Y-73893823D01*
X62400000Y-73893823D01*
X62400000Y-67941627D01*
X63950000Y-67941627D01*
X63950599Y-67947711D01*
X63960403Y-67996997D01*
X63965024Y-68008155D01*
X64002389Y-68064075D01*
X64010925Y-68072611D01*
X64066845Y-68109976D01*
X64078003Y-68114597D01*
X64127289Y-68124401D01*
X64133373Y-68125000D01*
X64587569Y-68125000D01*
X64596359Y-68121359D01*
X64600000Y-68112569D01*
X65400000Y-68112569D01*
X65403641Y-68121359D01*
X65412431Y-68125000D01*
X65866627Y-68125000D01*
X65872711Y-68124401D01*
X65921997Y-68114597D01*
X65933155Y-68109976D01*
X65989075Y-68072611D01*
X65997611Y-68064075D01*
X66034976Y-68008155D01*
X66039597Y-67996997D01*
X66049401Y-67947711D01*
X66050000Y-67941627D01*
X66050000Y-67487431D01*
X66046359Y-67478641D01*
X66037569Y-67475000D01*
X65412431Y-67475000D01*
X65403641Y-67478641D01*
X65400000Y-67487431D01*
X65400000Y-68112569D01*
X64600000Y-68112569D01*
X64600000Y-67487431D01*
X64596359Y-67478641D01*
X64587569Y-67475000D01*
X63962431Y-67475000D01*
X63953641Y-67478641D01*
X63950000Y-67487431D01*
X63950000Y-67941627D01*
X62400000Y-67941627D01*
X62400000Y-66662569D01*
X63950000Y-66662569D01*
X63953641Y-66671359D01*
X63962431Y-66675000D01*
X64587569Y-66675000D01*
X64596359Y-66671359D01*
X64600000Y-66662569D01*
X65400000Y-66662569D01*
X65403641Y-66671359D01*
X65412431Y-66675000D01*
X66037569Y-66675000D01*
X66046359Y-66671359D01*
X66050000Y-66662569D01*
X66050000Y-66208373D01*
X66049401Y-66202289D01*
X66039597Y-66153003D01*
X66034976Y-66141845D01*
X65997611Y-66085925D01*
X65989075Y-66077389D01*
X65933155Y-66040024D01*
X65921997Y-66035403D01*
X65872711Y-66025599D01*
X65866627Y-66025000D01*
X65412431Y-66025000D01*
X65403641Y-66028641D01*
X65400000Y-66037431D01*
X65400000Y-66662569D01*
X64600000Y-66662569D01*
X64600000Y-66037431D01*
X64596359Y-66028641D01*
X64587569Y-66025000D01*
X64133373Y-66025000D01*
X64127289Y-66025599D01*
X64078003Y-66035403D01*
X64066845Y-66040024D01*
X64010925Y-66077389D01*
X64002389Y-66085925D01*
X63965024Y-66141845D01*
X63960403Y-66153003D01*
X63950599Y-66202289D01*
X63950000Y-66208373D01*
X63950000Y-66662569D01*
X62400000Y-66662569D01*
X62400000Y-64520262D01*
X63944520Y-64520262D01*
X63945758Y-64535000D01*
X63961251Y-64719501D01*
X63961759Y-64725553D01*
X64018544Y-64923586D01*
X64112712Y-65106818D01*
X64114603Y-65109204D01*
X64114605Y-65109207D01*
X64143598Y-65145787D01*
X64240677Y-65268270D01*
X64397564Y-65401791D01*
X64577398Y-65502297D01*
X64580302Y-65503241D01*
X64580303Y-65503241D01*
X64770416Y-65565013D01*
X64770421Y-65565014D01*
X64773329Y-65565959D01*
X64776370Y-65566322D01*
X64776372Y-65566322D01*
X64838442Y-65573723D01*
X64977894Y-65590351D01*
X64980936Y-65590117D01*
X64980939Y-65590117D01*
X65180249Y-65574781D01*
X65180251Y-65574781D01*
X65183300Y-65574546D01*
X65381725Y-65519145D01*
X65384448Y-65517770D01*
X65384452Y-65517768D01*
X65562890Y-65427632D01*
X65565610Y-65426258D01*
X65568008Y-65424385D01*
X65568012Y-65424382D01*
X65653014Y-65357971D01*
X65727951Y-65299424D01*
X65756910Y-65265875D01*
X65780980Y-65237989D01*
X65862564Y-65143472D01*
X65964323Y-64964344D01*
X66029351Y-64768863D01*
X66034452Y-64728489D01*
X66054951Y-64566216D01*
X66054951Y-64566215D01*
X66055171Y-64564474D01*
X66055583Y-64535000D01*
X66055414Y-64533280D01*
X66055414Y-64533271D01*
X66035778Y-64333010D01*
X66035480Y-64329970D01*
X65975935Y-64132749D01*
X65879218Y-63950849D01*
X65749011Y-63791200D01*
X65590275Y-63659882D01*
X65409055Y-63561897D01*
X65354143Y-63544899D01*
X65215169Y-63501879D01*
X65215166Y-63501878D01*
X65212254Y-63500977D01*
X65209221Y-63500658D01*
X65209220Y-63500658D01*
X65156660Y-63495134D01*
X65007369Y-63479443D01*
X65004336Y-63479719D01*
X65004332Y-63479719D01*
X64891436Y-63489993D01*
X64802203Y-63498114D01*
X64799270Y-63498977D01*
X64799266Y-63498978D01*
X64649005Y-63543203D01*
X64604572Y-63556280D01*
X64422002Y-63651726D01*
X64261447Y-63780815D01*
X64129024Y-63938630D01*
X64029776Y-64119162D01*
X63967484Y-64315532D01*
X63967143Y-64318570D01*
X63967143Y-64318571D01*
X63965524Y-64333010D01*
X63944520Y-64520262D01*
X62400000Y-64520262D01*
X62400000Y-61980262D01*
X63944520Y-61980262D01*
X63961759Y-62185553D01*
X64018544Y-62383586D01*
X64112712Y-62566818D01*
X64114603Y-62569204D01*
X64114605Y-62569207D01*
X64143598Y-62605787D01*
X64240677Y-62728270D01*
X64397564Y-62861791D01*
X64577398Y-62962297D01*
X64580302Y-62963241D01*
X64580303Y-62963241D01*
X64770416Y-63025013D01*
X64770421Y-63025014D01*
X64773329Y-63025959D01*
X64776370Y-63026322D01*
X64776372Y-63026322D01*
X64838442Y-63033723D01*
X64977894Y-63050351D01*
X64980936Y-63050117D01*
X64980939Y-63050117D01*
X65180249Y-63034781D01*
X65180251Y-63034781D01*
X65183300Y-63034546D01*
X65381725Y-62979145D01*
X65384448Y-62977770D01*
X65384452Y-62977768D01*
X65562890Y-62887632D01*
X65565610Y-62886258D01*
X65568008Y-62884385D01*
X65568012Y-62884382D01*
X65653014Y-62817971D01*
X65727951Y-62759424D01*
X65756910Y-62725875D01*
X65780980Y-62697989D01*
X65862564Y-62603472D01*
X65964323Y-62424344D01*
X66029351Y-62228863D01*
X66034452Y-62188489D01*
X66054951Y-62026216D01*
X66054951Y-62026215D01*
X66055171Y-62024474D01*
X66055583Y-61995000D01*
X66055414Y-61993280D01*
X66055414Y-61993271D01*
X66035778Y-61793010D01*
X66035480Y-61789970D01*
X65975935Y-61592749D01*
X65879218Y-61410849D01*
X65749011Y-61251200D01*
X65590275Y-61119882D01*
X65409055Y-61021897D01*
X65354143Y-61004899D01*
X65215169Y-60961879D01*
X65215166Y-60961878D01*
X65212254Y-60960977D01*
X65209221Y-60960658D01*
X65209220Y-60960658D01*
X65156660Y-60955134D01*
X65007369Y-60939443D01*
X65004336Y-60939719D01*
X65004332Y-60939719D01*
X64891436Y-60949993D01*
X64802203Y-60958114D01*
X64799270Y-60958977D01*
X64799266Y-60958978D01*
X64649005Y-61003203D01*
X64604572Y-61016280D01*
X64422002Y-61111726D01*
X64261447Y-61240815D01*
X64129024Y-61398630D01*
X64029776Y-61579162D01*
X63967484Y-61775532D01*
X63967143Y-61778570D01*
X63967143Y-61778571D01*
X63965524Y-61793010D01*
X63944520Y-61980262D01*
X62400000Y-61980262D01*
X62400000Y-59800000D01*
X62040262Y-59440262D01*
X63944520Y-59440262D01*
X63961759Y-59645553D01*
X64018544Y-59843586D01*
X64112712Y-60026818D01*
X64114603Y-60029204D01*
X64114605Y-60029207D01*
X64143598Y-60065787D01*
X64240677Y-60188270D01*
X64397564Y-60321791D01*
X64577398Y-60422297D01*
X64580302Y-60423241D01*
X64580303Y-60423241D01*
X64770416Y-60485013D01*
X64770421Y-60485014D01*
X64773329Y-60485959D01*
X64776370Y-60486322D01*
X64776372Y-60486322D01*
X64838442Y-60493723D01*
X64977894Y-60510351D01*
X64980936Y-60510117D01*
X64980939Y-60510117D01*
X65180249Y-60494781D01*
X65180251Y-60494781D01*
X65183300Y-60494546D01*
X65381725Y-60439145D01*
X65384448Y-60437770D01*
X65384452Y-60437768D01*
X65562890Y-60347632D01*
X65565610Y-60346258D01*
X65568008Y-60344385D01*
X65568012Y-60344382D01*
X65653014Y-60277971D01*
X65727951Y-60219424D01*
X65756910Y-60185875D01*
X65780980Y-60157989D01*
X65862564Y-60063472D01*
X65964323Y-59884344D01*
X66029351Y-59688863D01*
X66034452Y-59648489D01*
X66054951Y-59486216D01*
X66054951Y-59486215D01*
X66055171Y-59484474D01*
X66055583Y-59455000D01*
X66055414Y-59453280D01*
X66055414Y-59453271D01*
X66035778Y-59253010D01*
X66035480Y-59249970D01*
X65975935Y-59052749D01*
X65879218Y-58870849D01*
X65749011Y-58711200D01*
X65590275Y-58579882D01*
X65409055Y-58481897D01*
X65348425Y-58463129D01*
X65215169Y-58421879D01*
X65215166Y-58421878D01*
X65212254Y-58420977D01*
X65209221Y-58420658D01*
X65209220Y-58420658D01*
X65156660Y-58415134D01*
X65007369Y-58399443D01*
X65004336Y-58399719D01*
X65004332Y-58399719D01*
X64891436Y-58409993D01*
X64802203Y-58418114D01*
X64799270Y-58418977D01*
X64799266Y-58418978D01*
X64649255Y-58463129D01*
X64604572Y-58476280D01*
X64422002Y-58571726D01*
X64261447Y-58700815D01*
X64129024Y-58858630D01*
X64029776Y-59039162D01*
X63967484Y-59235532D01*
X63967143Y-59238570D01*
X63967143Y-59238571D01*
X63965524Y-59253010D01*
X63944520Y-59440262D01*
X62040262Y-59440262D01*
X59800000Y-57200000D01*
X59800000Y-56900262D01*
X63944520Y-56900262D01*
X63948085Y-56942721D01*
X63957276Y-57052163D01*
X63961759Y-57105553D01*
X64018544Y-57303586D01*
X64112712Y-57486818D01*
X64114603Y-57489204D01*
X64114605Y-57489207D01*
X64177695Y-57568806D01*
X64240677Y-57648270D01*
X64243007Y-57650253D01*
X64371020Y-57759200D01*
X64397564Y-57781791D01*
X64577398Y-57882297D01*
X64580302Y-57883241D01*
X64580303Y-57883241D01*
X64770416Y-57945013D01*
X64770421Y-57945014D01*
X64773329Y-57945959D01*
X64776370Y-57946322D01*
X64776372Y-57946322D01*
X64838442Y-57953723D01*
X64977894Y-57970351D01*
X64980936Y-57970117D01*
X64980939Y-57970117D01*
X65180249Y-57954781D01*
X65180251Y-57954781D01*
X65183300Y-57954546D01*
X65381725Y-57899145D01*
X65384448Y-57897770D01*
X65384452Y-57897768D01*
X65562890Y-57807632D01*
X65565610Y-57806258D01*
X65568008Y-57804385D01*
X65568012Y-57804382D01*
X65653014Y-57737971D01*
X65727951Y-57679424D01*
X65743222Y-57661733D01*
X65803953Y-57591374D01*
X65862564Y-57523472D01*
X65940226Y-57386762D01*
X65962811Y-57347006D01*
X65962812Y-57347004D01*
X65964323Y-57344344D01*
X66029351Y-57148863D01*
X66029854Y-57144888D01*
X66054951Y-56946216D01*
X66054951Y-56946215D01*
X66055171Y-56944474D01*
X66055307Y-56934797D01*
X66055559Y-56916739D01*
X66055559Y-56916733D01*
X66055583Y-56915000D01*
X66055414Y-56913280D01*
X66055414Y-56913271D01*
X66035778Y-56713010D01*
X66035480Y-56709970D01*
X65975935Y-56512749D01*
X65912494Y-56393432D01*
X65880653Y-56333547D01*
X65880651Y-56333544D01*
X65879218Y-56330849D01*
X65749011Y-56171200D01*
X65591067Y-56040537D01*
X67711498Y-56040537D01*
X67740899Y-56211643D01*
X67808875Y-56371395D01*
X67911778Y-56511225D01*
X68044089Y-56623632D01*
X68198711Y-56702586D01*
X68228887Y-56709970D01*
X68240370Y-56712780D01*
X68278946Y-56741066D01*
X68286223Y-56788345D01*
X68270680Y-56813517D01*
X68272280Y-56814930D01*
X68177377Y-56922388D01*
X68116447Y-57052163D01*
X68094391Y-57193823D01*
X68112980Y-57335979D01*
X68170720Y-57467203D01*
X68173584Y-57470610D01*
X68260107Y-57573543D01*
X68260110Y-57573546D01*
X68262970Y-57576948D01*
X68382313Y-57656390D01*
X68386564Y-57657718D01*
X68514905Y-57697814D01*
X68514908Y-57697814D01*
X68519157Y-57699142D01*
X68523609Y-57699224D01*
X68523611Y-57699224D01*
X68594642Y-57700526D01*
X68662499Y-57701770D01*
X68800817Y-57664060D01*
X68922991Y-57589045D01*
X68939272Y-57571058D01*
X68985609Y-57550500D01*
X70228930Y-57550500D01*
X70273124Y-57568806D01*
X70878804Y-58174486D01*
X70896582Y-58210575D01*
X70912980Y-58335979D01*
X70914773Y-58340054D01*
X70950240Y-58420658D01*
X70970720Y-58467203D01*
X70973584Y-58470610D01*
X71060107Y-58573543D01*
X71060110Y-58573546D01*
X71062970Y-58576948D01*
X71182313Y-58656390D01*
X71186564Y-58657718D01*
X71314905Y-58697814D01*
X71314908Y-58697814D01*
X71319157Y-58699142D01*
X71323609Y-58699224D01*
X71323611Y-58699224D01*
X71394642Y-58700526D01*
X71462499Y-58701770D01*
X71600817Y-58664060D01*
X71722991Y-58589045D01*
X71819200Y-58482754D01*
X71881710Y-58353733D01*
X71884012Y-58340054D01*
X71905096Y-58214729D01*
X71905496Y-58212354D01*
X71905647Y-58200000D01*
X71885323Y-58058082D01*
X71825984Y-57927572D01*
X71732400Y-57818963D01*
X71612095Y-57740985D01*
X71474739Y-57699907D01*
X71420766Y-57699577D01*
X71376954Y-57681272D01*
X70752150Y-57056468D01*
X72792775Y-57056468D01*
X72822126Y-57227282D01*
X72889986Y-57386762D01*
X72992713Y-57526353D01*
X73124799Y-57638568D01*
X73279157Y-57717387D01*
X73447507Y-57758582D01*
X73454976Y-57759045D01*
X73457467Y-57759200D01*
X73457471Y-57759200D01*
X73458436Y-57759260D01*
X73583400Y-57759260D01*
X73712151Y-57744249D01*
X73783777Y-57718250D01*
X73871652Y-57686353D01*
X73871655Y-57686352D01*
X73875067Y-57685113D01*
X74020010Y-57590085D01*
X74139203Y-57464261D01*
X74141026Y-57461123D01*
X74141028Y-57461120D01*
X74224435Y-57317524D01*
X74224436Y-57317523D01*
X74226254Y-57314392D01*
X74276493Y-57148516D01*
X74287225Y-56975532D01*
X74257874Y-56804718D01*
X74190014Y-56645238D01*
X74087287Y-56505647D01*
X74083088Y-56502079D01*
X74020641Y-56449027D01*
X73955201Y-56393432D01*
X73800843Y-56314613D01*
X73632493Y-56273418D01*
X73624981Y-56272952D01*
X73622533Y-56272800D01*
X73622529Y-56272800D01*
X73621564Y-56272740D01*
X73496600Y-56272740D01*
X73367849Y-56287751D01*
X73364430Y-56288992D01*
X73208348Y-56345647D01*
X73208345Y-56345648D01*
X73204933Y-56346887D01*
X73059990Y-56441915D01*
X72940797Y-56567739D01*
X72938974Y-56570877D01*
X72938972Y-56570880D01*
X72856550Y-56712780D01*
X72853746Y-56717608D01*
X72852696Y-56721075D01*
X72804742Y-56879408D01*
X72803507Y-56883484D01*
X72792775Y-57056468D01*
X70752150Y-57056468D01*
X70679002Y-56983320D01*
X70670690Y-56973028D01*
X70665628Y-56965188D01*
X70665626Y-56965185D01*
X70662825Y-56960848D01*
X70635980Y-56939685D01*
X70630479Y-56934797D01*
X70627254Y-56931572D01*
X70611711Y-56920465D01*
X70609355Y-56918696D01*
X70575246Y-56891806D01*
X70575245Y-56891805D01*
X70571189Y-56888608D01*
X70566314Y-56886896D01*
X70563445Y-56885319D01*
X70560535Y-56883893D01*
X70556331Y-56880889D01*
X70551384Y-56879410D01*
X70551381Y-56879408D01*
X70509758Y-56866961D01*
X70506956Y-56866050D01*
X70464805Y-56851247D01*
X70464796Y-56851245D01*
X70461094Y-56849945D01*
X70455956Y-56849500D01*
X70455382Y-56849500D01*
X70451051Y-56849134D01*
X70449486Y-56848936D01*
X70444536Y-56847456D01*
X70393734Y-56849452D01*
X70391280Y-56849500D01*
X68987360Y-56849500D01*
X68940013Y-56827798D01*
X68935308Y-56822338D01*
X68932400Y-56818963D01*
X68928664Y-56816542D01*
X68928659Y-56816537D01*
X68830026Y-56752606D01*
X68802897Y-56713208D01*
X68811574Y-56666166D01*
X68829752Y-56647892D01*
X68864232Y-56625286D01*
X68940830Y-56575066D01*
X69060227Y-56449027D01*
X69062050Y-56445889D01*
X69062052Y-56445886D01*
X69145608Y-56302034D01*
X69145609Y-56302032D01*
X69147427Y-56298902D01*
X69197752Y-56132743D01*
X69208502Y-55959463D01*
X69179101Y-55788357D01*
X69111125Y-55628605D01*
X69008222Y-55488775D01*
X68875911Y-55376368D01*
X68721289Y-55297414D01*
X68552652Y-55256149D01*
X68545076Y-55255679D01*
X68542676Y-55255530D01*
X68542672Y-55255530D01*
X68541707Y-55255470D01*
X68416522Y-55255470D01*
X68414732Y-55255679D01*
X68414727Y-55255679D01*
X68365523Y-55261416D01*
X68287555Y-55270506D01*
X68284139Y-55271746D01*
X68127775Y-55328503D01*
X68127772Y-55328505D01*
X68124360Y-55329743D01*
X67979170Y-55424934D01*
X67859773Y-55550973D01*
X67857950Y-55554111D01*
X67857948Y-55554114D01*
X67781197Y-55686250D01*
X67772573Y-55701098D01*
X67722248Y-55867257D01*
X67711498Y-56040537D01*
X65591067Y-56040537D01*
X65590275Y-56039882D01*
X65409055Y-55941897D01*
X65354143Y-55924899D01*
X65215169Y-55881879D01*
X65215166Y-55881878D01*
X65212254Y-55880977D01*
X65209221Y-55880658D01*
X65209220Y-55880658D01*
X65156660Y-55875134D01*
X65007369Y-55859443D01*
X65004336Y-55859719D01*
X65004332Y-55859719D01*
X64891436Y-55869993D01*
X64802203Y-55878114D01*
X64799270Y-55878977D01*
X64799266Y-55878978D01*
X64649005Y-55923203D01*
X64604572Y-55936280D01*
X64422002Y-56031726D01*
X64261447Y-56160815D01*
X64129024Y-56318630D01*
X64029776Y-56499162D01*
X63967484Y-56695532D01*
X63967143Y-56698570D01*
X63967143Y-56698571D01*
X63953261Y-56822338D01*
X63944520Y-56900262D01*
X59800000Y-56900262D01*
X59800000Y-55024468D01*
X72792775Y-55024468D01*
X72822126Y-55195282D01*
X72889986Y-55354762D01*
X72992713Y-55494353D01*
X73124799Y-55606568D01*
X73279157Y-55685387D01*
X73447507Y-55726582D01*
X73454976Y-55727045D01*
X73457467Y-55727200D01*
X73457471Y-55727200D01*
X73458436Y-55727260D01*
X73583400Y-55727260D01*
X73712151Y-55712249D01*
X73733320Y-55704565D01*
X73871652Y-55654353D01*
X73871655Y-55654352D01*
X73875067Y-55653113D01*
X74020010Y-55558085D01*
X74139203Y-55432261D01*
X74141026Y-55429123D01*
X74141028Y-55429120D01*
X74224435Y-55285524D01*
X74224436Y-55285523D01*
X74226254Y-55282392D01*
X74276493Y-55116516D01*
X74287225Y-54943532D01*
X74257874Y-54772718D01*
X74190014Y-54613238D01*
X74087287Y-54473647D01*
X73955201Y-54361432D01*
X73800843Y-54282613D01*
X73632493Y-54241418D01*
X73624981Y-54240952D01*
X73622533Y-54240800D01*
X73622529Y-54240800D01*
X73621564Y-54240740D01*
X73496600Y-54240740D01*
X73367849Y-54255751D01*
X73364430Y-54256992D01*
X73208348Y-54313647D01*
X73208345Y-54313648D01*
X73204933Y-54314887D01*
X73059990Y-54409915D01*
X72940797Y-54535739D01*
X72938974Y-54538877D01*
X72938972Y-54538880D01*
X72895782Y-54613238D01*
X72853746Y-54685608D01*
X72803507Y-54851484D01*
X72792775Y-55024468D01*
X59800000Y-55024468D01*
X59800000Y-51700500D01*
X86687500Y-51700500D01*
X86731694Y-51718806D01*
G37*
G04 #@! TD.AperFunction*
G04 #@! TA.AperFunction,Conductor*
G36*
X99731694Y-82518306D02*
G01*
X99750000Y-82562500D01*
X99750000Y-85974112D01*
X99731694Y-86018306D01*
X97268306Y-88481694D01*
X97224112Y-88500000D01*
X96870748Y-88500000D01*
X96826554Y-88481694D01*
X96808248Y-88437500D01*
X96809449Y-88425307D01*
X96819901Y-88372761D01*
X96819901Y-88372758D01*
X96820500Y-88369748D01*
X96820500Y-86630252D01*
X96819432Y-86624882D01*
X96810068Y-86577805D01*
X96810067Y-86577803D01*
X96808867Y-86571769D01*
X96764552Y-86505448D01*
X96744188Y-86491841D01*
X96703347Y-86464551D01*
X96703345Y-86464550D01*
X96698231Y-86461133D01*
X96692197Y-86459933D01*
X96692195Y-86459932D01*
X96642761Y-86450099D01*
X96642758Y-86450099D01*
X96639748Y-86449500D01*
X96183000Y-86449500D01*
X96138806Y-86431194D01*
X96120500Y-86387000D01*
X96120500Y-85214064D01*
X96121900Y-85200909D01*
X96122121Y-85199883D01*
X96124951Y-85186739D01*
X96124094Y-85179492D01*
X96120933Y-85152791D01*
X96120500Y-85145445D01*
X96120500Y-85140885D01*
X96117360Y-85122019D01*
X96116948Y-85119124D01*
X96116718Y-85117175D01*
X96111236Y-85070862D01*
X96108998Y-85066201D01*
X96108076Y-85063028D01*
X96107036Y-85059990D01*
X96106188Y-85054897D01*
X96083096Y-85012101D01*
X96081764Y-85009485D01*
X96062429Y-84969219D01*
X96062426Y-84969215D01*
X96060726Y-84965674D01*
X96057408Y-84961726D01*
X96056992Y-84961310D01*
X96054198Y-84957999D01*
X96053232Y-84956753D01*
X96050778Y-84952206D01*
X96013451Y-84917701D01*
X96011682Y-84916000D01*
X94022036Y-82926354D01*
X94004361Y-82891020D01*
X94000332Y-82862888D01*
X93985323Y-82758082D01*
X93925984Y-82627572D01*
X93905068Y-82603298D01*
X93890088Y-82557868D01*
X93911618Y-82515152D01*
X93952416Y-82500000D01*
X99687500Y-82500000D01*
X99731694Y-82518306D01*
G37*
G04 #@! TD.AperFunction*
G04 #@! TA.AperFunction,Conductor*
G36*
X59800000Y-57200000D02*
G01*
X62400000Y-59800000D01*
X62400000Y-74000000D01*
X61800000Y-74600000D01*
X58000000Y-74600000D01*
X57000000Y-75600000D01*
X57000000Y-78480000D01*
X56997431Y-78480000D01*
X56988641Y-78483641D01*
X56985000Y-78492431D01*
X56985000Y-79867569D01*
X56988641Y-79876359D01*
X56997431Y-79880000D01*
X57000000Y-79880000D01*
X57000000Y-82775029D01*
X56818465Y-82593494D01*
X56800159Y-82549300D01*
X56801025Y-82538931D01*
X56805096Y-82514731D01*
X56805496Y-82512354D01*
X56805647Y-82500000D01*
X56785323Y-82358082D01*
X56725984Y-82227572D01*
X56632400Y-82118963D01*
X56512095Y-82040985D01*
X56499456Y-82037205D01*
X56394280Y-82005751D01*
X56374739Y-81999907D01*
X56303057Y-81999469D01*
X56235829Y-81999058D01*
X56235828Y-81999058D01*
X56231376Y-81999031D01*
X56093529Y-82038428D01*
X55972280Y-82114930D01*
X55969337Y-82118262D01*
X55969335Y-82118264D01*
X55932551Y-82159915D01*
X55877377Y-82222388D01*
X55816447Y-82352163D01*
X55794391Y-82493823D01*
X55794968Y-82498236D01*
X55794968Y-82498238D01*
X55801645Y-82549300D01*
X55812980Y-82635979D01*
X55814773Y-82640054D01*
X55866707Y-82758082D01*
X55870720Y-82767203D01*
X55877299Y-82775029D01*
X55920906Y-82826906D01*
X55935330Y-82872515D01*
X55919909Y-82908495D01*
X55863552Y-82972307D01*
X55802622Y-83102082D01*
X55780566Y-83243742D01*
X55799155Y-83385898D01*
X55800948Y-83389973D01*
X55827844Y-83451098D01*
X55856895Y-83517122D01*
X55859759Y-83520529D01*
X55946282Y-83623462D01*
X55946285Y-83623465D01*
X55949145Y-83626867D01*
X55952851Y-83629334D01*
X55957809Y-83632635D01*
X55984453Y-83672363D01*
X55985675Y-83684661D01*
X55985675Y-83852640D01*
X55967369Y-83896834D01*
X55956525Y-83905498D01*
X55936932Y-83917860D01*
X55933988Y-83921193D01*
X55933985Y-83921196D01*
X55844976Y-84021981D01*
X55842029Y-84025318D01*
X55781099Y-84155093D01*
X55780414Y-84159491D01*
X55780414Y-84159492D01*
X55776792Y-84182754D01*
X55759043Y-84296753D01*
X55759620Y-84301166D01*
X55759620Y-84301168D01*
X55761151Y-84312872D01*
X55777632Y-84438909D01*
X55779425Y-84442984D01*
X55829603Y-84557021D01*
X55835372Y-84570133D01*
X55838236Y-84573540D01*
X55924759Y-84676473D01*
X55924762Y-84676476D01*
X55927622Y-84679878D01*
X56046965Y-84759320D01*
X56051216Y-84760648D01*
X56179557Y-84800744D01*
X56179560Y-84800744D01*
X56183809Y-84802072D01*
X56188261Y-84802154D01*
X56188263Y-84802154D01*
X56259294Y-84803456D01*
X56327151Y-84804700D01*
X56465469Y-84766990D01*
X56587643Y-84691975D01*
X56683852Y-84585684D01*
X56746362Y-84456663D01*
X56748664Y-84442984D01*
X56769748Y-84317659D01*
X56770148Y-84315284D01*
X56770299Y-84302930D01*
X56749975Y-84161012D01*
X56737540Y-84133662D01*
X56735912Y-84085855D01*
X56768566Y-84050899D01*
X56816374Y-84049271D01*
X56838629Y-84063600D01*
X57848584Y-85073555D01*
X57852576Y-85078180D01*
X57854575Y-85082269D01*
X57858805Y-85086193D01*
X57891347Y-85116380D01*
X57893036Y-85118007D01*
X57907277Y-85132248D01*
X57909648Y-85133875D01*
X57911867Y-85135719D01*
X57911808Y-85135789D01*
X57915156Y-85138466D01*
X57936646Y-85158401D01*
X57951111Y-85164172D01*
X57963303Y-85170682D01*
X57971387Y-85176228D01*
X57971390Y-85176229D01*
X57976146Y-85179492D01*
X58000827Y-85185349D01*
X58004670Y-85186261D01*
X58013387Y-85189017D01*
X58040622Y-85199883D01*
X58045013Y-85200314D01*
X58045015Y-85200314D01*
X58045155Y-85200327D01*
X58046915Y-85200500D01*
X58057357Y-85200500D01*
X58071788Y-85202189D01*
X58085066Y-85205340D01*
X58116435Y-85201071D01*
X58124862Y-85200500D01*
X60150016Y-85200500D01*
X60194210Y-85218806D01*
X60211988Y-85254896D01*
X60212980Y-85262482D01*
X60214773Y-85266557D01*
X60222556Y-85284244D01*
X60270720Y-85393706D01*
X60273584Y-85397113D01*
X60360107Y-85500046D01*
X60360110Y-85500049D01*
X60362970Y-85503451D01*
X60482313Y-85582893D01*
X60486564Y-85584221D01*
X60614905Y-85624317D01*
X60614908Y-85624317D01*
X60619157Y-85625645D01*
X60623609Y-85625727D01*
X60623611Y-85625727D01*
X60694642Y-85627029D01*
X60762499Y-85628273D01*
X60900817Y-85590563D01*
X61022991Y-85515548D01*
X61119200Y-85409257D01*
X61181710Y-85280236D01*
X61184012Y-85266557D01*
X61194311Y-85205340D01*
X61205496Y-85138857D01*
X61205647Y-85126503D01*
X61185323Y-84984585D01*
X61141576Y-84888368D01*
X61139948Y-84840561D01*
X61172602Y-84805605D01*
X61198471Y-84800000D01*
X64574112Y-84800000D01*
X64618306Y-84818306D01*
X68600000Y-88800000D01*
X97400000Y-88800000D01*
X100200000Y-86000000D01*
X100200000Y-79236165D01*
X100472000Y-79236165D01*
X100472001Y-80923834D01*
X100474981Y-80955370D01*
X100519866Y-81083184D01*
X100522639Y-81086939D01*
X100522641Y-81086942D01*
X100542825Y-81114268D01*
X100600350Y-81192150D01*
X100604107Y-81194925D01*
X100705558Y-81269859D01*
X100705561Y-81269861D01*
X100709316Y-81272634D01*
X100837130Y-81317519D01*
X100848994Y-81318640D01*
X100867201Y-81320362D01*
X100867209Y-81320362D01*
X100868665Y-81320500D01*
X102471956Y-81320500D01*
X104076334Y-81320499D01*
X104095068Y-81318729D01*
X104104083Y-81317877D01*
X104104084Y-81317877D01*
X104107870Y-81317519D01*
X104235684Y-81272634D01*
X104239439Y-81269861D01*
X104239442Y-81269859D01*
X104340893Y-81194925D01*
X104344650Y-81192150D01*
X104402175Y-81114268D01*
X104422359Y-81086942D01*
X104422361Y-81086939D01*
X104425134Y-81083184D01*
X104470019Y-80955370D01*
X104471140Y-80943506D01*
X104472862Y-80925299D01*
X104472862Y-80925291D01*
X104473000Y-80923835D01*
X104472999Y-79236166D01*
X104470019Y-79204630D01*
X104425134Y-79076816D01*
X104422361Y-79073061D01*
X104422359Y-79073058D01*
X104347425Y-78971607D01*
X104344650Y-78967850D01*
X104340893Y-78965075D01*
X104239442Y-78890141D01*
X104239439Y-78890139D01*
X104235684Y-78887366D01*
X104107870Y-78842481D01*
X104096006Y-78841360D01*
X104077799Y-78839638D01*
X104077791Y-78839638D01*
X104076335Y-78839500D01*
X102473044Y-78839500D01*
X100868666Y-78839501D01*
X100849932Y-78841271D01*
X100840917Y-78842123D01*
X100840916Y-78842123D01*
X100837130Y-78842481D01*
X100709316Y-78887366D01*
X100705561Y-78890139D01*
X100705558Y-78890141D01*
X100604107Y-78965075D01*
X100600350Y-78967850D01*
X100597575Y-78971607D01*
X100522641Y-79073058D01*
X100522639Y-79073061D01*
X100519866Y-79076816D01*
X100474981Y-79204630D01*
X100474623Y-79208417D01*
X100474623Y-79208419D01*
X100472139Y-79234698D01*
X100472000Y-79236165D01*
X100200000Y-79236165D01*
X100200000Y-75039123D01*
X100467601Y-75039123D01*
X100494203Y-75258957D01*
X100559315Y-75470606D01*
X100660878Y-75667380D01*
X100662563Y-75669576D01*
X100662565Y-75669579D01*
X100728480Y-75755480D01*
X100795681Y-75843058D01*
X100797737Y-75844929D01*
X100797739Y-75844931D01*
X100957404Y-75990216D01*
X100957408Y-75990219D01*
X100959463Y-75992089D01*
X101147048Y-76109761D01*
X101149628Y-76110798D01*
X101349924Y-76191317D01*
X101349928Y-76191318D01*
X101352507Y-76192355D01*
X101463558Y-76215353D01*
X101567096Y-76236795D01*
X101567103Y-76236796D01*
X101569344Y-76237260D01*
X101625538Y-76240500D01*
X103288680Y-76240500D01*
X103290043Y-76240378D01*
X103290051Y-76240378D01*
X103450294Y-76226076D01*
X103453062Y-76225829D01*
X103666651Y-76167398D01*
X103866518Y-76072066D01*
X103868777Y-76070443D01*
X103868780Y-76070441D01*
X104044081Y-75944475D01*
X104044082Y-75944474D01*
X104046345Y-75942848D01*
X104143048Y-75843058D01*
X104198510Y-75785825D01*
X104198511Y-75785824D01*
X104200446Y-75783827D01*
X104323952Y-75600031D01*
X104412959Y-75397268D01*
X104440783Y-75281376D01*
X104464002Y-75184660D01*
X104464002Y-75184659D01*
X104464653Y-75181948D01*
X104464957Y-75176687D01*
X104477239Y-74963658D01*
X104477239Y-74963654D01*
X104477399Y-74960877D01*
X104450797Y-74741043D01*
X104385685Y-74529394D01*
X104284122Y-74332620D01*
X104257375Y-74297762D01*
X104193236Y-74214175D01*
X104149319Y-74156942D01*
X104147261Y-74155069D01*
X103987596Y-74009784D01*
X103987592Y-74009781D01*
X103985537Y-74007911D01*
X103797952Y-73890239D01*
X103657556Y-73833800D01*
X103595076Y-73808683D01*
X103595072Y-73808682D01*
X103592493Y-73807645D01*
X103481442Y-73784647D01*
X103377904Y-73763205D01*
X103377897Y-73763204D01*
X103375656Y-73762740D01*
X103319462Y-73759500D01*
X101656320Y-73759500D01*
X101654957Y-73759622D01*
X101654949Y-73759622D01*
X101511559Y-73772420D01*
X101491938Y-73774171D01*
X101278349Y-73832602D01*
X101078482Y-73927934D01*
X101076223Y-73929557D01*
X101076220Y-73929559D01*
X100900919Y-74055525D01*
X100898655Y-74057152D01*
X100744554Y-74216173D01*
X100621048Y-74399969D01*
X100532041Y-74602732D01*
X100531392Y-74605434D01*
X100531391Y-74605438D01*
X100491336Y-74772280D01*
X100480347Y-74818052D01*
X100480187Y-74820832D01*
X100480186Y-74820837D01*
X100468842Y-75017600D01*
X100467601Y-75039123D01*
X100200000Y-75039123D01*
X100200000Y-70327133D01*
X100540312Y-70327133D01*
X100558962Y-70387755D01*
X100561056Y-70392887D01*
X100660026Y-70584639D01*
X100662997Y-70589320D01*
X100794354Y-70760509D01*
X100798111Y-70764594D01*
X100957708Y-70909815D01*
X100962124Y-70913167D01*
X101144925Y-71027839D01*
X101149850Y-71030349D01*
X101350069Y-71110836D01*
X101355383Y-71112439D01*
X101567154Y-71156296D01*
X101571693Y-71156893D01*
X101624665Y-71159947D01*
X101626482Y-71160000D01*
X102060069Y-71160000D01*
X102068859Y-71156359D01*
X102072500Y-71147569D01*
X102872500Y-71147569D01*
X102876141Y-71156359D01*
X102884931Y-71160000D01*
X103287276Y-71160000D01*
X103290028Y-71159878D01*
X103450205Y-71145582D01*
X103455655Y-71144601D01*
X103663791Y-71087662D01*
X103668987Y-71085729D01*
X103863753Y-70992831D01*
X103868524Y-70990009D01*
X104043757Y-70864091D01*
X104047949Y-70860474D01*
X104198122Y-70705507D01*
X104201607Y-70701203D01*
X104321960Y-70522098D01*
X104324630Y-70517242D01*
X104406216Y-70331383D01*
X104406416Y-70321871D01*
X104404622Y-70320000D01*
X102884931Y-70320000D01*
X102876141Y-70323641D01*
X102872500Y-70332431D01*
X102872500Y-71147569D01*
X102072500Y-71147569D01*
X102072500Y-70332431D01*
X102068859Y-70323641D01*
X102060069Y-70320000D01*
X100550548Y-70320000D01*
X100541758Y-70323641D01*
X100540312Y-70327133D01*
X100200000Y-70327133D01*
X100200000Y-69518129D01*
X100538584Y-69518129D01*
X100540378Y-69520000D01*
X102060069Y-69520000D01*
X102068859Y-69516359D01*
X102072500Y-69507569D01*
X102872500Y-69507569D01*
X102876141Y-69516359D01*
X102884931Y-69520000D01*
X104394452Y-69520000D01*
X104403242Y-69516359D01*
X104404688Y-69512867D01*
X104386038Y-69452245D01*
X104383944Y-69447113D01*
X104284974Y-69255361D01*
X104282003Y-69250680D01*
X104150646Y-69079491D01*
X104146889Y-69075406D01*
X103987292Y-68930185D01*
X103982876Y-68926833D01*
X103800075Y-68812161D01*
X103795150Y-68809651D01*
X103594931Y-68729164D01*
X103589617Y-68727561D01*
X103377846Y-68683704D01*
X103373307Y-68683107D01*
X103320335Y-68680053D01*
X103318517Y-68680000D01*
X102884931Y-68680000D01*
X102876141Y-68683641D01*
X102872500Y-68692431D01*
X102872500Y-69507569D01*
X102072500Y-69507569D01*
X102072500Y-68692431D01*
X102068859Y-68683641D01*
X102060069Y-68680000D01*
X101657724Y-68680000D01*
X101654972Y-68680122D01*
X101494795Y-68694418D01*
X101489345Y-68695399D01*
X101281209Y-68752338D01*
X101276013Y-68754271D01*
X101081247Y-68847169D01*
X101076476Y-68849991D01*
X100901243Y-68975909D01*
X100897051Y-68979526D01*
X100746878Y-69134493D01*
X100743393Y-69138797D01*
X100623040Y-69317902D01*
X100620370Y-69322758D01*
X100538784Y-69508617D01*
X100538584Y-69518129D01*
X100200000Y-69518129D01*
X100200000Y-59170522D01*
X105400312Y-59170522D01*
X105402712Y-59176314D01*
X105574960Y-59308486D01*
X105577727Y-59310380D01*
X105889522Y-59499955D01*
X105892503Y-59501552D01*
X106222931Y-59656335D01*
X106226072Y-59657605D01*
X106571290Y-59775799D01*
X106574529Y-59776716D01*
X106930512Y-59856941D01*
X106933828Y-59857502D01*
X107296376Y-59898809D01*
X107299758Y-59899010D01*
X107664649Y-59900920D01*
X107668006Y-59900756D01*
X108030968Y-59863248D01*
X108034325Y-59862716D01*
X108391090Y-59786231D01*
X108394363Y-59785343D01*
X108740795Y-59670771D01*
X108743943Y-59669537D01*
X109075981Y-59518219D01*
X109078974Y-59516654D01*
X109392737Y-59330356D01*
X109395533Y-59328484D01*
X109595357Y-59178452D01*
X109600203Y-59170259D01*
X109598692Y-59164377D01*
X107508790Y-57074475D01*
X107500000Y-57070834D01*
X107491210Y-57074475D01*
X105403953Y-59161732D01*
X105400312Y-59170522D01*
X100200000Y-59170522D01*
X100200000Y-56489811D01*
X104095113Y-56489811D01*
X104113574Y-56854233D01*
X104113927Y-56857590D01*
X104171638Y-57217892D01*
X104172350Y-57221185D01*
X104268636Y-57573149D01*
X104269705Y-57576362D01*
X104403439Y-57915864D01*
X104404840Y-57918925D01*
X104574465Y-58242013D01*
X104576185Y-58244899D01*
X104779708Y-58547774D01*
X104781742Y-58550473D01*
X104820408Y-58596390D01*
X104828856Y-58600768D01*
X104835726Y-58598589D01*
X106925525Y-56508790D01*
X106929166Y-56500000D01*
X108070834Y-56500000D01*
X108074475Y-56508790D01*
X110163743Y-58598058D01*
X110171254Y-58601169D01*
X110181437Y-58596496D01*
X110196630Y-58578832D01*
X110198704Y-58576139D01*
X110405373Y-58275434D01*
X110407138Y-58272544D01*
X110580133Y-57951258D01*
X110581566Y-57948213D01*
X110718848Y-57610127D01*
X110719949Y-57606930D01*
X110819915Y-57255997D01*
X110820664Y-57252699D01*
X110882140Y-56893043D01*
X110882532Y-56889658D01*
X110904856Y-56524677D01*
X110904914Y-56522877D01*
X110904991Y-56500885D01*
X110904946Y-56499117D01*
X110885169Y-56133939D01*
X110884805Y-56130597D01*
X110825837Y-55770501D01*
X110825111Y-55767197D01*
X110727597Y-55415571D01*
X110726523Y-55412378D01*
X110591602Y-55073338D01*
X110590185Y-55070273D01*
X110419444Y-54747797D01*
X110417701Y-54744896D01*
X110213132Y-54442750D01*
X110211079Y-54440046D01*
X110179912Y-54403296D01*
X110171450Y-54398946D01*
X110164511Y-54401174D01*
X108074475Y-56491210D01*
X108070834Y-56500000D01*
X106929166Y-56500000D01*
X106925525Y-56491210D01*
X104836602Y-54402287D01*
X104827812Y-54398646D01*
X104821007Y-54401465D01*
X104796121Y-54430603D01*
X104794067Y-54433290D01*
X104588447Y-54734718D01*
X104586691Y-54737617D01*
X104414826Y-55059491D01*
X104413396Y-55062557D01*
X104277296Y-55401118D01*
X104276207Y-55404318D01*
X104177464Y-55755604D01*
X104176732Y-55758882D01*
X104116505Y-56118779D01*
X104116128Y-56122143D01*
X104095125Y-56486413D01*
X104095113Y-56489811D01*
X100200000Y-56489811D01*
X100200000Y-53829905D01*
X105399984Y-53829905D01*
X105401531Y-53835846D01*
X107491210Y-55925525D01*
X107500000Y-55929166D01*
X107508790Y-55925525D01*
X109596172Y-53838143D01*
X109599813Y-53829353D01*
X109597439Y-53823622D01*
X109415235Y-53684820D01*
X109412447Y-53682925D01*
X109099991Y-53494440D01*
X109097017Y-53492858D01*
X108766040Y-53339224D01*
X108762905Y-53337969D01*
X108417258Y-53220975D01*
X108414034Y-53220074D01*
X108057770Y-53141093D01*
X108054448Y-53140543D01*
X107691752Y-53100500D01*
X107688379Y-53100312D01*
X107323482Y-53099675D01*
X107320118Y-53099851D01*
X106957282Y-53138628D01*
X106953956Y-53139167D01*
X106597444Y-53216899D01*
X106594174Y-53217799D01*
X106248139Y-53333581D01*
X106245008Y-53334821D01*
X105913492Y-53487300D01*
X105910501Y-53488878D01*
X105597413Y-53676258D01*
X105594594Y-53678159D01*
X105404798Y-53821700D01*
X105399984Y-53829905D01*
X100200000Y-53829905D01*
X100200000Y-51763000D01*
X100218306Y-51718806D01*
X100262500Y-51700500D01*
X107470127Y-51700500D01*
X107484134Y-51702090D01*
X107499641Y-51705656D01*
X107506504Y-51704103D01*
X107506507Y-51704103D01*
X107510638Y-51703168D01*
X107527157Y-51701686D01*
X107582516Y-51704103D01*
X107915593Y-51718646D01*
X107921011Y-51719120D01*
X108330728Y-51773060D01*
X108336081Y-51774004D01*
X108709610Y-51856814D01*
X108739536Y-51863448D01*
X108744802Y-51864859D01*
X108920760Y-51920338D01*
X109138929Y-51989126D01*
X109144042Y-51990987D01*
X109334941Y-52070060D01*
X109525835Y-52149132D01*
X109530776Y-52151436D01*
X109897327Y-52342250D01*
X109902049Y-52344976D01*
X110250572Y-52567010D01*
X110255039Y-52570137D01*
X110582901Y-52821714D01*
X110587075Y-52825217D01*
X110886594Y-53099675D01*
X110891747Y-53104397D01*
X110895599Y-53108249D01*
X111103214Y-53334821D01*
X111174781Y-53412923D01*
X111178286Y-53417099D01*
X111429863Y-53744961D01*
X111432990Y-53749428D01*
X111655024Y-54097951D01*
X111657750Y-54102673D01*
X111848564Y-54469224D01*
X111850868Y-54474165D01*
X112009011Y-54855953D01*
X112010876Y-54861077D01*
X112135141Y-55255198D01*
X112136552Y-55260464D01*
X112223601Y-55653113D01*
X112225994Y-55663908D01*
X112226940Y-55669272D01*
X112275818Y-56040537D01*
X112280879Y-56078982D01*
X112281354Y-56084407D01*
X112285144Y-56171200D01*
X112298294Y-56472388D01*
X112296764Y-56489115D01*
X112294344Y-56499641D01*
X112295897Y-56506504D01*
X112295897Y-56506506D01*
X112297959Y-56515617D01*
X112299500Y-56529411D01*
X112299500Y-93470127D01*
X112297910Y-93484133D01*
X112294344Y-93499641D01*
X112295897Y-93506504D01*
X112295897Y-93506507D01*
X112296832Y-93510638D01*
X112298314Y-93527157D01*
X112284034Y-93854233D01*
X112281355Y-93915586D01*
X112280880Y-93921011D01*
X112226941Y-94330722D01*
X112225996Y-94336081D01*
X112173439Y-94573149D01*
X112136552Y-94739536D01*
X112135141Y-94744802D01*
X112010876Y-95138923D01*
X112009011Y-95144047D01*
X111850868Y-95525835D01*
X111848564Y-95530776D01*
X111657750Y-95897327D01*
X111655024Y-95902049D01*
X111432990Y-96250572D01*
X111429863Y-96255039D01*
X111178286Y-96582901D01*
X111174783Y-96587075D01*
X110926983Y-96857502D01*
X110895603Y-96891747D01*
X110891747Y-96895603D01*
X110587077Y-97174781D01*
X110582901Y-97178286D01*
X110255039Y-97429863D01*
X110250572Y-97432990D01*
X109902049Y-97655024D01*
X109897327Y-97657750D01*
X109530776Y-97848564D01*
X109525835Y-97850868D01*
X109334941Y-97929939D01*
X109144042Y-98009013D01*
X109138929Y-98010874D01*
X108927259Y-98077613D01*
X108744802Y-98135141D01*
X108739535Y-98136552D01*
X108336081Y-98225996D01*
X108330728Y-98226940D01*
X107921011Y-98280880D01*
X107915593Y-98281354D01*
X107730475Y-98289437D01*
X107527612Y-98298294D01*
X107510885Y-98296764D01*
X107500359Y-98294344D01*
X107493496Y-98295897D01*
X107493494Y-98295897D01*
X107484383Y-98297959D01*
X107470589Y-98299500D01*
X55029873Y-98299500D01*
X55015867Y-98297910D01*
X55013564Y-98297381D01*
X55000359Y-98294344D01*
X54993496Y-98295897D01*
X54993493Y-98295897D01*
X54989362Y-98296832D01*
X54972843Y-98298314D01*
X54899046Y-98295092D01*
X54584407Y-98281354D01*
X54578989Y-98280880D01*
X54169272Y-98226940D01*
X54163919Y-98225996D01*
X53760465Y-98136552D01*
X53755198Y-98135141D01*
X53572741Y-98077613D01*
X53361071Y-98010874D01*
X53355958Y-98009013D01*
X53165059Y-97929939D01*
X52974165Y-97850868D01*
X52969224Y-97848564D01*
X52602673Y-97657750D01*
X52597951Y-97655024D01*
X52249428Y-97432990D01*
X52244961Y-97429863D01*
X51917099Y-97178286D01*
X51912923Y-97174781D01*
X51608253Y-96895603D01*
X51604397Y-96891747D01*
X51573018Y-96857502D01*
X51325217Y-96587075D01*
X51321714Y-96582901D01*
X51070137Y-96255039D01*
X51067010Y-96250572D01*
X51016012Y-96170522D01*
X52900312Y-96170522D01*
X52902712Y-96176314D01*
X53074960Y-96308486D01*
X53077727Y-96310380D01*
X53389522Y-96499955D01*
X53392503Y-96501552D01*
X53722931Y-96656335D01*
X53726072Y-96657605D01*
X54071290Y-96775799D01*
X54074529Y-96776716D01*
X54430512Y-96856941D01*
X54433828Y-96857502D01*
X54796376Y-96898809D01*
X54799758Y-96899010D01*
X55164649Y-96900920D01*
X55168006Y-96900756D01*
X55530968Y-96863248D01*
X55534325Y-96862716D01*
X55891090Y-96786231D01*
X55894363Y-96785343D01*
X56240795Y-96670771D01*
X56243943Y-96669537D01*
X56575981Y-96518219D01*
X56578974Y-96516654D01*
X56892737Y-96330356D01*
X56895533Y-96328484D01*
X57095357Y-96178452D01*
X57100047Y-96170522D01*
X105400312Y-96170522D01*
X105402712Y-96176314D01*
X105574960Y-96308486D01*
X105577727Y-96310380D01*
X105889522Y-96499955D01*
X105892503Y-96501552D01*
X106222931Y-96656335D01*
X106226072Y-96657605D01*
X106571290Y-96775799D01*
X106574529Y-96776716D01*
X106930512Y-96856941D01*
X106933828Y-96857502D01*
X107296376Y-96898809D01*
X107299758Y-96899010D01*
X107664649Y-96900920D01*
X107668006Y-96900756D01*
X108030968Y-96863248D01*
X108034325Y-96862716D01*
X108391090Y-96786231D01*
X108394363Y-96785343D01*
X108740795Y-96670771D01*
X108743943Y-96669537D01*
X109075981Y-96518219D01*
X109078974Y-96516654D01*
X109392737Y-96330356D01*
X109395533Y-96328484D01*
X109595357Y-96178452D01*
X109600203Y-96170259D01*
X109598692Y-96164377D01*
X107508790Y-94074475D01*
X107500000Y-94070834D01*
X107491210Y-94074475D01*
X105403953Y-96161732D01*
X105400312Y-96170522D01*
X57100047Y-96170522D01*
X57100203Y-96170259D01*
X57098692Y-96164377D01*
X55008790Y-94074475D01*
X55000000Y-94070834D01*
X54991210Y-94074475D01*
X52903953Y-96161732D01*
X52900312Y-96170522D01*
X51016012Y-96170522D01*
X50844976Y-95902049D01*
X50842250Y-95897327D01*
X50651436Y-95530776D01*
X50649132Y-95525835D01*
X50490989Y-95144047D01*
X50489124Y-95138923D01*
X50364859Y-94744802D01*
X50363448Y-94739536D01*
X50326561Y-94573149D01*
X50274004Y-94336081D01*
X50273059Y-94330722D01*
X50219120Y-93921011D01*
X50218645Y-93915586D01*
X50201715Y-93527842D01*
X50203271Y-93511002D01*
X50204854Y-93504173D01*
X50205655Y-93500718D01*
X50205656Y-93500000D01*
X50203332Y-93489811D01*
X51595113Y-93489811D01*
X51613574Y-93854233D01*
X51613927Y-93857590D01*
X51671638Y-94217892D01*
X51672350Y-94221185D01*
X51768636Y-94573149D01*
X51769705Y-94576362D01*
X51903439Y-94915864D01*
X51904840Y-94918925D01*
X52074465Y-95242013D01*
X52076185Y-95244899D01*
X52279708Y-95547774D01*
X52281742Y-95550473D01*
X52320408Y-95596390D01*
X52328856Y-95600768D01*
X52335726Y-95598589D01*
X54425525Y-93508790D01*
X54429166Y-93500000D01*
X55570834Y-93500000D01*
X55574475Y-93508790D01*
X57663743Y-95598058D01*
X57671254Y-95601169D01*
X57681437Y-95596496D01*
X57696630Y-95578832D01*
X57698704Y-95576139D01*
X57905373Y-95275434D01*
X57907138Y-95272544D01*
X58080133Y-94951258D01*
X58081566Y-94948213D01*
X58218848Y-94610127D01*
X58219949Y-94606930D01*
X58319915Y-94255997D01*
X58320664Y-94252699D01*
X58382140Y-93893043D01*
X58382532Y-93889658D01*
X58404856Y-93524677D01*
X58404914Y-93522877D01*
X58404991Y-93500885D01*
X58404946Y-93499117D01*
X58404442Y-93489811D01*
X104095113Y-93489811D01*
X104113574Y-93854233D01*
X104113927Y-93857590D01*
X104171638Y-94217892D01*
X104172350Y-94221185D01*
X104268636Y-94573149D01*
X104269705Y-94576362D01*
X104403439Y-94915864D01*
X104404840Y-94918925D01*
X104574465Y-95242013D01*
X104576185Y-95244899D01*
X104779708Y-95547774D01*
X104781742Y-95550473D01*
X104820408Y-95596390D01*
X104828856Y-95600768D01*
X104835726Y-95598589D01*
X106925525Y-93508790D01*
X106929166Y-93500000D01*
X108070834Y-93500000D01*
X108074475Y-93508790D01*
X110163743Y-95598058D01*
X110171254Y-95601169D01*
X110181437Y-95596496D01*
X110196630Y-95578832D01*
X110198704Y-95576139D01*
X110405373Y-95275434D01*
X110407138Y-95272544D01*
X110580133Y-94951258D01*
X110581566Y-94948213D01*
X110718848Y-94610127D01*
X110719949Y-94606930D01*
X110819915Y-94255997D01*
X110820664Y-94252699D01*
X110882140Y-93893043D01*
X110882532Y-93889658D01*
X110904856Y-93524677D01*
X110904914Y-93522877D01*
X110904991Y-93500885D01*
X110904946Y-93499117D01*
X110885169Y-93133939D01*
X110884805Y-93130597D01*
X110825837Y-92770501D01*
X110825111Y-92767197D01*
X110727597Y-92415571D01*
X110726523Y-92412378D01*
X110591602Y-92073338D01*
X110590185Y-92070273D01*
X110419444Y-91747797D01*
X110417701Y-91744896D01*
X110213132Y-91442750D01*
X110211079Y-91440046D01*
X110179912Y-91403296D01*
X110171450Y-91398946D01*
X110164511Y-91401174D01*
X108074475Y-93491210D01*
X108070834Y-93500000D01*
X106929166Y-93500000D01*
X106925525Y-93491210D01*
X104836602Y-91402287D01*
X104827812Y-91398646D01*
X104821007Y-91401465D01*
X104796121Y-91430603D01*
X104794067Y-91433290D01*
X104588447Y-91734718D01*
X104586691Y-91737617D01*
X104414826Y-92059491D01*
X104413396Y-92062557D01*
X104277296Y-92401118D01*
X104276207Y-92404318D01*
X104177464Y-92755604D01*
X104176732Y-92758882D01*
X104116505Y-93118779D01*
X104116128Y-93122143D01*
X104095125Y-93486413D01*
X104095113Y-93489811D01*
X58404442Y-93489811D01*
X58385169Y-93133939D01*
X58384805Y-93130597D01*
X58325837Y-92770501D01*
X58325111Y-92767197D01*
X58227597Y-92415571D01*
X58226523Y-92412378D01*
X58091602Y-92073338D01*
X58090185Y-92070273D01*
X57919444Y-91747797D01*
X57917701Y-91744896D01*
X57713132Y-91442750D01*
X57711079Y-91440046D01*
X57679912Y-91403296D01*
X57671450Y-91398946D01*
X57664511Y-91401174D01*
X55574475Y-93491210D01*
X55570834Y-93500000D01*
X54429166Y-93500000D01*
X54425525Y-93491210D01*
X52336602Y-91402287D01*
X52327812Y-91398646D01*
X52321007Y-91401465D01*
X52296121Y-91430603D01*
X52294067Y-91433290D01*
X52088447Y-91734718D01*
X52086691Y-91737617D01*
X51914826Y-92059491D01*
X51913396Y-92062557D01*
X51777296Y-92401118D01*
X51776207Y-92404318D01*
X51677464Y-92755604D01*
X51676732Y-92758882D01*
X51616505Y-93118779D01*
X51616128Y-93122143D01*
X51595125Y-93486413D01*
X51595113Y-93489811D01*
X50203332Y-93489811D01*
X50202065Y-93484257D01*
X50200500Y-93470358D01*
X50200500Y-90829905D01*
X52899984Y-90829905D01*
X52901531Y-90835846D01*
X54991210Y-92925525D01*
X55000000Y-92929166D01*
X55008790Y-92925525D01*
X57096172Y-90838143D01*
X57099584Y-90829905D01*
X105399984Y-90829905D01*
X105401531Y-90835846D01*
X107491210Y-92925525D01*
X107500000Y-92929166D01*
X107508790Y-92925525D01*
X109596172Y-90838143D01*
X109599813Y-90829353D01*
X109597439Y-90823622D01*
X109415235Y-90684820D01*
X109412447Y-90682925D01*
X109099991Y-90494440D01*
X109097017Y-90492858D01*
X108766040Y-90339224D01*
X108762905Y-90337969D01*
X108417258Y-90220975D01*
X108414034Y-90220074D01*
X108057770Y-90141093D01*
X108054448Y-90140543D01*
X107691752Y-90100500D01*
X107688379Y-90100312D01*
X107323482Y-90099675D01*
X107320118Y-90099851D01*
X106957282Y-90138628D01*
X106953956Y-90139167D01*
X106597444Y-90216899D01*
X106594174Y-90217799D01*
X106248139Y-90333581D01*
X106245008Y-90334821D01*
X105913492Y-90487300D01*
X105910501Y-90488878D01*
X105597413Y-90676258D01*
X105594594Y-90678159D01*
X105404798Y-90821700D01*
X105399984Y-90829905D01*
X57099584Y-90829905D01*
X57099813Y-90829353D01*
X57097439Y-90823622D01*
X56915235Y-90684820D01*
X56912447Y-90682925D01*
X56599991Y-90494440D01*
X56597017Y-90492858D01*
X56266040Y-90339224D01*
X56262905Y-90337969D01*
X55917258Y-90220975D01*
X55914034Y-90220074D01*
X55557770Y-90141093D01*
X55554448Y-90140543D01*
X55191752Y-90100500D01*
X55188379Y-90100312D01*
X54823482Y-90099675D01*
X54820118Y-90099851D01*
X54457282Y-90138628D01*
X54453956Y-90139167D01*
X54097444Y-90216899D01*
X54094174Y-90217799D01*
X53748139Y-90333581D01*
X53745008Y-90334821D01*
X53413492Y-90487300D01*
X53410501Y-90488878D01*
X53097413Y-90676258D01*
X53094594Y-90678159D01*
X52904798Y-90821700D01*
X52899984Y-90829905D01*
X50200500Y-90829905D01*
X50200500Y-88222934D01*
X51530325Y-88222934D01*
X51532426Y-88228538D01*
X51630693Y-88341184D01*
X51636252Y-88346189D01*
X51768699Y-88439274D01*
X51775298Y-88442813D01*
X51926129Y-88501620D01*
X51933376Y-88503480D01*
X51992674Y-88511286D01*
X52001865Y-88508824D01*
X52005000Y-88503393D01*
X52005000Y-88500609D01*
X52805000Y-88500609D01*
X52808641Y-88509399D01*
X52814621Y-88511876D01*
X52869456Y-88505240D01*
X52876727Y-88503454D01*
X53028164Y-88446230D01*
X53034794Y-88442764D01*
X53168211Y-88351069D01*
X53173825Y-88346120D01*
X53279864Y-88227105D01*
X53280259Y-88222934D01*
X55460325Y-88222934D01*
X55462426Y-88228538D01*
X55560693Y-88341184D01*
X55566252Y-88346189D01*
X55698699Y-88439274D01*
X55705298Y-88442813D01*
X55856129Y-88501620D01*
X55863376Y-88503480D01*
X55986829Y-88519733D01*
X55990908Y-88520000D01*
X56172569Y-88520000D01*
X56181359Y-88516359D01*
X56185000Y-88507569D01*
X56985000Y-88507569D01*
X56988641Y-88516359D01*
X56997431Y-88520000D01*
X57175593Y-88520000D01*
X57179365Y-88519772D01*
X57299456Y-88505240D01*
X57306727Y-88503454D01*
X57458164Y-88446230D01*
X57464794Y-88442764D01*
X57598211Y-88351069D01*
X57603825Y-88346120D01*
X57709864Y-88227105D01*
X57710393Y-88221514D01*
X57709522Y-88220461D01*
X57707667Y-88220000D01*
X56997431Y-88220000D01*
X56988641Y-88223641D01*
X56985000Y-88232431D01*
X56985000Y-88507569D01*
X56185000Y-88507569D01*
X56185000Y-88232431D01*
X56181359Y-88223641D01*
X56172569Y-88220000D01*
X55467409Y-88220000D01*
X55460325Y-88222934D01*
X53280259Y-88222934D01*
X53280393Y-88221514D01*
X53279522Y-88220461D01*
X53277667Y-88220000D01*
X52817431Y-88220000D01*
X52808641Y-88223641D01*
X52805000Y-88232431D01*
X52805000Y-88500609D01*
X52005000Y-88500609D01*
X52005000Y-88232431D01*
X52001359Y-88223641D01*
X51992569Y-88220000D01*
X51537409Y-88220000D01*
X51530325Y-88222934D01*
X50200500Y-88222934D01*
X50200500Y-87418486D01*
X51529607Y-87418486D01*
X51530478Y-87419539D01*
X51532333Y-87420000D01*
X51992569Y-87420000D01*
X52001359Y-87416359D01*
X52005000Y-87407569D01*
X52805000Y-87407569D01*
X52808641Y-87416359D01*
X52817431Y-87420000D01*
X53272591Y-87420000D01*
X53276246Y-87418486D01*
X55459607Y-87418486D01*
X55460478Y-87419539D01*
X55462333Y-87420000D01*
X56172569Y-87420000D01*
X56181359Y-87416359D01*
X56185000Y-87407569D01*
X56985000Y-87407569D01*
X56988641Y-87416359D01*
X56997431Y-87420000D01*
X57702591Y-87420000D01*
X57709675Y-87417066D01*
X57707574Y-87411462D01*
X57609307Y-87298816D01*
X57603748Y-87293811D01*
X57471301Y-87200726D01*
X57464702Y-87197187D01*
X57313871Y-87138380D01*
X57306624Y-87136520D01*
X57183171Y-87120267D01*
X57179092Y-87120000D01*
X56997431Y-87120000D01*
X56988641Y-87123641D01*
X56985000Y-87132431D01*
X56985000Y-87407569D01*
X56185000Y-87407569D01*
X56185000Y-87132431D01*
X56181359Y-87123641D01*
X56172569Y-87120000D01*
X55994407Y-87120000D01*
X55990635Y-87120228D01*
X55870544Y-87134760D01*
X55863273Y-87136546D01*
X55711836Y-87193770D01*
X55705206Y-87197236D01*
X55571789Y-87288931D01*
X55566175Y-87293880D01*
X55460136Y-87412895D01*
X55459607Y-87418486D01*
X53276246Y-87418486D01*
X53279675Y-87417066D01*
X53277574Y-87411462D01*
X53179307Y-87298816D01*
X53173748Y-87293811D01*
X53041301Y-87200726D01*
X53034702Y-87197187D01*
X52883871Y-87138380D01*
X52876624Y-87136520D01*
X52817326Y-87128714D01*
X52808135Y-87131176D01*
X52805000Y-87136607D01*
X52805000Y-87407569D01*
X52005000Y-87407569D01*
X52005000Y-87139391D01*
X52001359Y-87130601D01*
X51995379Y-87128124D01*
X51940544Y-87134760D01*
X51933273Y-87136546D01*
X51781836Y-87193770D01*
X51775206Y-87197236D01*
X51641789Y-87288931D01*
X51636175Y-87293880D01*
X51530136Y-87412895D01*
X51529607Y-87418486D01*
X50200500Y-87418486D01*
X50200500Y-86390000D01*
X55474534Y-86390000D01*
X55475069Y-86394064D01*
X55490171Y-86508771D01*
X55494313Y-86540236D01*
X55495881Y-86544020D01*
X55495881Y-86544022D01*
X55550732Y-86676444D01*
X55550734Y-86676447D01*
X55552302Y-86680233D01*
X55644549Y-86800451D01*
X55764767Y-86892698D01*
X55768553Y-86894266D01*
X55768556Y-86894268D01*
X55900978Y-86949119D01*
X55900980Y-86949119D01*
X55904764Y-86950687D01*
X55908826Y-86951222D01*
X55908827Y-86951222D01*
X56015249Y-86965233D01*
X56015255Y-86965233D01*
X56017280Y-86965500D01*
X56092720Y-86965500D01*
X56094745Y-86965233D01*
X56094751Y-86965233D01*
X56201173Y-86951222D01*
X56201174Y-86951222D01*
X56205236Y-86950687D01*
X56209020Y-86949119D01*
X56209022Y-86949119D01*
X56341444Y-86894268D01*
X56341447Y-86894266D01*
X56345233Y-86892698D01*
X56465451Y-86800451D01*
X56557698Y-86680233D01*
X56559266Y-86676447D01*
X56559268Y-86676444D01*
X56614119Y-86544022D01*
X56614119Y-86544020D01*
X56615687Y-86540236D01*
X56619830Y-86508771D01*
X56634931Y-86394064D01*
X56635466Y-86390000D01*
X56615687Y-86239764D01*
X56614119Y-86235978D01*
X56559268Y-86103556D01*
X56559266Y-86103553D01*
X56557698Y-86099767D01*
X56465451Y-85979549D01*
X56345233Y-85887302D01*
X56341447Y-85885734D01*
X56341444Y-85885732D01*
X56209022Y-85830881D01*
X56209020Y-85830881D01*
X56205236Y-85829313D01*
X56201174Y-85828778D01*
X56201173Y-85828778D01*
X56094751Y-85814767D01*
X56094745Y-85814767D01*
X56092720Y-85814500D01*
X56017280Y-85814500D01*
X56015255Y-85814767D01*
X56015249Y-85814767D01*
X55908827Y-85828778D01*
X55908826Y-85828778D01*
X55904764Y-85829313D01*
X55900980Y-85830881D01*
X55900978Y-85830881D01*
X55768556Y-85885732D01*
X55768553Y-85885734D01*
X55764767Y-85887302D01*
X55644549Y-85979549D01*
X55552302Y-86099767D01*
X55550734Y-86103553D01*
X55550732Y-86103556D01*
X55495881Y-86235978D01*
X55494313Y-86239764D01*
X55474534Y-86390000D01*
X50200500Y-86390000D01*
X50200500Y-80610000D01*
X55474534Y-80610000D01*
X55494313Y-80760236D01*
X55495881Y-80764020D01*
X55495881Y-80764022D01*
X55550732Y-80896444D01*
X55550734Y-80896447D01*
X55552302Y-80900233D01*
X55644549Y-81020451D01*
X55764767Y-81112698D01*
X55768553Y-81114266D01*
X55768556Y-81114268D01*
X55900978Y-81169119D01*
X55900980Y-81169119D01*
X55904764Y-81170687D01*
X55908826Y-81171222D01*
X55908827Y-81171222D01*
X56015249Y-81185233D01*
X56015255Y-81185233D01*
X56017280Y-81185500D01*
X56092720Y-81185500D01*
X56094745Y-81185233D01*
X56094751Y-81185233D01*
X56201173Y-81171222D01*
X56201174Y-81171222D01*
X56205236Y-81170687D01*
X56209020Y-81169119D01*
X56209022Y-81169119D01*
X56341444Y-81114268D01*
X56341447Y-81114266D01*
X56345233Y-81112698D01*
X56465451Y-81020451D01*
X56557698Y-80900233D01*
X56559266Y-80896447D01*
X56559268Y-80896444D01*
X56614119Y-80764022D01*
X56614119Y-80764020D01*
X56615687Y-80760236D01*
X56635466Y-80610000D01*
X56615687Y-80459764D01*
X56614119Y-80455978D01*
X56559268Y-80323556D01*
X56559266Y-80323553D01*
X56557698Y-80319767D01*
X56465451Y-80199549D01*
X56345233Y-80107302D01*
X56341447Y-80105734D01*
X56341444Y-80105732D01*
X56209022Y-80050881D01*
X56209020Y-80050881D01*
X56205236Y-80049313D01*
X56201174Y-80048778D01*
X56201173Y-80048778D01*
X56094751Y-80034767D01*
X56094745Y-80034767D01*
X56092720Y-80034500D01*
X56017280Y-80034500D01*
X56015255Y-80034767D01*
X56015249Y-80034767D01*
X55908827Y-80048778D01*
X55908826Y-80048778D01*
X55904764Y-80049313D01*
X55900980Y-80050881D01*
X55900978Y-80050881D01*
X55768556Y-80105732D01*
X55768553Y-80105734D01*
X55764767Y-80107302D01*
X55644549Y-80199549D01*
X55552302Y-80319767D01*
X55550734Y-80323553D01*
X55550732Y-80323556D01*
X55495881Y-80455978D01*
X55494313Y-80459764D01*
X55474534Y-80610000D01*
X50200500Y-80610000D01*
X50200500Y-79582934D01*
X51530325Y-79582934D01*
X51532426Y-79588538D01*
X51630693Y-79701184D01*
X51636252Y-79706189D01*
X51768699Y-79799274D01*
X51775298Y-79802813D01*
X51926129Y-79861620D01*
X51933376Y-79863480D01*
X51992674Y-79871286D01*
X52001865Y-79868824D01*
X52005000Y-79863393D01*
X52005000Y-79860609D01*
X52805000Y-79860609D01*
X52808641Y-79869399D01*
X52814621Y-79871876D01*
X52869456Y-79865240D01*
X52876727Y-79863454D01*
X53028164Y-79806230D01*
X53034794Y-79802764D01*
X53168211Y-79711069D01*
X53173825Y-79706120D01*
X53279864Y-79587105D01*
X53280259Y-79582934D01*
X55460325Y-79582934D01*
X55462426Y-79588538D01*
X55560693Y-79701184D01*
X55566252Y-79706189D01*
X55698699Y-79799274D01*
X55705298Y-79802813D01*
X55856129Y-79861620D01*
X55863376Y-79863480D01*
X55986829Y-79879733D01*
X55990908Y-79880000D01*
X56172569Y-79880000D01*
X56181359Y-79876359D01*
X56185000Y-79867569D01*
X56185000Y-79592431D01*
X56181359Y-79583641D01*
X56172569Y-79580000D01*
X55467409Y-79580000D01*
X55460325Y-79582934D01*
X53280259Y-79582934D01*
X53280393Y-79581514D01*
X53279522Y-79580461D01*
X53277667Y-79580000D01*
X52817431Y-79580000D01*
X52808641Y-79583641D01*
X52805000Y-79592431D01*
X52805000Y-79860609D01*
X52005000Y-79860609D01*
X52005000Y-79592431D01*
X52001359Y-79583641D01*
X51992569Y-79580000D01*
X51537409Y-79580000D01*
X51530325Y-79582934D01*
X50200500Y-79582934D01*
X50200500Y-78778486D01*
X51529607Y-78778486D01*
X51530478Y-78779539D01*
X51532333Y-78780000D01*
X51992569Y-78780000D01*
X52001359Y-78776359D01*
X52005000Y-78767569D01*
X52805000Y-78767569D01*
X52808641Y-78776359D01*
X52817431Y-78780000D01*
X53272591Y-78780000D01*
X53276246Y-78778486D01*
X55459607Y-78778486D01*
X55460478Y-78779539D01*
X55462333Y-78780000D01*
X56172569Y-78780000D01*
X56181359Y-78776359D01*
X56185000Y-78767569D01*
X56185000Y-78492431D01*
X56181359Y-78483641D01*
X56172569Y-78480000D01*
X55994407Y-78480000D01*
X55990635Y-78480228D01*
X55870544Y-78494760D01*
X55863273Y-78496546D01*
X55711836Y-78553770D01*
X55705206Y-78557236D01*
X55571789Y-78648931D01*
X55566175Y-78653880D01*
X55460136Y-78772895D01*
X55459607Y-78778486D01*
X53276246Y-78778486D01*
X53279675Y-78777066D01*
X53277574Y-78771462D01*
X53179307Y-78658816D01*
X53173748Y-78653811D01*
X53041301Y-78560726D01*
X53034702Y-78557187D01*
X52883871Y-78498380D01*
X52876624Y-78496520D01*
X52817326Y-78488714D01*
X52808135Y-78491176D01*
X52805000Y-78496607D01*
X52805000Y-78767569D01*
X52005000Y-78767569D01*
X52005000Y-78499391D01*
X52001359Y-78490601D01*
X51995379Y-78488124D01*
X51940544Y-78494760D01*
X51933273Y-78496546D01*
X51781836Y-78553770D01*
X51775206Y-78557236D01*
X51641789Y-78648931D01*
X51636175Y-78653880D01*
X51530136Y-78772895D01*
X51529607Y-78778486D01*
X50200500Y-78778486D01*
X50200500Y-71447133D01*
X58095312Y-71447133D01*
X58113962Y-71507755D01*
X58116056Y-71512887D01*
X58215026Y-71704639D01*
X58217997Y-71709320D01*
X58349354Y-71880509D01*
X58353111Y-71884594D01*
X58512708Y-72029815D01*
X58517124Y-72033167D01*
X58699925Y-72147839D01*
X58704850Y-72150349D01*
X58905069Y-72230836D01*
X58910383Y-72232439D01*
X59122154Y-72276296D01*
X59126693Y-72276893D01*
X59179665Y-72279947D01*
X59181482Y-72280000D01*
X59615069Y-72280000D01*
X59623859Y-72276359D01*
X59627500Y-72267569D01*
X60427500Y-72267569D01*
X60431141Y-72276359D01*
X60439931Y-72280000D01*
X60842276Y-72280000D01*
X60845028Y-72279878D01*
X61005205Y-72265582D01*
X61010655Y-72264601D01*
X61218791Y-72207662D01*
X61223987Y-72205729D01*
X61418753Y-72112831D01*
X61423524Y-72110009D01*
X61598757Y-71984091D01*
X61602949Y-71980474D01*
X61753122Y-71825507D01*
X61756607Y-71821203D01*
X61876960Y-71642098D01*
X61879630Y-71637242D01*
X61961216Y-71451383D01*
X61961416Y-71441871D01*
X61959622Y-71440000D01*
X60439931Y-71440000D01*
X60431141Y-71443641D01*
X60427500Y-71452431D01*
X60427500Y-72267569D01*
X59627500Y-72267569D01*
X59627500Y-71452431D01*
X59623859Y-71443641D01*
X59615069Y-71440000D01*
X58105548Y-71440000D01*
X58096758Y-71443641D01*
X58095312Y-71447133D01*
X50200500Y-71447133D01*
X50200500Y-70638129D01*
X58093584Y-70638129D01*
X58095378Y-70640000D01*
X59615069Y-70640000D01*
X59623859Y-70636359D01*
X59627500Y-70627569D01*
X60427500Y-70627569D01*
X60431141Y-70636359D01*
X60439931Y-70640000D01*
X61949452Y-70640000D01*
X61958242Y-70636359D01*
X61959688Y-70632867D01*
X61941038Y-70572245D01*
X61938944Y-70567113D01*
X61839974Y-70375361D01*
X61837003Y-70370680D01*
X61705646Y-70199491D01*
X61701889Y-70195406D01*
X61542292Y-70050185D01*
X61537876Y-70046833D01*
X61355075Y-69932161D01*
X61350150Y-69929651D01*
X61149931Y-69849164D01*
X61144617Y-69847561D01*
X60932846Y-69803704D01*
X60928307Y-69803107D01*
X60875335Y-69800053D01*
X60873517Y-69800000D01*
X60439931Y-69800000D01*
X60431141Y-69803641D01*
X60427500Y-69812431D01*
X60427500Y-70627569D01*
X59627500Y-70627569D01*
X59627500Y-69812431D01*
X59623859Y-69803641D01*
X59615069Y-69800000D01*
X59212724Y-69800000D01*
X59209972Y-69800122D01*
X59049795Y-69814418D01*
X59044345Y-69815399D01*
X58836209Y-69872338D01*
X58831013Y-69874271D01*
X58636247Y-69967169D01*
X58631476Y-69969991D01*
X58456243Y-70095909D01*
X58452051Y-70099526D01*
X58301878Y-70254493D01*
X58298393Y-70258797D01*
X58178040Y-70437902D01*
X58175370Y-70442758D01*
X58093784Y-70628617D01*
X58093584Y-70638129D01*
X50200500Y-70638129D01*
X50200500Y-65116165D01*
X58027000Y-65116165D01*
X58027001Y-66803834D01*
X58029981Y-66835370D01*
X58074866Y-66963184D01*
X58077639Y-66966939D01*
X58077641Y-66966942D01*
X58152575Y-67068393D01*
X58155350Y-67072150D01*
X58159107Y-67074925D01*
X58260558Y-67149859D01*
X58260561Y-67149861D01*
X58264316Y-67152634D01*
X58392130Y-67197519D01*
X58403994Y-67198640D01*
X58422201Y-67200362D01*
X58422209Y-67200362D01*
X58423665Y-67200500D01*
X60026956Y-67200500D01*
X61631334Y-67200499D01*
X61650068Y-67198729D01*
X61659083Y-67197877D01*
X61659084Y-67197877D01*
X61662870Y-67197519D01*
X61790684Y-67152634D01*
X61794439Y-67149861D01*
X61794442Y-67149859D01*
X61895893Y-67074925D01*
X61899650Y-67072150D01*
X61902425Y-67068393D01*
X61977359Y-66966942D01*
X61977361Y-66966939D01*
X61980134Y-66963184D01*
X62025019Y-66835370D01*
X62026140Y-66823506D01*
X62027862Y-66805299D01*
X62027862Y-66805291D01*
X62028000Y-66803835D01*
X62027999Y-65116166D01*
X62025019Y-65084630D01*
X61980134Y-64956816D01*
X61977361Y-64953061D01*
X61977359Y-64953058D01*
X61902425Y-64851607D01*
X61899650Y-64847850D01*
X61895893Y-64845075D01*
X61794442Y-64770141D01*
X61794439Y-64770139D01*
X61790684Y-64767366D01*
X61662870Y-64722481D01*
X61651006Y-64721360D01*
X61632799Y-64719638D01*
X61632791Y-64719638D01*
X61631335Y-64719500D01*
X60028044Y-64719500D01*
X58423666Y-64719501D01*
X58404932Y-64721271D01*
X58395917Y-64722123D01*
X58395916Y-64722123D01*
X58392130Y-64722481D01*
X58264316Y-64767366D01*
X58260561Y-64770139D01*
X58260558Y-64770141D01*
X58159107Y-64845075D01*
X58155350Y-64847850D01*
X58152575Y-64851607D01*
X58077641Y-64953058D01*
X58077639Y-64953061D01*
X58074866Y-64956816D01*
X58029981Y-65084630D01*
X58029623Y-65088417D01*
X58029623Y-65088419D01*
X58027139Y-65114698D01*
X58027000Y-65116165D01*
X50200500Y-65116165D01*
X50200500Y-59170522D01*
X52900312Y-59170522D01*
X52902712Y-59176314D01*
X53074960Y-59308486D01*
X53077727Y-59310380D01*
X53389522Y-59499955D01*
X53392503Y-59501552D01*
X53722931Y-59656335D01*
X53726072Y-59657605D01*
X54071290Y-59775799D01*
X54074529Y-59776716D01*
X54430512Y-59856941D01*
X54433828Y-59857502D01*
X54796376Y-59898809D01*
X54799758Y-59899010D01*
X55164649Y-59900920D01*
X55168006Y-59900756D01*
X55530968Y-59863248D01*
X55534325Y-59862716D01*
X55891090Y-59786231D01*
X55894363Y-59785343D01*
X56240795Y-59670771D01*
X56243943Y-59669537D01*
X56575981Y-59518219D01*
X56578974Y-59516654D01*
X56892737Y-59330356D01*
X56895533Y-59328484D01*
X57095357Y-59178452D01*
X57100203Y-59170259D01*
X57098692Y-59164377D01*
X55008790Y-57074475D01*
X55000000Y-57070834D01*
X54991210Y-57074475D01*
X52903953Y-59161732D01*
X52900312Y-59170522D01*
X50200500Y-59170522D01*
X50200500Y-56530107D01*
X50202114Y-56515994D01*
X50204856Y-56504163D01*
X50205655Y-56500718D01*
X50205656Y-56500000D01*
X50203332Y-56489811D01*
X51595113Y-56489811D01*
X51613574Y-56854233D01*
X51613927Y-56857590D01*
X51671638Y-57217892D01*
X51672350Y-57221185D01*
X51768636Y-57573149D01*
X51769705Y-57576362D01*
X51903439Y-57915864D01*
X51904840Y-57918925D01*
X52074465Y-58242013D01*
X52076185Y-58244899D01*
X52279708Y-58547774D01*
X52281742Y-58550473D01*
X52320408Y-58596390D01*
X52328856Y-58600768D01*
X52335726Y-58598589D01*
X54425525Y-56508790D01*
X54429166Y-56500000D01*
X55570834Y-56500000D01*
X55574475Y-56508790D01*
X57663743Y-58598058D01*
X57671254Y-58601169D01*
X57681437Y-58596496D01*
X57696630Y-58578832D01*
X57698704Y-58576139D01*
X57905373Y-58275434D01*
X57907138Y-58272544D01*
X58080133Y-57951258D01*
X58081566Y-57948213D01*
X58218848Y-57610127D01*
X58219949Y-57606930D01*
X58319915Y-57255997D01*
X58320664Y-57252699D01*
X58382140Y-56893043D01*
X58382532Y-56889658D01*
X58404856Y-56524677D01*
X58404914Y-56522877D01*
X58404991Y-56500885D01*
X58404946Y-56499117D01*
X58385169Y-56133939D01*
X58384805Y-56130597D01*
X58325837Y-55770501D01*
X58325111Y-55767197D01*
X58227597Y-55415571D01*
X58226523Y-55412378D01*
X58091602Y-55073338D01*
X58090185Y-55070273D01*
X57919444Y-54747797D01*
X57917701Y-54744896D01*
X57713132Y-54442750D01*
X57711079Y-54440046D01*
X57679912Y-54403296D01*
X57671450Y-54398946D01*
X57664511Y-54401174D01*
X55574475Y-56491210D01*
X55570834Y-56500000D01*
X54429166Y-56500000D01*
X54425525Y-56491210D01*
X52336602Y-54402287D01*
X52327812Y-54398646D01*
X52321007Y-54401465D01*
X52296121Y-54430603D01*
X52294067Y-54433290D01*
X52088447Y-54734718D01*
X52086691Y-54737617D01*
X51914826Y-55059491D01*
X51913396Y-55062557D01*
X51777296Y-55401118D01*
X51776207Y-55404318D01*
X51677464Y-55755604D01*
X51676732Y-55758882D01*
X51616505Y-56118779D01*
X51616128Y-56122143D01*
X51595125Y-56486413D01*
X51595113Y-56489811D01*
X50203332Y-56489811D01*
X50203202Y-56489242D01*
X50201695Y-56472613D01*
X50203036Y-56441915D01*
X50218646Y-56084407D01*
X50219121Y-56078982D01*
X50224183Y-56040537D01*
X50273060Y-55669272D01*
X50274006Y-55663908D01*
X50276400Y-55653113D01*
X50363448Y-55260464D01*
X50364859Y-55255198D01*
X50489124Y-54861077D01*
X50490989Y-54855953D01*
X50649132Y-54474165D01*
X50651436Y-54469224D01*
X50842250Y-54102673D01*
X50844976Y-54097951D01*
X51015740Y-53829905D01*
X52899984Y-53829905D01*
X52901531Y-53835846D01*
X54991210Y-55925525D01*
X55000000Y-55929166D01*
X55008790Y-55925525D01*
X57096172Y-53838143D01*
X57099813Y-53829353D01*
X57097439Y-53823622D01*
X56915235Y-53684820D01*
X56912447Y-53682925D01*
X56599991Y-53494440D01*
X56597017Y-53492858D01*
X56266040Y-53339224D01*
X56262905Y-53337969D01*
X55917258Y-53220975D01*
X55914034Y-53220074D01*
X55557770Y-53141093D01*
X55554448Y-53140543D01*
X55191752Y-53100500D01*
X55188379Y-53100312D01*
X54823482Y-53099675D01*
X54820118Y-53099851D01*
X54457282Y-53138628D01*
X54453956Y-53139167D01*
X54097444Y-53216899D01*
X54094174Y-53217799D01*
X53748139Y-53333581D01*
X53745008Y-53334821D01*
X53413492Y-53487300D01*
X53410501Y-53488878D01*
X53097413Y-53676258D01*
X53094594Y-53678159D01*
X52904798Y-53821700D01*
X52899984Y-53829905D01*
X51015740Y-53829905D01*
X51067010Y-53749428D01*
X51070137Y-53744961D01*
X51321714Y-53417099D01*
X51325219Y-53412923D01*
X51396786Y-53334821D01*
X51604401Y-53108249D01*
X51608253Y-53104397D01*
X51613407Y-53099675D01*
X51912925Y-52825217D01*
X51917099Y-52821714D01*
X52244961Y-52570137D01*
X52249428Y-52567010D01*
X52597951Y-52344976D01*
X52602673Y-52342250D01*
X52969224Y-52151436D01*
X52974165Y-52149132D01*
X53165059Y-52070060D01*
X53355958Y-51990987D01*
X53361071Y-51989126D01*
X53579240Y-51920338D01*
X53755198Y-51864859D01*
X53760464Y-51863448D01*
X53790390Y-51856814D01*
X54163919Y-51774004D01*
X54169272Y-51773060D01*
X54578989Y-51719120D01*
X54584407Y-51718646D01*
X54769525Y-51710563D01*
X54972388Y-51701706D01*
X54989115Y-51703236D01*
X54999641Y-51705656D01*
X55006504Y-51704103D01*
X55006506Y-51704103D01*
X55015617Y-51702041D01*
X55029411Y-51700500D01*
X59800000Y-51700500D01*
X59800000Y-57200000D01*
G37*
G04 #@! TD.AperFunction*
M02*
