G04 #@! TF.GenerationSoftware,KiCad,Pcbnew,6.0.4-6f826c9f35~116~ubuntu20.04.1*
G04 #@! TF.CreationDate,2022-03-24T16:15:20+01:00*
G04 #@! TF.ProjectId,philphoc-luma,7068696c-7068-46f6-932d-6c756d612e6b,rev?*
G04 #@! TF.SameCoordinates,Original*
G04 #@! TF.FileFunction,Soldermask,Bot*
G04 #@! TF.FilePolarity,Negative*
%FSLAX46Y46*%
G04 Gerber Fmt 4.6, Leading zero omitted, Abs format (unit mm)*
G04 Created by KiCad (PCBNEW 6.0.4-6f826c9f35~116~ubuntu20.04.1) date 2022-03-24 16:15:20*
%MOMM*%
%LPD*%
G01*
G04 APERTURE LIST*
G04 Aperture macros list*
%AMRoundRect*
0 Rectangle with rounded corners*
0 $1 Rounding radius*
0 $2 $3 $4 $5 $6 $7 $8 $9 X,Y pos of 4 corners*
0 Add a 4 corners polygon primitive as box body*
4,1,4,$2,$3,$4,$5,$6,$7,$8,$9,$2,$3,0*
0 Add four circle primitives for the rounded corners*
1,1,$1+$1,$2,$3*
1,1,$1+$1,$4,$5*
1,1,$1+$1,$6,$7*
1,1,$1+$1,$8,$9*
0 Add four rect primitives between the rounded corners*
20,1,$1+$1,$2,$3,$4,$5,0*
20,1,$1+$1,$4,$5,$6,$7,0*
20,1,$1+$1,$6,$7,$8,$9,0*
20,1,$1+$1,$8,$9,$2,$3,0*%
G04 Aperture macros list end*
%ADD10R,1.700000X1.700000*%
%ADD11O,1.700000X1.700000*%
%ADD12C,0.985520*%
%ADD13C,0.988060*%
%ADD14C,0.800000*%
%ADD15C,6.400000*%
%ADD16RoundRect,0.249999X-1.550001X0.790001X-1.550001X-0.790001X1.550001X-0.790001X1.550001X0.790001X0*%
%ADD17O,3.600000X2.080000*%
%ADD18RoundRect,0.249999X1.550001X-0.790001X1.550001X0.790001X-1.550001X0.790001X-1.550001X-0.790001X0*%
%ADD19C,0.650000*%
%ADD20O,2.100000X1.000000*%
%ADD21O,1.600000X1.000000*%
G04 APERTURE END LIST*
D10*
X65000000Y-67075000D03*
D11*
X65000000Y-64535000D03*
X65000000Y-61995000D03*
X65000000Y-59455000D03*
X65000000Y-56915000D03*
D12*
X87790000Y-84766000D03*
D13*
X82710000Y-83750000D03*
D12*
X87790000Y-82734000D03*
D14*
X109197056Y-54802944D03*
D15*
X107500000Y-56500000D03*
D14*
X107500000Y-54100000D03*
X105802944Y-54802944D03*
X105100000Y-56500000D03*
X105802944Y-58197056D03*
X109900000Y-56500000D03*
X107500000Y-58900000D03*
X109197056Y-58197056D03*
X55000000Y-58900000D03*
X57400000Y-56500000D03*
X56697056Y-54802944D03*
D15*
X55000000Y-56500000D03*
D14*
X52600000Y-56500000D03*
X55000000Y-54100000D03*
X56697056Y-58197056D03*
X53302944Y-54802944D03*
X53302944Y-58197056D03*
D12*
X73540000Y-54984000D03*
D13*
X68460000Y-56000000D03*
D12*
X73540000Y-57016000D03*
D16*
X60027500Y-65960000D03*
D17*
X60027500Y-71040000D03*
D10*
X89560000Y-87500000D03*
D11*
X87020000Y-87500000D03*
X84480000Y-87500000D03*
X81940000Y-87500000D03*
D14*
X107500000Y-91100000D03*
X107500000Y-95900000D03*
D15*
X107500000Y-93500000D03*
D14*
X105802944Y-95197056D03*
X109197056Y-95197056D03*
X109900000Y-93500000D03*
X105802944Y-91802944D03*
X105100000Y-93500000D03*
X109197056Y-91802944D03*
D10*
X95770000Y-87500000D03*
D11*
X93230000Y-87500000D03*
D14*
X53302944Y-91802944D03*
X57400000Y-93500000D03*
D15*
X55000000Y-93500000D03*
D14*
X52600000Y-93500000D03*
X56697056Y-91802944D03*
X55000000Y-95900000D03*
X55000000Y-91100000D03*
X53302944Y-95197056D03*
X56697056Y-95197056D03*
D18*
X102472500Y-80080000D03*
D17*
X102472500Y-75000000D03*
X102472500Y-69920000D03*
D19*
X56055000Y-80610000D03*
X56055000Y-86390000D03*
D20*
X56585000Y-79180000D03*
X56585000Y-87820000D03*
D21*
X52405000Y-87820000D03*
X52405000Y-79180000D03*
M02*
