G04 #@! TF.GenerationSoftware,KiCad,Pcbnew,6.0.4-6f826c9f35~116~ubuntu20.04.1*
G04 #@! TF.CreationDate,2022-03-24T16:15:20+01:00*
G04 #@! TF.ProjectId,philphoc-luma,7068696c-7068-46f6-932d-6c756d612e6b,rev?*
G04 #@! TF.SameCoordinates,Original*
G04 #@! TF.FileFunction,Paste,Top*
G04 #@! TF.FilePolarity,Positive*
%FSLAX46Y46*%
G04 Gerber Fmt 4.6, Leading zero omitted, Abs format (unit mm)*
G04 Created by KiCad (PCBNEW 6.0.4-6f826c9f35~116~ubuntu20.04.1) date 2022-03-24 16:15:20*
%MOMM*%
%LPD*%
G01*
G04 APERTURE LIST*
G04 Aperture macros list*
%AMRoundRect*
0 Rectangle with rounded corners*
0 $1 Rounding radius*
0 $2 $3 $4 $5 $6 $7 $8 $9 X,Y pos of 4 corners*
0 Add a 4 corners polygon primitive as box body*
4,1,4,$2,$3,$4,$5,$6,$7,$8,$9,$2,$3,0*
0 Add four circle primitives for the rounded corners*
1,1,$1+$1,$2,$3*
1,1,$1+$1,$4,$5*
1,1,$1+$1,$6,$7*
1,1,$1+$1,$8,$9*
0 Add four rect primitives between the rounded corners*
20,1,$1+$1,$2,$3,$4,$5,0*
20,1,$1+$1,$4,$5,$6,$7,0*
20,1,$1+$1,$6,$7,$8,$9,0*
20,1,$1+$1,$8,$9,$2,$3,0*%
%AMFreePoly0*
4,1,9,3.862500,-0.866500,0.737500,-0.866500,0.737500,-0.450000,-0.737500,-0.450000,-0.737500,0.450000,0.737500,0.450000,0.737500,0.866500,3.862500,0.866500,3.862500,-0.866500,3.862500,-0.866500,$1*%
G04 Aperture macros list end*
%ADD10RoundRect,0.150000X-0.150000X0.587500X-0.150000X-0.587500X0.150000X-0.587500X0.150000X0.587500X0*%
%ADD11R,0.900000X2.000000*%
%ADD12R,2.000000X0.900000*%
%ADD13R,0.500000X0.600000*%
%ADD14R,0.600000X0.500000*%
%ADD15RoundRect,0.100000X-0.100000X0.637500X-0.100000X-0.637500X0.100000X-0.637500X0.100000X0.637500X0*%
%ADD16R,0.900000X1.300000*%
%ADD17FreePoly0,270.000000*%
%ADD18R,1.100000X1.100000*%
%ADD19R,0.900000X0.600000*%
%ADD20R,1.050000X0.650000*%
%ADD21R,0.600000X0.900000*%
%ADD22RoundRect,0.150000X0.587500X0.150000X-0.587500X0.150000X-0.587500X-0.150000X0.587500X-0.150000X0*%
%ADD23R,1.450000X0.600000*%
%ADD24R,1.450000X0.300000*%
G04 APERTURE END LIST*
D10*
X58750000Y-75812500D03*
X56850000Y-75812500D03*
X57800000Y-77687500D03*
D11*
X80921000Y-59873000D03*
X79651000Y-59873000D03*
X78381000Y-59873000D03*
X77111000Y-59873000D03*
X75841000Y-59873000D03*
X74571000Y-59873000D03*
X73301000Y-59873000D03*
X72031000Y-59873000D03*
X70761000Y-59873000D03*
D12*
X68606500Y-62050500D03*
X68606500Y-63320500D03*
X68606500Y-64590500D03*
X68606500Y-65860500D03*
X68606500Y-67130500D03*
X68602000Y-68389000D03*
X68602000Y-69659000D03*
X68602000Y-70929000D03*
X68602000Y-72199000D03*
D11*
X70782500Y-75231000D03*
X72052500Y-75231000D03*
X73322500Y-75231000D03*
X74592500Y-75231000D03*
X75862500Y-75231000D03*
X77132500Y-75231000D03*
X78381000Y-75238000D03*
X79651000Y-75238000D03*
X80921000Y-75238000D03*
D13*
X94280000Y-84500000D03*
X95220000Y-84500000D03*
D14*
X76250000Y-77970000D03*
X76250000Y-77030000D03*
D15*
X80425000Y-79387500D03*
X79775000Y-79387500D03*
X79125000Y-79387500D03*
X78475000Y-79387500D03*
X77825000Y-79387500D03*
X77175000Y-79387500D03*
X76525000Y-79387500D03*
X75875000Y-79387500D03*
X75225000Y-79387500D03*
X74575000Y-79387500D03*
X74575000Y-85112500D03*
X75225000Y-85112500D03*
X75875000Y-85112500D03*
X76525000Y-85112500D03*
X77175000Y-85112500D03*
X77825000Y-85112500D03*
X78475000Y-85112500D03*
X79125000Y-85112500D03*
X79775000Y-85112500D03*
X80425000Y-85112500D03*
D16*
X67200000Y-75350000D03*
D17*
X65700000Y-75437500D03*
D16*
X64200000Y-75350000D03*
D14*
X70000000Y-77970000D03*
X70000000Y-77030000D03*
D13*
X95220000Y-83500000D03*
X94280000Y-83500000D03*
D18*
X58600000Y-61000000D03*
X61400000Y-61000000D03*
D19*
X65250000Y-70750000D03*
X65250000Y-72250000D03*
D18*
X92900000Y-84000000D03*
X90100000Y-84000000D03*
D20*
X75925000Y-57075000D03*
X80075000Y-57075000D03*
X80075000Y-54925000D03*
X75925000Y-54925000D03*
D14*
X59800000Y-78770000D03*
X59800000Y-77830000D03*
X75500000Y-86530000D03*
X75500000Y-87470000D03*
X74500000Y-86530000D03*
X74500000Y-87470000D03*
D13*
X64030000Y-55000000D03*
X64970000Y-55000000D03*
D10*
X62700000Y-79562500D03*
X60800000Y-79562500D03*
X61750000Y-81437500D03*
D13*
X60530000Y-83000000D03*
X61470000Y-83000000D03*
D21*
X67250000Y-73800000D03*
X65750000Y-73800000D03*
D22*
X62337500Y-77700000D03*
X62337500Y-75800000D03*
X60462500Y-76750000D03*
D14*
X76500000Y-86530000D03*
X76500000Y-87470000D03*
X71000000Y-78000000D03*
X71000000Y-77060000D03*
X58900000Y-85170000D03*
X58900000Y-84230000D03*
X58900000Y-81930000D03*
X58900000Y-82870000D03*
D13*
X78470000Y-78000000D03*
X77530000Y-78000000D03*
D21*
X63350000Y-73800000D03*
X64850000Y-73800000D03*
D13*
X62280000Y-83000000D03*
X63220000Y-83000000D03*
D14*
X73000000Y-77970000D03*
X73000000Y-77030000D03*
X72000000Y-77970000D03*
X72000000Y-77030000D03*
D21*
X78750000Y-77000000D03*
X77250000Y-77000000D03*
D13*
X75270000Y-77500000D03*
X74330000Y-77500000D03*
D14*
X66500000Y-71030000D03*
X66500000Y-71970000D03*
D23*
X57500000Y-80300000D03*
X57500000Y-81100000D03*
D24*
X57500000Y-82250000D03*
X57500000Y-83250000D03*
X57500000Y-83750000D03*
X57500000Y-84750000D03*
D23*
X57500000Y-81100000D03*
X57500000Y-80300000D03*
X57500000Y-86700000D03*
X57500000Y-85900000D03*
D24*
X57500000Y-85250000D03*
X57500000Y-84250000D03*
X57500000Y-82750000D03*
X57500000Y-81750000D03*
D23*
X57500000Y-85900000D03*
X57500000Y-86700000D03*
D14*
X77500000Y-86530000D03*
X77500000Y-87470000D03*
M02*
