G04 #@! TF.GenerationSoftware,KiCad,Pcbnew,6.0.4-6f826c9f35~116~ubuntu20.04.1*
G04 #@! TF.CreationDate,2022-03-24T16:15:20+01:00*
G04 #@! TF.ProjectId,philphoc-luma,7068696c-7068-46f6-932d-6c756d612e6b,rev?*
G04 #@! TF.SameCoordinates,Original*
G04 #@! TF.FileFunction,Legend,Bot*
G04 #@! TF.FilePolarity,Positive*
%FSLAX46Y46*%
G04 Gerber Fmt 4.6, Leading zero omitted, Abs format (unit mm)*
G04 Created by KiCad (PCBNEW 6.0.4-6f826c9f35~116~ubuntu20.04.1) date 2022-03-24 16:15:20*
%MOMM*%
%LPD*%
G01*
G04 APERTURE LIST*
%ADD10C,0.120000*%
%ADD11C,0.200000*%
G04 APERTURE END LIST*
D10*
X57800000Y-66000000D02*
X56200000Y-66000000D01*
X57000000Y-66800000D02*
X57000000Y-65200000D01*
X57000000Y-71800000D02*
X57000000Y-70200000D01*
X67350000Y-55650000D02*
X67350000Y-68250000D01*
X106300000Y-80100000D02*
X104700000Y-80100000D01*
X105500000Y-80900000D02*
X105500000Y-79300000D01*
X90800000Y-90200000D02*
X80800000Y-90200000D01*
X105500000Y-70700000D02*
X105500000Y-69100000D01*
D11*
X104952380Y-74000000D02*
X104952380Y-74190476D01*
X105000000Y-74285714D01*
X105095238Y-74380952D01*
X105285714Y-74428571D01*
X105619047Y-74428571D01*
X105809523Y-74380952D01*
X105904761Y-74285714D01*
X105952380Y-74190476D01*
X105952380Y-74000000D01*
X105904761Y-73904761D01*
X105809523Y-73809523D01*
X105619047Y-73761904D01*
X105285714Y-73761904D01*
X105095238Y-73809523D01*
X105000000Y-73904761D01*
X104952380Y-74000000D01*
X104952380Y-74857142D02*
X105761904Y-74857142D01*
X105857142Y-74904761D01*
X105904761Y-74952380D01*
X105952380Y-75047619D01*
X105952380Y-75238095D01*
X105904761Y-75333333D01*
X105857142Y-75380952D01*
X105761904Y-75428571D01*
X104952380Y-75428571D01*
X104952380Y-75761904D02*
X104952380Y-76333333D01*
X105952380Y-76047619D02*
X104952380Y-76047619D01*
D10*
X87526190Y-89935714D02*
X87564285Y-89973809D01*
X87678571Y-90011904D01*
X87754761Y-90011904D01*
X87869047Y-89973809D01*
X87945238Y-89897619D01*
X87983333Y-89821428D01*
X88021428Y-89669047D01*
X88021428Y-89554761D01*
X87983333Y-89402380D01*
X87945238Y-89326190D01*
X87869047Y-89250000D01*
X87754761Y-89211904D01*
X87678571Y-89211904D01*
X87564285Y-89250000D01*
X87526190Y-89288095D01*
X86802380Y-90011904D02*
X87183333Y-90011904D01*
X87183333Y-89211904D01*
X86535714Y-90011904D02*
X86535714Y-89211904D01*
X86078571Y-90011904D02*
X86421428Y-89554761D01*
X86078571Y-89211904D02*
X86535714Y-89669047D01*
X66400000Y-66490476D02*
X66361904Y-66414285D01*
X66361904Y-66300000D01*
X66400000Y-66185714D01*
X66476190Y-66109523D01*
X66552380Y-66071428D01*
X66704761Y-66033333D01*
X66819047Y-66033333D01*
X66971428Y-66071428D01*
X67047619Y-66109523D01*
X67123809Y-66185714D01*
X67161904Y-66300000D01*
X67161904Y-66376190D01*
X67123809Y-66490476D01*
X67085714Y-66528571D01*
X66819047Y-66528571D01*
X66819047Y-66376190D01*
X67161904Y-66871428D02*
X66361904Y-66871428D01*
X67161904Y-67328571D01*
X66361904Y-67328571D01*
X67161904Y-67709523D02*
X66361904Y-67709523D01*
X66361904Y-67900000D01*
X66400000Y-68014285D01*
X66476190Y-68090476D01*
X66552380Y-68128571D01*
X66704761Y-68166666D01*
X66819047Y-68166666D01*
X66971428Y-68128571D01*
X67047619Y-68090476D01*
X67123809Y-68014285D01*
X67161904Y-67900000D01*
X67161904Y-67709523D01*
X87502380Y-91223809D02*
X87388095Y-91261904D01*
X87197619Y-91261904D01*
X87121428Y-91223809D01*
X87083333Y-91185714D01*
X87045238Y-91109523D01*
X87045238Y-91033333D01*
X87083333Y-90957142D01*
X87121428Y-90919047D01*
X87197619Y-90880952D01*
X87350000Y-90842857D01*
X87426190Y-90804761D01*
X87464285Y-90766666D01*
X87502380Y-90690476D01*
X87502380Y-90614285D01*
X87464285Y-90538095D01*
X87426190Y-90500000D01*
X87350000Y-90461904D01*
X87159523Y-90461904D01*
X87045238Y-90500000D01*
X86816666Y-90461904D02*
X86359523Y-90461904D01*
X86588095Y-91261904D02*
X86588095Y-90461904D01*
X86092857Y-91261904D02*
X86092857Y-90461904D01*
X85826190Y-91033333D01*
X85559523Y-90461904D01*
X85559523Y-91261904D01*
X85254761Y-90461904D02*
X84759523Y-90461904D01*
X85026190Y-90766666D01*
X84911904Y-90766666D01*
X84835714Y-90804761D01*
X84797619Y-90842857D01*
X84759523Y-90919047D01*
X84759523Y-91109523D01*
X84797619Y-91185714D01*
X84835714Y-91223809D01*
X84911904Y-91261904D01*
X85140476Y-91261904D01*
X85216666Y-91223809D01*
X85254761Y-91185714D01*
X84454761Y-90538095D02*
X84416666Y-90500000D01*
X84340476Y-90461904D01*
X84150000Y-90461904D01*
X84073809Y-90500000D01*
X84035714Y-90538095D01*
X83997619Y-90614285D01*
X83997619Y-90690476D01*
X84035714Y-90804761D01*
X84492857Y-91261904D01*
X83997619Y-91261904D01*
X85369047Y-90011904D02*
X85369047Y-89211904D01*
X85178571Y-89211904D01*
X85064285Y-89250000D01*
X84988095Y-89326190D01*
X84950000Y-89402380D01*
X84911904Y-89554761D01*
X84911904Y-89669047D01*
X84950000Y-89821428D01*
X84988095Y-89897619D01*
X85064285Y-89973809D01*
X85178571Y-90011904D01*
X85369047Y-90011904D01*
X84569047Y-90011904D02*
X84569047Y-89211904D01*
X84035714Y-89211904D02*
X83883333Y-89211904D01*
X83807142Y-89250000D01*
X83730952Y-89326190D01*
X83692857Y-89478571D01*
X83692857Y-89745238D01*
X83730952Y-89897619D01*
X83807142Y-89973809D01*
X83883333Y-90011904D01*
X84035714Y-90011904D01*
X84111904Y-89973809D01*
X84188095Y-89897619D01*
X84226190Y-89745238D01*
X84226190Y-89478571D01*
X84188095Y-89326190D01*
X84111904Y-89250000D01*
X84035714Y-89211904D01*
X67161904Y-59011904D02*
X66780952Y-58745238D01*
X67161904Y-58554761D02*
X66361904Y-58554761D01*
X66361904Y-58859523D01*
X66400000Y-58935714D01*
X66438095Y-58973809D01*
X66514285Y-59011904D01*
X66628571Y-59011904D01*
X66704761Y-58973809D01*
X66742857Y-58935714D01*
X66780952Y-58859523D01*
X66780952Y-58554761D01*
X67123809Y-59316666D02*
X67161904Y-59430952D01*
X67161904Y-59621428D01*
X67123809Y-59697619D01*
X67085714Y-59735714D01*
X67009523Y-59773809D01*
X66933333Y-59773809D01*
X66857142Y-59735714D01*
X66819047Y-59697619D01*
X66780952Y-59621428D01*
X66742857Y-59469047D01*
X66704761Y-59392857D01*
X66666666Y-59354761D01*
X66590476Y-59316666D01*
X66514285Y-59316666D01*
X66438095Y-59354761D01*
X66400000Y-59392857D01*
X66361904Y-59469047D01*
X66361904Y-59659523D01*
X66400000Y-59773809D01*
X66361904Y-60002380D02*
X66361904Y-60459523D01*
X67161904Y-60230952D02*
X66361904Y-60230952D01*
X67992857Y-61066666D02*
X67992857Y-61333333D01*
X68411904Y-61447619D02*
X68411904Y-61066666D01*
X67611904Y-61066666D01*
X67611904Y-61447619D01*
X67611904Y-61714285D02*
X67611904Y-62247619D01*
X68411904Y-61904761D01*
X67611904Y-62933333D02*
X67611904Y-62552380D01*
X67992857Y-62514285D01*
X67954761Y-62552380D01*
X67916666Y-62628571D01*
X67916666Y-62819047D01*
X67954761Y-62895238D01*
X67992857Y-62933333D01*
X68069047Y-62971428D01*
X68259523Y-62971428D01*
X68335714Y-62933333D01*
X68373809Y-62895238D01*
X68411904Y-62819047D01*
X68411904Y-62628571D01*
X68373809Y-62552380D01*
X68335714Y-62514285D01*
X66361904Y-61390476D02*
X66361904Y-61847619D01*
X67161904Y-61619047D02*
X66361904Y-61619047D01*
X66361904Y-62038095D02*
X67161904Y-62571428D01*
X66361904Y-62571428D02*
X67161904Y-62038095D01*
X66742857Y-56138095D02*
X66780952Y-56252380D01*
X66819047Y-56290476D01*
X66895238Y-56328571D01*
X67009523Y-56328571D01*
X67085714Y-56290476D01*
X67123809Y-56252380D01*
X67161904Y-56176190D01*
X67161904Y-55871428D01*
X66361904Y-55871428D01*
X66361904Y-56138095D01*
X66400000Y-56214285D01*
X66438095Y-56252380D01*
X66514285Y-56290476D01*
X66590476Y-56290476D01*
X66666666Y-56252380D01*
X66704761Y-56214285D01*
X66742857Y-56138095D01*
X66742857Y-55871428D01*
X67161904Y-56671428D02*
X66361904Y-56671428D01*
X67161904Y-57128571D01*
X66361904Y-57128571D01*
X67161904Y-57509523D02*
X66361904Y-57509523D01*
X66361904Y-57700000D01*
X66400000Y-57814285D01*
X66476190Y-57890476D01*
X66552380Y-57928571D01*
X66704761Y-57966666D01*
X66819047Y-57966666D01*
X66971428Y-57928571D01*
X67047619Y-57890476D01*
X67123809Y-57814285D01*
X67161904Y-57700000D01*
X67161904Y-57509523D01*
X82940476Y-89211904D02*
X82445238Y-89211904D01*
X82711904Y-89516666D01*
X82597619Y-89516666D01*
X82521428Y-89554761D01*
X82483333Y-89592857D01*
X82445238Y-89669047D01*
X82445238Y-89859523D01*
X82483333Y-89935714D01*
X82521428Y-89973809D01*
X82597619Y-90011904D01*
X82826190Y-90011904D01*
X82902380Y-89973809D01*
X82940476Y-89935714D01*
X82216666Y-89211904D02*
X81950000Y-90011904D01*
X81683333Y-89211904D01*
X81492857Y-89211904D02*
X80997619Y-89211904D01*
X81264285Y-89516666D01*
X81150000Y-89516666D01*
X81073809Y-89554761D01*
X81035714Y-89592857D01*
X80997619Y-89669047D01*
X80997619Y-89859523D01*
X81035714Y-89935714D01*
X81073809Y-89973809D01*
X81150000Y-90011904D01*
X81378571Y-90011904D01*
X81454761Y-89973809D01*
X81492857Y-89935714D01*
X90209523Y-89250000D02*
X90285714Y-89211904D01*
X90400000Y-89211904D01*
X90514285Y-89250000D01*
X90590476Y-89326190D01*
X90628571Y-89402380D01*
X90666666Y-89554761D01*
X90666666Y-89669047D01*
X90628571Y-89821428D01*
X90590476Y-89897619D01*
X90514285Y-89973809D01*
X90400000Y-90011904D01*
X90323809Y-90011904D01*
X90209523Y-89973809D01*
X90171428Y-89935714D01*
X90171428Y-89669047D01*
X90323809Y-89669047D01*
X89828571Y-90011904D02*
X89828571Y-89211904D01*
X89371428Y-90011904D01*
X89371428Y-89211904D01*
X88990476Y-90011904D02*
X88990476Y-89211904D01*
X88800000Y-89211904D01*
X88685714Y-89250000D01*
X88609523Y-89326190D01*
X88571428Y-89402380D01*
X88533333Y-89554761D01*
X88533333Y-89669047D01*
X88571428Y-89821428D01*
X88609523Y-89897619D01*
X88685714Y-89973809D01*
X88800000Y-90011904D01*
X88990476Y-90011904D01*
X67161904Y-64366666D02*
X66780952Y-64100000D01*
X67161904Y-63909523D02*
X66361904Y-63909523D01*
X66361904Y-64214285D01*
X66400000Y-64290476D01*
X66438095Y-64328571D01*
X66514285Y-64366666D01*
X66628571Y-64366666D01*
X66704761Y-64328571D01*
X66742857Y-64290476D01*
X66780952Y-64214285D01*
X66780952Y-63909523D01*
X66361904Y-64633333D02*
X67161904Y-65166666D01*
X66361904Y-65166666D02*
X67161904Y-64633333D01*
M02*
