G04 #@! TF.GenerationSoftware,KiCad,Pcbnew,6.0.4-6f826c9f35~116~ubuntu20.04.1*
G04 #@! TF.CreationDate,2022-03-24T16:15:20+01:00*
G04 #@! TF.ProjectId,philphoc-luma,7068696c-7068-46f6-932d-6c756d612e6b,rev?*
G04 #@! TF.SameCoordinates,Original*
G04 #@! TF.FileFunction,Legend,Top*
G04 #@! TF.FilePolarity,Positive*
%FSLAX46Y46*%
G04 Gerber Fmt 4.6, Leading zero omitted, Abs format (unit mm)*
G04 Created by KiCad (PCBNEW 6.0.4-6f826c9f35~116~ubuntu20.04.1) date 2022-03-24 16:15:20*
%MOMM*%
%LPD*%
G01*
G04 APERTURE LIST*
%ADD10C,0.120000*%
%ADD11C,0.150000*%
%ADD12C,0.320000*%
%ADD13C,0.100000*%
%ADD14C,0.127000*%
%ADD15C,0.985520*%
%ADD16C,0.988060*%
G04 APERTURE END LIST*
D10*
X52200000Y-61000000D02*
X50600000Y-61000000D01*
X98300000Y-88300000D02*
X98500000Y-88300000D01*
X97800000Y-87200000D02*
X97700000Y-87300000D01*
X111200000Y-65600000D02*
X111200000Y-64000000D01*
X97400000Y-89200000D02*
X98300000Y-88300000D01*
X98300000Y-86700000D02*
X97800000Y-87200000D01*
X111200000Y-86000000D02*
X111200000Y-84400000D01*
X51400000Y-76800000D02*
X51400000Y-75200000D01*
X112000000Y-85200000D02*
X110400000Y-85200000D01*
X98500000Y-86700000D02*
X98300000Y-86700000D01*
X94500000Y-88830000D02*
X94900000Y-89200000D01*
X97700000Y-87300000D02*
X97100000Y-87300000D01*
X51400000Y-61800000D02*
X51400000Y-60200000D01*
X94900000Y-89200000D02*
X97400000Y-89200000D01*
D11*
X82119047Y-55857142D02*
X82404761Y-55952380D01*
X82500000Y-56047619D01*
X82595238Y-56238095D01*
X82595238Y-56523809D01*
X82500000Y-56714285D01*
X82404761Y-56809523D01*
X82214285Y-56904761D01*
X81452380Y-56904761D01*
X81452380Y-54904761D01*
X82119047Y-54904761D01*
X82309523Y-55000000D01*
X82404761Y-55095238D01*
X82500000Y-55285714D01*
X82500000Y-55476190D01*
X82404761Y-55666666D01*
X82309523Y-55761904D01*
X82119047Y-55857142D01*
X81452380Y-55857142D01*
X83452380Y-56904761D02*
X83452380Y-54904761D01*
X84404761Y-56904761D02*
X84404761Y-54904761D01*
X85547619Y-56904761D01*
X85547619Y-54904761D01*
X86500000Y-56904761D02*
X86500000Y-54904761D01*
X86976190Y-54904761D01*
X87261904Y-55000000D01*
X87452380Y-55190476D01*
X87547619Y-55380952D01*
X87642857Y-55761904D01*
X87642857Y-56047619D01*
X87547619Y-56428571D01*
X87452380Y-56619047D01*
X87261904Y-56809523D01*
X86976190Y-56904761D01*
X86500000Y-56904761D01*
X98809523Y-87099761D02*
X98952380Y-87147380D01*
X99190476Y-87147380D01*
X99285714Y-87099761D01*
X99333333Y-87052142D01*
X99380952Y-86956904D01*
X99380952Y-86861666D01*
X99333333Y-86766428D01*
X99285714Y-86718809D01*
X99190476Y-86671190D01*
X99000000Y-86623571D01*
X98904761Y-86575952D01*
X98857142Y-86528333D01*
X98809523Y-86433095D01*
X98809523Y-86337857D01*
X98857142Y-86242619D01*
X98904761Y-86195000D01*
X99000000Y-86147380D01*
X99238095Y-86147380D01*
X99380952Y-86195000D01*
X100380952Y-87052142D02*
X100333333Y-87099761D01*
X100190476Y-87147380D01*
X100095238Y-87147380D01*
X99952380Y-87099761D01*
X99857142Y-87004523D01*
X99809523Y-86909285D01*
X99761904Y-86718809D01*
X99761904Y-86575952D01*
X99809523Y-86385476D01*
X99857142Y-86290238D01*
X99952380Y-86195000D01*
X100095238Y-86147380D01*
X100190476Y-86147380D01*
X100333333Y-86195000D01*
X100380952Y-86242619D01*
X101285714Y-87147380D02*
X100809523Y-87147380D01*
X100809523Y-86147380D01*
X98785714Y-88709761D02*
X98928571Y-88757380D01*
X99166666Y-88757380D01*
X99261904Y-88709761D01*
X99309523Y-88662142D01*
X99357142Y-88566904D01*
X99357142Y-88471666D01*
X99309523Y-88376428D01*
X99261904Y-88328809D01*
X99166666Y-88281190D01*
X98976190Y-88233571D01*
X98880952Y-88185952D01*
X98833333Y-88138333D01*
X98785714Y-88043095D01*
X98785714Y-87947857D01*
X98833333Y-87852619D01*
X98880952Y-87805000D01*
X98976190Y-87757380D01*
X99214285Y-87757380D01*
X99357142Y-87805000D01*
X99785714Y-88757380D02*
X99785714Y-87757380D01*
X100023809Y-87757380D01*
X100166666Y-87805000D01*
X100261904Y-87900238D01*
X100309523Y-87995476D01*
X100357142Y-88185952D01*
X100357142Y-88328809D01*
X100309523Y-88519285D01*
X100261904Y-88614523D01*
X100166666Y-88709761D01*
X100023809Y-88757380D01*
X99785714Y-88757380D01*
X100738095Y-88471666D02*
X101214285Y-88471666D01*
X100642857Y-88757380D02*
X100976190Y-87757380D01*
X101309523Y-88757380D01*
X72392857Y-96442857D02*
X72392857Y-95242857D01*
X72392857Y-95700000D02*
X72507142Y-95642857D01*
X72735714Y-95642857D01*
X72850000Y-95700000D01*
X72907142Y-95757142D01*
X72964285Y-95871428D01*
X72964285Y-96214285D01*
X72907142Y-96328571D01*
X72850000Y-96385714D01*
X72735714Y-96442857D01*
X72507142Y-96442857D01*
X72392857Y-96385714D01*
X73364285Y-95642857D02*
X73650000Y-96442857D01*
X73935714Y-95642857D02*
X73650000Y-96442857D01*
X73535714Y-96728571D01*
X73478571Y-96785714D01*
X73364285Y-96842857D01*
X75650000Y-95242857D02*
X75650000Y-96100000D01*
X75592857Y-96271428D01*
X75478571Y-96385714D01*
X75307142Y-96442857D01*
X75192857Y-96442857D01*
X76735714Y-96442857D02*
X76735714Y-95814285D01*
X76678571Y-95700000D01*
X76564285Y-95642857D01*
X76335714Y-95642857D01*
X76221428Y-95700000D01*
X76735714Y-96385714D02*
X76621428Y-96442857D01*
X76335714Y-96442857D01*
X76221428Y-96385714D01*
X76164285Y-96271428D01*
X76164285Y-96157142D01*
X76221428Y-96042857D01*
X76335714Y-95985714D01*
X76621428Y-95985714D01*
X76735714Y-95928571D01*
X77307142Y-95642857D02*
X77307142Y-96442857D01*
X77307142Y-95757142D02*
X77364285Y-95700000D01*
X77478571Y-95642857D01*
X77650000Y-95642857D01*
X77764285Y-95700000D01*
X77821428Y-95814285D01*
X77821428Y-96442857D01*
X78907142Y-96442857D02*
X78907142Y-95814285D01*
X78850000Y-95700000D01*
X78735714Y-95642857D01*
X78507142Y-95642857D01*
X78392857Y-95700000D01*
X78907142Y-96385714D02*
X78792857Y-96442857D01*
X78507142Y-96442857D01*
X78392857Y-96385714D01*
X78335714Y-96271428D01*
X78335714Y-96157142D01*
X78392857Y-96042857D01*
X78507142Y-95985714D01*
X78792857Y-95985714D01*
X78907142Y-95928571D01*
X80392857Y-96442857D02*
X80392857Y-95242857D01*
X80792857Y-96100000D01*
X81192857Y-95242857D01*
X81192857Y-96442857D01*
X82278571Y-96442857D02*
X82278571Y-95814285D01*
X82221428Y-95700000D01*
X82107142Y-95642857D01*
X81878571Y-95642857D01*
X81764285Y-95700000D01*
X82278571Y-96385714D02*
X82164285Y-96442857D01*
X81878571Y-96442857D01*
X81764285Y-96385714D01*
X81707142Y-96271428D01*
X81707142Y-96157142D01*
X81764285Y-96042857D01*
X81878571Y-95985714D01*
X82164285Y-95985714D01*
X82278571Y-95928571D01*
X82850000Y-96442857D02*
X82850000Y-95642857D01*
X82850000Y-95871428D02*
X82907142Y-95757142D01*
X82964285Y-95700000D01*
X83078571Y-95642857D01*
X83192857Y-95642857D01*
X83592857Y-96442857D02*
X83592857Y-95642857D01*
X83592857Y-95242857D02*
X83535714Y-95300000D01*
X83592857Y-95357142D01*
X83650000Y-95300000D01*
X83592857Y-95242857D01*
X83592857Y-95357142D01*
X84621428Y-96385714D02*
X84507142Y-96442857D01*
X84278571Y-96442857D01*
X84164285Y-96385714D01*
X84107142Y-96271428D01*
X84107142Y-95814285D01*
X84164285Y-95700000D01*
X84278571Y-95642857D01*
X84507142Y-95642857D01*
X84621428Y-95700000D01*
X84678571Y-95814285D01*
X84678571Y-95928571D01*
X84107142Y-96042857D01*
X86050000Y-95357142D02*
X86107142Y-95300000D01*
X86221428Y-95242857D01*
X86507142Y-95242857D01*
X86621428Y-95300000D01*
X86678571Y-95357142D01*
X86735714Y-95471428D01*
X86735714Y-95585714D01*
X86678571Y-95757142D01*
X85992857Y-96442857D01*
X86735714Y-96442857D01*
X87478571Y-95242857D02*
X87592857Y-95242857D01*
X87707142Y-95300000D01*
X87764285Y-95357142D01*
X87821428Y-95471428D01*
X87878571Y-95700000D01*
X87878571Y-95985714D01*
X87821428Y-96214285D01*
X87764285Y-96328571D01*
X87707142Y-96385714D01*
X87592857Y-96442857D01*
X87478571Y-96442857D01*
X87364285Y-96385714D01*
X87307142Y-96328571D01*
X87250000Y-96214285D01*
X87192857Y-95985714D01*
X87192857Y-95700000D01*
X87250000Y-95471428D01*
X87307142Y-95357142D01*
X87364285Y-95300000D01*
X87478571Y-95242857D01*
X88335714Y-95357142D02*
X88392857Y-95300000D01*
X88507142Y-95242857D01*
X88792857Y-95242857D01*
X88907142Y-95300000D01*
X88964285Y-95357142D01*
X89021428Y-95471428D01*
X89021428Y-95585714D01*
X88964285Y-95757142D01*
X88278571Y-96442857D01*
X89021428Y-96442857D01*
X89478571Y-95357142D02*
X89535714Y-95300000D01*
X89650000Y-95242857D01*
X89935714Y-95242857D01*
X90050000Y-95300000D01*
X90107142Y-95357142D01*
X90164285Y-95471428D01*
X90164285Y-95585714D01*
X90107142Y-95757142D01*
X89421428Y-96442857D01*
X90164285Y-96442857D01*
D12*
X65607142Y-93357142D02*
X65607142Y-90357142D01*
X66750000Y-90357142D01*
X67035714Y-90500000D01*
X67178571Y-90642857D01*
X67321428Y-90928571D01*
X67321428Y-91357142D01*
X67178571Y-91642857D01*
X67035714Y-91785714D01*
X66750000Y-91928571D01*
X65607142Y-91928571D01*
X68607142Y-93357142D02*
X68607142Y-90357142D01*
X69892857Y-93357142D02*
X69892857Y-91785714D01*
X69750000Y-91500000D01*
X69464285Y-91357142D01*
X69035714Y-91357142D01*
X68750000Y-91500000D01*
X68607142Y-91642857D01*
X71321428Y-93357142D02*
X71321428Y-91357142D01*
X71321428Y-90357142D02*
X71178571Y-90500000D01*
X71321428Y-90642857D01*
X71464285Y-90500000D01*
X71321428Y-90357142D01*
X71321428Y-90642857D01*
X73178571Y-93357142D02*
X72892857Y-93214285D01*
X72750000Y-92928571D01*
X72750000Y-90357142D01*
X74321428Y-91357142D02*
X74321428Y-94357142D01*
X74321428Y-91500000D02*
X74607142Y-91357142D01*
X75178571Y-91357142D01*
X75464285Y-91500000D01*
X75607142Y-91642857D01*
X75750000Y-91928571D01*
X75750000Y-92785714D01*
X75607142Y-93071428D01*
X75464285Y-93214285D01*
X75178571Y-93357142D01*
X74607142Y-93357142D01*
X74321428Y-93214285D01*
X77035714Y-93357142D02*
X77035714Y-90357142D01*
X78321428Y-93357142D02*
X78321428Y-91785714D01*
X78178571Y-91500000D01*
X77892857Y-91357142D01*
X77464285Y-91357142D01*
X77178571Y-91500000D01*
X77035714Y-91642857D01*
X80178571Y-93357142D02*
X79892857Y-93214285D01*
X79750000Y-93071428D01*
X79607142Y-92785714D01*
X79607142Y-91928571D01*
X79750000Y-91642857D01*
X79892857Y-91500000D01*
X80178571Y-91357142D01*
X80607142Y-91357142D01*
X80892857Y-91500000D01*
X81035714Y-91642857D01*
X81178571Y-91928571D01*
X81178571Y-92785714D01*
X81035714Y-93071428D01*
X80892857Y-93214285D01*
X80607142Y-93357142D01*
X80178571Y-93357142D01*
X83750000Y-93214285D02*
X83464285Y-93357142D01*
X82892857Y-93357142D01*
X82607142Y-93214285D01*
X82464285Y-93071428D01*
X82321428Y-92785714D01*
X82321428Y-91928571D01*
X82464285Y-91642857D01*
X82607142Y-91500000D01*
X82892857Y-91357142D01*
X83464285Y-91357142D01*
X83750000Y-91500000D01*
X87750000Y-93357142D02*
X87464285Y-93214285D01*
X87321428Y-92928571D01*
X87321428Y-90357142D01*
X90178571Y-91357142D02*
X90178571Y-93357142D01*
X88892857Y-91357142D02*
X88892857Y-92928571D01*
X89035714Y-93214285D01*
X89321428Y-93357142D01*
X89750000Y-93357142D01*
X90035714Y-93214285D01*
X90178571Y-93071428D01*
X91607142Y-93357142D02*
X91607142Y-91357142D01*
X91607142Y-91642857D02*
X91750000Y-91500000D01*
X92035714Y-91357142D01*
X92464285Y-91357142D01*
X92750000Y-91500000D01*
X92892857Y-91785714D01*
X92892857Y-93357142D01*
X92892857Y-91785714D02*
X93035714Y-91500000D01*
X93321428Y-91357142D01*
X93750000Y-91357142D01*
X94035714Y-91500000D01*
X94178571Y-91785714D01*
X94178571Y-93357142D01*
X96892857Y-93357142D02*
X96892857Y-91785714D01*
X96750000Y-91500000D01*
X96464285Y-91357142D01*
X95892857Y-91357142D01*
X95607142Y-91500000D01*
X96892857Y-93214285D02*
X96607142Y-93357142D01*
X95892857Y-93357142D01*
X95607142Y-93214285D01*
X95464285Y-92928571D01*
X95464285Y-92642857D01*
X95607142Y-92357142D01*
X95892857Y-92214285D01*
X96607142Y-92214285D01*
X96892857Y-92071428D01*
D13*
X59992857Y-76178571D02*
X59935714Y-76150000D01*
X59878571Y-76092857D01*
X59792857Y-76007142D01*
X59735714Y-75978571D01*
X59678571Y-75978571D01*
X59707142Y-76121428D02*
X59650000Y-76092857D01*
X59592857Y-76035714D01*
X59564285Y-75921428D01*
X59564285Y-75721428D01*
X59592857Y-75607142D01*
X59650000Y-75550000D01*
X59707142Y-75521428D01*
X59821428Y-75521428D01*
X59878571Y-75550000D01*
X59935714Y-75607142D01*
X59964285Y-75721428D01*
X59964285Y-75921428D01*
X59935714Y-76035714D01*
X59878571Y-76092857D01*
X59821428Y-76121428D01*
X59707142Y-76121428D01*
X60164285Y-75521428D02*
X60535714Y-75521428D01*
X60335714Y-75750000D01*
X60421428Y-75750000D01*
X60478571Y-75778571D01*
X60507142Y-75807142D01*
X60535714Y-75864285D01*
X60535714Y-76007142D01*
X60507142Y-76064285D01*
X60478571Y-76092857D01*
X60421428Y-76121428D01*
X60250000Y-76121428D01*
X60192857Y-76092857D01*
X60164285Y-76064285D01*
X95071428Y-85600000D02*
X94785714Y-85800000D01*
X95071428Y-85942857D02*
X94471428Y-85942857D01*
X94471428Y-85714285D01*
X94500000Y-85657142D01*
X94528571Y-85628571D01*
X94585714Y-85600000D01*
X94671428Y-85600000D01*
X94728571Y-85628571D01*
X94757142Y-85657142D01*
X94785714Y-85714285D01*
X94785714Y-85942857D01*
X94528571Y-85371428D02*
X94500000Y-85342857D01*
X94471428Y-85285714D01*
X94471428Y-85142857D01*
X94500000Y-85085714D01*
X94528571Y-85057142D01*
X94585714Y-85028571D01*
X94642857Y-85028571D01*
X94728571Y-85057142D01*
X95071428Y-85400000D01*
X95071428Y-85028571D01*
X73400000Y-79764285D02*
X73371428Y-79792857D01*
X73285714Y-79821428D01*
X73228571Y-79821428D01*
X73142857Y-79792857D01*
X73085714Y-79735714D01*
X73057142Y-79678571D01*
X73028571Y-79564285D01*
X73028571Y-79478571D01*
X73057142Y-79364285D01*
X73085714Y-79307142D01*
X73142857Y-79250000D01*
X73228571Y-79221428D01*
X73285714Y-79221428D01*
X73371428Y-79250000D01*
X73400000Y-79278571D01*
X73971428Y-79821428D02*
X73628571Y-79821428D01*
X73800000Y-79821428D02*
X73800000Y-79221428D01*
X73742857Y-79307142D01*
X73685714Y-79364285D01*
X73628571Y-79392857D01*
X81142857Y-81971428D02*
X81142857Y-82457142D01*
X81171428Y-82514285D01*
X81200000Y-82542857D01*
X81257142Y-82571428D01*
X81371428Y-82571428D01*
X81428571Y-82542857D01*
X81457142Y-82514285D01*
X81485714Y-82457142D01*
X81485714Y-81971428D01*
X82085714Y-82571428D02*
X81742857Y-82571428D01*
X81914285Y-82571428D02*
X81914285Y-81971428D01*
X81857142Y-82057142D01*
X81800000Y-82114285D01*
X81742857Y-82142857D01*
X66842857Y-78858928D02*
X66842857Y-79344642D01*
X66871428Y-79401785D01*
X66900000Y-79430357D01*
X66957142Y-79458928D01*
X67071428Y-79458928D01*
X67128571Y-79430357D01*
X67157142Y-79401785D01*
X67185714Y-79344642D01*
X67185714Y-78858928D01*
X67414285Y-78858928D02*
X67785714Y-78858928D01*
X67585714Y-79087500D01*
X67671428Y-79087500D01*
X67728571Y-79116071D01*
X67757142Y-79144642D01*
X67785714Y-79201785D01*
X67785714Y-79344642D01*
X67757142Y-79401785D01*
X67728571Y-79430357D01*
X67671428Y-79458928D01*
X67500000Y-79458928D01*
X67442857Y-79430357D01*
X67414285Y-79401785D01*
X69750000Y-79071428D02*
X69550000Y-78785714D01*
X69407142Y-79071428D02*
X69407142Y-78471428D01*
X69635714Y-78471428D01*
X69692857Y-78500000D01*
X69721428Y-78528571D01*
X69750000Y-78585714D01*
X69750000Y-78671428D01*
X69721428Y-78728571D01*
X69692857Y-78757142D01*
X69635714Y-78785714D01*
X69407142Y-78785714D01*
X70264285Y-78671428D02*
X70264285Y-79071428D01*
X70121428Y-78442857D02*
X69978571Y-78871428D01*
X70350000Y-78871428D01*
X96321428Y-83650000D02*
X96035714Y-83850000D01*
X96321428Y-83992857D02*
X95721428Y-83992857D01*
X95721428Y-83764285D01*
X95750000Y-83707142D01*
X95778571Y-83678571D01*
X95835714Y-83650000D01*
X95921428Y-83650000D01*
X95978571Y-83678571D01*
X96007142Y-83707142D01*
X96035714Y-83764285D01*
X96035714Y-83992857D01*
X96321428Y-83078571D02*
X96321428Y-83421428D01*
X96321428Y-83250000D02*
X95721428Y-83250000D01*
X95807142Y-83307142D01*
X95864285Y-83364285D01*
X95892857Y-83421428D01*
X56607142Y-61271428D02*
X56607142Y-60671428D01*
X56750000Y-60671428D01*
X56835714Y-60700000D01*
X56892857Y-60757142D01*
X56921428Y-60814285D01*
X56950000Y-60928571D01*
X56950000Y-61014285D01*
X56921428Y-61128571D01*
X56892857Y-61185714D01*
X56835714Y-61242857D01*
X56750000Y-61271428D01*
X56607142Y-61271428D01*
X57178571Y-60728571D02*
X57207142Y-60700000D01*
X57264285Y-60671428D01*
X57407142Y-60671428D01*
X57464285Y-60700000D01*
X57492857Y-60728571D01*
X57521428Y-60785714D01*
X57521428Y-60842857D01*
X57492857Y-60928571D01*
X57150000Y-61271428D01*
X57521428Y-61271428D01*
X65100000Y-70114285D02*
X65071428Y-70142857D01*
X64985714Y-70171428D01*
X64928571Y-70171428D01*
X64842857Y-70142857D01*
X64785714Y-70085714D01*
X64757142Y-70028571D01*
X64728571Y-69914285D01*
X64728571Y-69828571D01*
X64757142Y-69714285D01*
X64785714Y-69657142D01*
X64842857Y-69600000D01*
X64928571Y-69571428D01*
X64985714Y-69571428D01*
X65071428Y-69600000D01*
X65100000Y-69628571D01*
X65614285Y-69771428D02*
X65614285Y-70171428D01*
X65471428Y-69542857D02*
X65328571Y-69971428D01*
X65700000Y-69971428D01*
X91057142Y-82771428D02*
X91057142Y-82171428D01*
X91200000Y-82171428D01*
X91285714Y-82200000D01*
X91342857Y-82257142D01*
X91371428Y-82314285D01*
X91400000Y-82428571D01*
X91400000Y-82514285D01*
X91371428Y-82628571D01*
X91342857Y-82685714D01*
X91285714Y-82742857D01*
X91200000Y-82771428D01*
X91057142Y-82771428D01*
X91971428Y-82771428D02*
X91628571Y-82771428D01*
X91800000Y-82771428D02*
X91800000Y-82171428D01*
X91742857Y-82257142D01*
X91685714Y-82314285D01*
X91628571Y-82342857D01*
X58864285Y-79921428D02*
X58664285Y-79635714D01*
X58521428Y-79921428D02*
X58521428Y-79321428D01*
X58750000Y-79321428D01*
X58807142Y-79350000D01*
X58835714Y-79378571D01*
X58864285Y-79435714D01*
X58864285Y-79521428D01*
X58835714Y-79578571D01*
X58807142Y-79607142D01*
X58750000Y-79635714D01*
X58521428Y-79635714D01*
X59435714Y-79921428D02*
X59092857Y-79921428D01*
X59264285Y-79921428D02*
X59264285Y-79321428D01*
X59207142Y-79407142D01*
X59150000Y-79464285D01*
X59092857Y-79492857D01*
X59721428Y-79921428D02*
X59835714Y-79921428D01*
X59892857Y-79892857D01*
X59921428Y-79864285D01*
X59978571Y-79778571D01*
X60007142Y-79664285D01*
X60007142Y-79435714D01*
X59978571Y-79378571D01*
X59950000Y-79350000D01*
X59892857Y-79321428D01*
X59778571Y-79321428D01*
X59721428Y-79350000D01*
X59692857Y-79378571D01*
X59664285Y-79435714D01*
X59664285Y-79578571D01*
X59692857Y-79635714D01*
X59721428Y-79664285D01*
X59778571Y-79692857D01*
X59892857Y-79692857D01*
X59950000Y-79664285D01*
X59978571Y-79635714D01*
X60007142Y-79578571D01*
X75300000Y-88514285D02*
X75271428Y-88542857D01*
X75185714Y-88571428D01*
X75128571Y-88571428D01*
X75042857Y-88542857D01*
X74985714Y-88485714D01*
X74957142Y-88428571D01*
X74928571Y-88314285D01*
X74928571Y-88228571D01*
X74957142Y-88114285D01*
X74985714Y-88057142D01*
X75042857Y-88000000D01*
X75128571Y-87971428D01*
X75185714Y-87971428D01*
X75271428Y-88000000D01*
X75300000Y-88028571D01*
X75842857Y-87971428D02*
X75557142Y-87971428D01*
X75528571Y-88257142D01*
X75557142Y-88228571D01*
X75614285Y-88200000D01*
X75757142Y-88200000D01*
X75814285Y-88228571D01*
X75842857Y-88257142D01*
X75871428Y-88314285D01*
X75871428Y-88457142D01*
X75842857Y-88514285D01*
X75814285Y-88542857D01*
X75757142Y-88571428D01*
X75614285Y-88571428D01*
X75557142Y-88542857D01*
X75528571Y-88514285D01*
X74200000Y-88514285D02*
X74171428Y-88542857D01*
X74085714Y-88571428D01*
X74028571Y-88571428D01*
X73942857Y-88542857D01*
X73885714Y-88485714D01*
X73857142Y-88428571D01*
X73828571Y-88314285D01*
X73828571Y-88228571D01*
X73857142Y-88114285D01*
X73885714Y-88057142D01*
X73942857Y-88000000D01*
X74028571Y-87971428D01*
X74085714Y-87971428D01*
X74171428Y-88000000D01*
X74200000Y-88028571D01*
X74428571Y-88028571D02*
X74457142Y-88000000D01*
X74514285Y-87971428D01*
X74657142Y-87971428D01*
X74714285Y-88000000D01*
X74742857Y-88028571D01*
X74771428Y-88085714D01*
X74771428Y-88142857D01*
X74742857Y-88228571D01*
X74400000Y-88571428D01*
X74771428Y-88571428D01*
X65850000Y-55271428D02*
X65650000Y-54985714D01*
X65507142Y-55271428D02*
X65507142Y-54671428D01*
X65735714Y-54671428D01*
X65792857Y-54700000D01*
X65821428Y-54728571D01*
X65850000Y-54785714D01*
X65850000Y-54871428D01*
X65821428Y-54928571D01*
X65792857Y-54957142D01*
X65735714Y-54985714D01*
X65507142Y-54985714D01*
X66050000Y-54671428D02*
X66421428Y-54671428D01*
X66221428Y-54900000D01*
X66307142Y-54900000D01*
X66364285Y-54928571D01*
X66392857Y-54957142D01*
X66421428Y-55014285D01*
X66421428Y-55157142D01*
X66392857Y-55214285D01*
X66364285Y-55242857D01*
X66307142Y-55271428D01*
X66135714Y-55271428D01*
X66078571Y-55242857D01*
X66050000Y-55214285D01*
X63992857Y-80828571D02*
X63935714Y-80800000D01*
X63878571Y-80742857D01*
X63792857Y-80657142D01*
X63735714Y-80628571D01*
X63678571Y-80628571D01*
X63707142Y-80771428D02*
X63650000Y-80742857D01*
X63592857Y-80685714D01*
X63564285Y-80571428D01*
X63564285Y-80371428D01*
X63592857Y-80257142D01*
X63650000Y-80200000D01*
X63707142Y-80171428D01*
X63821428Y-80171428D01*
X63878571Y-80200000D01*
X63935714Y-80257142D01*
X63964285Y-80371428D01*
X63964285Y-80571428D01*
X63935714Y-80685714D01*
X63878571Y-80742857D01*
X63821428Y-80771428D01*
X63707142Y-80771428D01*
X64192857Y-80228571D02*
X64221428Y-80200000D01*
X64278571Y-80171428D01*
X64421428Y-80171428D01*
X64478571Y-80200000D01*
X64507142Y-80228571D01*
X64535714Y-80285714D01*
X64535714Y-80342857D01*
X64507142Y-80428571D01*
X64164285Y-80771428D01*
X64535714Y-80771428D01*
X60589285Y-84146428D02*
X60389285Y-83860714D01*
X60246428Y-84146428D02*
X60246428Y-83546428D01*
X60475000Y-83546428D01*
X60532142Y-83575000D01*
X60560714Y-83603571D01*
X60589285Y-83660714D01*
X60589285Y-83746428D01*
X60560714Y-83803571D01*
X60532142Y-83832142D01*
X60475000Y-83860714D01*
X60246428Y-83860714D01*
X61160714Y-84146428D02*
X60817857Y-84146428D01*
X60989285Y-84146428D02*
X60989285Y-83546428D01*
X60932142Y-83632142D01*
X60875000Y-83689285D01*
X60817857Y-83717857D01*
X61675000Y-83546428D02*
X61560714Y-83546428D01*
X61503571Y-83575000D01*
X61475000Y-83603571D01*
X61417857Y-83689285D01*
X61389285Y-83803571D01*
X61389285Y-84032142D01*
X61417857Y-84089285D01*
X61446428Y-84117857D01*
X61503571Y-84146428D01*
X61617857Y-84146428D01*
X61675000Y-84117857D01*
X61703571Y-84089285D01*
X61732142Y-84032142D01*
X61732142Y-83889285D01*
X61703571Y-83832142D01*
X61675000Y-83803571D01*
X61617857Y-83775000D01*
X61503571Y-83775000D01*
X61446428Y-83803571D01*
X61417857Y-83832142D01*
X61389285Y-83889285D01*
X66400000Y-73064285D02*
X66371428Y-73092857D01*
X66285714Y-73121428D01*
X66228571Y-73121428D01*
X66142857Y-73092857D01*
X66085714Y-73035714D01*
X66057142Y-72978571D01*
X66028571Y-72864285D01*
X66028571Y-72778571D01*
X66057142Y-72664285D01*
X66085714Y-72607142D01*
X66142857Y-72550000D01*
X66228571Y-72521428D01*
X66285714Y-72521428D01*
X66371428Y-72550000D01*
X66400000Y-72578571D01*
X66600000Y-72521428D02*
X67000000Y-72521428D01*
X66742857Y-73121428D01*
X62542857Y-77078571D02*
X62485714Y-77050000D01*
X62428571Y-76992857D01*
X62342857Y-76907142D01*
X62285714Y-76878571D01*
X62228571Y-76878571D01*
X62257142Y-77021428D02*
X62200000Y-76992857D01*
X62142857Y-76935714D01*
X62114285Y-76821428D01*
X62114285Y-76621428D01*
X62142857Y-76507142D01*
X62200000Y-76450000D01*
X62257142Y-76421428D01*
X62371428Y-76421428D01*
X62428571Y-76450000D01*
X62485714Y-76507142D01*
X62514285Y-76621428D01*
X62514285Y-76821428D01*
X62485714Y-76935714D01*
X62428571Y-76992857D01*
X62371428Y-77021428D01*
X62257142Y-77021428D01*
X63028571Y-76621428D02*
X63028571Y-77021428D01*
X62885714Y-76392857D02*
X62742857Y-76821428D01*
X63114285Y-76821428D01*
X76400000Y-88514285D02*
X76371428Y-88542857D01*
X76285714Y-88571428D01*
X76228571Y-88571428D01*
X76142857Y-88542857D01*
X76085714Y-88485714D01*
X76057142Y-88428571D01*
X76028571Y-88314285D01*
X76028571Y-88228571D01*
X76057142Y-88114285D01*
X76085714Y-88057142D01*
X76142857Y-88000000D01*
X76228571Y-87971428D01*
X76285714Y-87971428D01*
X76371428Y-88000000D01*
X76400000Y-88028571D01*
X76914285Y-87971428D02*
X76800000Y-87971428D01*
X76742857Y-88000000D01*
X76714285Y-88028571D01*
X76657142Y-88114285D01*
X76628571Y-88228571D01*
X76628571Y-88457142D01*
X76657142Y-88514285D01*
X76685714Y-88542857D01*
X76742857Y-88571428D01*
X76857142Y-88571428D01*
X76914285Y-88542857D01*
X76942857Y-88514285D01*
X76971428Y-88457142D01*
X76971428Y-88314285D01*
X76942857Y-88257142D01*
X76914285Y-88228571D01*
X76857142Y-88200000D01*
X76742857Y-88200000D01*
X76685714Y-88228571D01*
X76657142Y-88257142D01*
X76628571Y-88314285D01*
X70850000Y-79071428D02*
X70650000Y-78785714D01*
X70507142Y-79071428D02*
X70507142Y-78471428D01*
X70735714Y-78471428D01*
X70792857Y-78500000D01*
X70821428Y-78528571D01*
X70850000Y-78585714D01*
X70850000Y-78671428D01*
X70821428Y-78728571D01*
X70792857Y-78757142D01*
X70735714Y-78785714D01*
X70507142Y-78785714D01*
X71364285Y-78471428D02*
X71250000Y-78471428D01*
X71192857Y-78500000D01*
X71164285Y-78528571D01*
X71107142Y-78614285D01*
X71078571Y-78728571D01*
X71078571Y-78957142D01*
X71107142Y-79014285D01*
X71135714Y-79042857D01*
X71192857Y-79071428D01*
X71307142Y-79071428D01*
X71364285Y-79042857D01*
X71392857Y-79014285D01*
X71421428Y-78957142D01*
X71421428Y-78814285D01*
X71392857Y-78757142D01*
X71364285Y-78728571D01*
X71307142Y-78700000D01*
X71192857Y-78700000D01*
X71135714Y-78728571D01*
X71107142Y-78757142D01*
X71078571Y-78814285D01*
X59789285Y-85696428D02*
X59589285Y-85410714D01*
X59446428Y-85696428D02*
X59446428Y-85096428D01*
X59675000Y-85096428D01*
X59732142Y-85125000D01*
X59760714Y-85153571D01*
X59789285Y-85210714D01*
X59789285Y-85296428D01*
X59760714Y-85353571D01*
X59732142Y-85382142D01*
X59675000Y-85410714D01*
X59446428Y-85410714D01*
X60360714Y-85696428D02*
X60017857Y-85696428D01*
X60189285Y-85696428D02*
X60189285Y-85096428D01*
X60132142Y-85182142D01*
X60075000Y-85239285D01*
X60017857Y-85267857D01*
X60875000Y-85296428D02*
X60875000Y-85696428D01*
X60732142Y-85067857D02*
X60589285Y-85496428D01*
X60960714Y-85496428D01*
X59789285Y-84946428D02*
X59589285Y-84660714D01*
X59446428Y-84946428D02*
X59446428Y-84346428D01*
X59675000Y-84346428D01*
X59732142Y-84375000D01*
X59760714Y-84403571D01*
X59789285Y-84460714D01*
X59789285Y-84546428D01*
X59760714Y-84603571D01*
X59732142Y-84632142D01*
X59675000Y-84660714D01*
X59446428Y-84660714D01*
X60360714Y-84946428D02*
X60017857Y-84946428D01*
X60189285Y-84946428D02*
X60189285Y-84346428D01*
X60132142Y-84432142D01*
X60075000Y-84489285D01*
X60017857Y-84517857D01*
X60560714Y-84346428D02*
X60932142Y-84346428D01*
X60732142Y-84575000D01*
X60817857Y-84575000D01*
X60875000Y-84603571D01*
X60903571Y-84632142D01*
X60932142Y-84689285D01*
X60932142Y-84832142D01*
X60903571Y-84889285D01*
X60875000Y-84917857D01*
X60817857Y-84946428D01*
X60646428Y-84946428D01*
X60589285Y-84917857D01*
X60560714Y-84889285D01*
X79700000Y-78214285D02*
X79671428Y-78242857D01*
X79585714Y-78271428D01*
X79528571Y-78271428D01*
X79442857Y-78242857D01*
X79385714Y-78185714D01*
X79357142Y-78128571D01*
X79328571Y-78014285D01*
X79328571Y-77928571D01*
X79357142Y-77814285D01*
X79385714Y-77757142D01*
X79442857Y-77700000D01*
X79528571Y-77671428D01*
X79585714Y-77671428D01*
X79671428Y-77700000D01*
X79700000Y-77728571D01*
X79985714Y-78271428D02*
X80100000Y-78271428D01*
X80157142Y-78242857D01*
X80185714Y-78214285D01*
X80242857Y-78128571D01*
X80271428Y-78014285D01*
X80271428Y-77785714D01*
X80242857Y-77728571D01*
X80214285Y-77700000D01*
X80157142Y-77671428D01*
X80042857Y-77671428D01*
X79985714Y-77700000D01*
X79957142Y-77728571D01*
X79928571Y-77785714D01*
X79928571Y-77928571D01*
X79957142Y-77985714D01*
X79985714Y-78014285D01*
X80042857Y-78042857D01*
X80157142Y-78042857D01*
X80214285Y-78014285D01*
X80242857Y-77985714D01*
X80271428Y-77928571D01*
X64000000Y-73076785D02*
X63971428Y-73105357D01*
X63885714Y-73133928D01*
X63828571Y-73133928D01*
X63742857Y-73105357D01*
X63685714Y-73048214D01*
X63657142Y-72991071D01*
X63628571Y-72876785D01*
X63628571Y-72791071D01*
X63657142Y-72676785D01*
X63685714Y-72619642D01*
X63742857Y-72562500D01*
X63828571Y-72533928D01*
X63885714Y-72533928D01*
X63971428Y-72562500D01*
X64000000Y-72591071D01*
X64342857Y-72791071D02*
X64285714Y-72762500D01*
X64257142Y-72733928D01*
X64228571Y-72676785D01*
X64228571Y-72648214D01*
X64257142Y-72591071D01*
X64285714Y-72562500D01*
X64342857Y-72533928D01*
X64457142Y-72533928D01*
X64514285Y-72562500D01*
X64542857Y-72591071D01*
X64571428Y-72648214D01*
X64571428Y-72676785D01*
X64542857Y-72733928D01*
X64514285Y-72762500D01*
X64457142Y-72791071D01*
X64342857Y-72791071D01*
X64285714Y-72819642D01*
X64257142Y-72848214D01*
X64228571Y-72905357D01*
X64228571Y-73019642D01*
X64257142Y-73076785D01*
X64285714Y-73105357D01*
X64342857Y-73133928D01*
X64457142Y-73133928D01*
X64514285Y-73105357D01*
X64542857Y-73076785D01*
X64571428Y-73019642D01*
X64571428Y-72905357D01*
X64542857Y-72848214D01*
X64514285Y-72819642D01*
X64457142Y-72791071D01*
X62389285Y-84146428D02*
X62189285Y-83860714D01*
X62046428Y-84146428D02*
X62046428Y-83546428D01*
X62275000Y-83546428D01*
X62332142Y-83575000D01*
X62360714Y-83603571D01*
X62389285Y-83660714D01*
X62389285Y-83746428D01*
X62360714Y-83803571D01*
X62332142Y-83832142D01*
X62275000Y-83860714D01*
X62046428Y-83860714D01*
X62960714Y-84146428D02*
X62617857Y-84146428D01*
X62789285Y-84146428D02*
X62789285Y-83546428D01*
X62732142Y-83632142D01*
X62675000Y-83689285D01*
X62617857Y-83717857D01*
X63303571Y-83803571D02*
X63246428Y-83775000D01*
X63217857Y-83746428D01*
X63189285Y-83689285D01*
X63189285Y-83660714D01*
X63217857Y-83603571D01*
X63246428Y-83575000D01*
X63303571Y-83546428D01*
X63417857Y-83546428D01*
X63475000Y-83575000D01*
X63503571Y-83603571D01*
X63532142Y-83660714D01*
X63532142Y-83689285D01*
X63503571Y-83746428D01*
X63475000Y-83775000D01*
X63417857Y-83803571D01*
X63303571Y-83803571D01*
X63246428Y-83832142D01*
X63217857Y-83860714D01*
X63189285Y-83917857D01*
X63189285Y-84032142D01*
X63217857Y-84089285D01*
X63246428Y-84117857D01*
X63303571Y-84146428D01*
X63417857Y-84146428D01*
X63475000Y-84117857D01*
X63503571Y-84089285D01*
X63532142Y-84032142D01*
X63532142Y-83917857D01*
X63503571Y-83860714D01*
X63475000Y-83832142D01*
X63417857Y-83803571D01*
X73050000Y-79071428D02*
X72850000Y-78785714D01*
X72707142Y-79071428D02*
X72707142Y-78471428D01*
X72935714Y-78471428D01*
X72992857Y-78500000D01*
X73021428Y-78528571D01*
X73050000Y-78585714D01*
X73050000Y-78671428D01*
X73021428Y-78728571D01*
X72992857Y-78757142D01*
X72935714Y-78785714D01*
X72707142Y-78785714D01*
X73392857Y-78728571D02*
X73335714Y-78700000D01*
X73307142Y-78671428D01*
X73278571Y-78614285D01*
X73278571Y-78585714D01*
X73307142Y-78528571D01*
X73335714Y-78500000D01*
X73392857Y-78471428D01*
X73507142Y-78471428D01*
X73564285Y-78500000D01*
X73592857Y-78528571D01*
X73621428Y-78585714D01*
X73621428Y-78614285D01*
X73592857Y-78671428D01*
X73564285Y-78700000D01*
X73507142Y-78728571D01*
X73392857Y-78728571D01*
X73335714Y-78757142D01*
X73307142Y-78785714D01*
X73278571Y-78842857D01*
X73278571Y-78957142D01*
X73307142Y-79014285D01*
X73335714Y-79042857D01*
X73392857Y-79071428D01*
X73507142Y-79071428D01*
X73564285Y-79042857D01*
X73592857Y-79014285D01*
X73621428Y-78957142D01*
X73621428Y-78842857D01*
X73592857Y-78785714D01*
X73564285Y-78757142D01*
X73507142Y-78728571D01*
X71950000Y-79071428D02*
X71750000Y-78785714D01*
X71607142Y-79071428D02*
X71607142Y-78471428D01*
X71835714Y-78471428D01*
X71892857Y-78500000D01*
X71921428Y-78528571D01*
X71950000Y-78585714D01*
X71950000Y-78671428D01*
X71921428Y-78728571D01*
X71892857Y-78757142D01*
X71835714Y-78785714D01*
X71607142Y-78785714D01*
X72150000Y-78471428D02*
X72550000Y-78471428D01*
X72292857Y-79071428D01*
X79714285Y-77214285D02*
X79685714Y-77242857D01*
X79600000Y-77271428D01*
X79542857Y-77271428D01*
X79457142Y-77242857D01*
X79400000Y-77185714D01*
X79371428Y-77128571D01*
X79342857Y-77014285D01*
X79342857Y-76928571D01*
X79371428Y-76814285D01*
X79400000Y-76757142D01*
X79457142Y-76700000D01*
X79542857Y-76671428D01*
X79600000Y-76671428D01*
X79685714Y-76700000D01*
X79714285Y-76728571D01*
X80285714Y-77271428D02*
X79942857Y-77271428D01*
X80114285Y-77271428D02*
X80114285Y-76671428D01*
X80057142Y-76757142D01*
X80000000Y-76814285D01*
X79942857Y-76842857D01*
X80657142Y-76671428D02*
X80714285Y-76671428D01*
X80771428Y-76700000D01*
X80800000Y-76728571D01*
X80828571Y-76785714D01*
X80857142Y-76900000D01*
X80857142Y-77042857D01*
X80828571Y-77157142D01*
X80800000Y-77214285D01*
X80771428Y-77242857D01*
X80714285Y-77271428D01*
X80657142Y-77271428D01*
X80600000Y-77242857D01*
X80571428Y-77214285D01*
X80542857Y-77157142D01*
X80514285Y-77042857D01*
X80514285Y-76900000D01*
X80542857Y-76785714D01*
X80571428Y-76728571D01*
X80600000Y-76700000D01*
X80657142Y-76671428D01*
X72300000Y-79821428D02*
X72100000Y-79535714D01*
X71957142Y-79821428D02*
X71957142Y-79221428D01*
X72185714Y-79221428D01*
X72242857Y-79250000D01*
X72271428Y-79278571D01*
X72300000Y-79335714D01*
X72300000Y-79421428D01*
X72271428Y-79478571D01*
X72242857Y-79507142D01*
X72185714Y-79535714D01*
X71957142Y-79535714D01*
X72842857Y-79221428D02*
X72557142Y-79221428D01*
X72528571Y-79507142D01*
X72557142Y-79478571D01*
X72614285Y-79450000D01*
X72757142Y-79450000D01*
X72814285Y-79478571D01*
X72842857Y-79507142D01*
X72871428Y-79564285D01*
X72871428Y-79707142D01*
X72842857Y-79764285D01*
X72814285Y-79792857D01*
X72757142Y-79821428D01*
X72614285Y-79821428D01*
X72557142Y-79792857D01*
X72528571Y-79764285D01*
X66239285Y-70364285D02*
X66210714Y-70392857D01*
X66125000Y-70421428D01*
X66067857Y-70421428D01*
X65982142Y-70392857D01*
X65925000Y-70335714D01*
X65896428Y-70278571D01*
X65867857Y-70164285D01*
X65867857Y-70078571D01*
X65896428Y-69964285D01*
X65925000Y-69907142D01*
X65982142Y-69850000D01*
X66067857Y-69821428D01*
X66125000Y-69821428D01*
X66210714Y-69850000D01*
X66239285Y-69878571D01*
X66810714Y-70421428D02*
X66467857Y-70421428D01*
X66639285Y-70421428D02*
X66639285Y-69821428D01*
X66582142Y-69907142D01*
X66525000Y-69964285D01*
X66467857Y-69992857D01*
X67382142Y-70421428D02*
X67039285Y-70421428D01*
X67210714Y-70421428D02*
X67210714Y-69821428D01*
X67153571Y-69907142D01*
X67096428Y-69964285D01*
X67039285Y-69992857D01*
X77500000Y-88514285D02*
X77471428Y-88542857D01*
X77385714Y-88571428D01*
X77328571Y-88571428D01*
X77242857Y-88542857D01*
X77185714Y-88485714D01*
X77157142Y-88428571D01*
X77128571Y-88314285D01*
X77128571Y-88228571D01*
X77157142Y-88114285D01*
X77185714Y-88057142D01*
X77242857Y-88000000D01*
X77328571Y-87971428D01*
X77385714Y-87971428D01*
X77471428Y-88000000D01*
X77500000Y-88028571D01*
X77700000Y-87971428D02*
X78071428Y-87971428D01*
X77871428Y-88200000D01*
X77957142Y-88200000D01*
X78014285Y-88228571D01*
X78042857Y-88257142D01*
X78071428Y-88314285D01*
X78071428Y-88457142D01*
X78042857Y-88514285D01*
X78014285Y-88542857D01*
X77957142Y-88571428D01*
X77785714Y-88571428D01*
X77728571Y-88542857D01*
X77700000Y-88514285D01*
D10*
X56240000Y-76750000D02*
X56240000Y-77400000D01*
X56240000Y-76750000D02*
X56240000Y-76100000D01*
X59360000Y-76750000D02*
X59360000Y-75075000D01*
X59360000Y-76750000D02*
X59360000Y-77400000D01*
X97865000Y-59380000D02*
X91445000Y-59380000D01*
X97865000Y-75500000D02*
X90580000Y-75500000D01*
X68120000Y-75620000D02*
X68120000Y-74620000D01*
X97865000Y-59380000D02*
X97865000Y-75500000D01*
X68900000Y-75620000D02*
X68120000Y-75620000D01*
X68900000Y-59380000D02*
X68120000Y-59380000D01*
X68120000Y-59380000D02*
X68120000Y-60380000D01*
X94750000Y-84650000D02*
X94750000Y-84350000D01*
X76400000Y-77500000D02*
X76100000Y-77500000D01*
X80885000Y-82250000D02*
X80885000Y-78650000D01*
X80885000Y-82250000D02*
X80885000Y-84450000D01*
X74115000Y-82250000D02*
X74115000Y-80050000D01*
X74115000Y-82250000D02*
X74115000Y-84450000D01*
X66330000Y-68405000D02*
X65000000Y-68405000D01*
X63670000Y-65805000D02*
X63670000Y-55585000D01*
X66330000Y-65805000D02*
X63670000Y-65805000D01*
X66330000Y-55585000D02*
X63670000Y-55585000D01*
X66330000Y-67075000D02*
X66330000Y-68405000D01*
X66330000Y-65805000D02*
X66330000Y-55585000D01*
D14*
X81986100Y-83026100D02*
X83167200Y-81845000D01*
X87853500Y-81845000D02*
X83167200Y-81845000D01*
X87853500Y-85655000D02*
X83167200Y-85655000D01*
X81986100Y-84473900D02*
X83167200Y-85655000D01*
X88806000Y-82797500D02*
X88806000Y-84702500D01*
X87853500Y-85655000D02*
G75*
G03*
X88806000Y-84702500I0J952500D01*
G01*
X88806000Y-82797500D02*
G75*
G03*
X87853500Y-81845000I-952500J0D01*
G01*
X81986100Y-83026100D02*
G75*
G03*
X81986100Y-84473900I723901J-723900D01*
G01*
D10*
X64650000Y-78660000D02*
X63340000Y-78660000D01*
X67830000Y-74800000D02*
X67830000Y-75940000D01*
X68060000Y-78660000D02*
X66750000Y-78660000D01*
X68060000Y-75940000D02*
X68060000Y-78660000D01*
X63340000Y-78660000D02*
X63340000Y-75940000D01*
X68060000Y-75940000D02*
X67830000Y-75940000D01*
X63340000Y-75940000D02*
X63570000Y-75940000D01*
X70150000Y-77500000D02*
X69850000Y-77500000D01*
X94750000Y-83350000D02*
X94750000Y-83650000D01*
X57800000Y-60000000D02*
X61650000Y-60000000D01*
X57800000Y-62000000D02*
X61650000Y-62000000D01*
X57800000Y-60000000D02*
X57800000Y-62000000D01*
X64900000Y-71500000D02*
X65600000Y-71500000D01*
X93700000Y-85000000D02*
X89850000Y-85000000D01*
X93700000Y-85000000D02*
X93700000Y-83000000D01*
X93700000Y-83000000D02*
X89850000Y-83000000D01*
X80200000Y-56570000D02*
X80200000Y-55430000D01*
X80200000Y-54300000D02*
X75800000Y-54300000D01*
X75800000Y-55430000D02*
X75800000Y-56570000D01*
X75800000Y-54300000D02*
X75800000Y-54420000D01*
X80200000Y-54420000D02*
X80200000Y-54300000D01*
X75800000Y-57580000D02*
X75800000Y-57700000D01*
X75800000Y-57700000D02*
X80200000Y-57700000D01*
X80200000Y-57700000D02*
X80200000Y-57580000D01*
X59950000Y-78300000D02*
X59650000Y-78300000D01*
X75350000Y-87000000D02*
X75650000Y-87000000D01*
X74350000Y-87000000D02*
X74650000Y-87000000D01*
X64500000Y-55150000D02*
X64500000Y-54850000D01*
X60190000Y-80500000D02*
X60190000Y-79850000D01*
X63310000Y-80500000D02*
X63310000Y-81150000D01*
X63310000Y-80500000D02*
X63310000Y-78825000D01*
X60190000Y-80500000D02*
X60190000Y-81150000D01*
D14*
X73603500Y-57905000D02*
X68917200Y-57905000D01*
X67736100Y-56723900D02*
X68917200Y-57905000D01*
X73603500Y-54095000D02*
X68917200Y-54095000D01*
X67736100Y-55276100D02*
X68917200Y-54095000D01*
X74556000Y-55047500D02*
X74556000Y-56952500D01*
X73603500Y-57905000D02*
G75*
G03*
X74556000Y-56952500I0J952500D01*
G01*
X67736100Y-55276100D02*
G75*
G03*
X67736100Y-56723900I723901J-723900D01*
G01*
X74556000Y-55047500D02*
G75*
G03*
X73603500Y-54095000I-952500J0D01*
G01*
D10*
X62137500Y-74690000D02*
X62137500Y-62310000D01*
X49917500Y-72040000D02*
X51417500Y-71790000D01*
X51417500Y-70290000D02*
X49917500Y-70040000D01*
X62937500Y-65660000D02*
X62937500Y-66260000D01*
X62937500Y-66260000D02*
X62337500Y-65960000D01*
X53217500Y-74690000D02*
X51417500Y-74690000D01*
X49917500Y-74690000D02*
X62137500Y-74690000D01*
X51417500Y-66710000D02*
X51417500Y-65210000D01*
X49917500Y-70040000D02*
X49917500Y-72040000D01*
X51417500Y-74690000D02*
X51417500Y-62310000D01*
X53217500Y-62310000D02*
X53217500Y-74690000D01*
X49917500Y-62310000D02*
X49917500Y-74690000D01*
X51417500Y-71790000D02*
X51417500Y-70290000D01*
X62137500Y-62310000D02*
X49917500Y-62310000D01*
X51417500Y-65210000D02*
X49917500Y-64960000D01*
X49917500Y-64960000D02*
X49917500Y-66960000D01*
X51417500Y-62310000D02*
X53217500Y-62310000D01*
X49917500Y-66960000D02*
X51417500Y-66710000D01*
X62337500Y-65960000D02*
X62937500Y-65660000D01*
X80610000Y-86170000D02*
X80610000Y-88830000D01*
X88290000Y-88830000D02*
X80610000Y-88830000D01*
X88290000Y-86170000D02*
X88290000Y-88830000D01*
X90890000Y-87500000D02*
X90890000Y-88830000D01*
X88290000Y-86170000D02*
X80610000Y-86170000D01*
X90890000Y-88830000D02*
X89560000Y-88830000D01*
X61000000Y-83150000D02*
X61000000Y-82850000D01*
X66500000Y-73450000D02*
X66500000Y-74150000D01*
X94500000Y-88830000D02*
X91900000Y-88830000D01*
X91900000Y-86170000D02*
X91900000Y-88830000D01*
X94500000Y-86170000D02*
X94500000Y-88830000D01*
X95770000Y-86170000D02*
X97100000Y-86170000D01*
X94500000Y-86170000D02*
X91900000Y-86170000D01*
X97100000Y-86170000D02*
X97100000Y-87500000D01*
X61400000Y-78310000D02*
X60750000Y-78310000D01*
X61400000Y-75190000D02*
X62050000Y-75190000D01*
X61400000Y-78310000D02*
X63075000Y-78310000D01*
X61400000Y-75190000D02*
X60750000Y-75190000D01*
X76350000Y-87000000D02*
X76650000Y-87000000D01*
X71150000Y-77530000D02*
X70850000Y-77530000D01*
X59050000Y-84700000D02*
X58750000Y-84700000D01*
X58750000Y-82400000D02*
X59050000Y-82400000D01*
X78000000Y-77850000D02*
X78000000Y-78150000D01*
X64100000Y-74150000D02*
X64100000Y-73450000D01*
X62750000Y-83150000D02*
X62750000Y-82850000D01*
X73150000Y-77500000D02*
X72850000Y-77500000D01*
X72150000Y-77500000D02*
X71850000Y-77500000D01*
X78000000Y-76650000D02*
X78000000Y-77350000D01*
X74800000Y-77350000D02*
X74800000Y-77650000D01*
X112582500Y-68920000D02*
X111082500Y-69170000D01*
X100362500Y-83730000D02*
X112582500Y-83730000D01*
X111082500Y-70670000D02*
X112582500Y-70920000D01*
X112582500Y-83730000D02*
X112582500Y-66270000D01*
X109282500Y-66270000D02*
X111082500Y-66270000D01*
X111082500Y-79330000D02*
X111082500Y-80830000D01*
X112582500Y-79080000D02*
X111082500Y-79330000D01*
X112582500Y-81080000D02*
X112582500Y-79080000D01*
X112582500Y-70920000D02*
X112582500Y-68920000D01*
X111082500Y-66270000D02*
X111082500Y-83730000D01*
X111082500Y-83730000D02*
X109282500Y-83730000D01*
X112582500Y-66270000D02*
X100362500Y-66270000D01*
X111082500Y-75750000D02*
X112582500Y-76000000D01*
X99562500Y-80380000D02*
X99562500Y-79780000D01*
X109282500Y-83730000D02*
X109282500Y-66270000D01*
X112582500Y-74000000D02*
X111082500Y-74250000D01*
X100162500Y-80080000D02*
X99562500Y-80380000D01*
X111082500Y-80830000D02*
X112582500Y-81080000D01*
X111082500Y-74250000D02*
X111082500Y-75750000D01*
X111082500Y-69170000D02*
X111082500Y-70670000D01*
X112582500Y-76000000D02*
X112582500Y-74000000D01*
X99562500Y-79780000D02*
X100162500Y-80080000D01*
X100362500Y-66270000D02*
X100362500Y-83730000D01*
X66350000Y-71500000D02*
X66650000Y-71500000D01*
D11*
X53500000Y-88000000D02*
X55500000Y-88000000D01*
X58000000Y-87500000D02*
X58000000Y-88000000D01*
X55500000Y-79000000D02*
X53500000Y-79000000D01*
X58000000Y-79000000D02*
X58000000Y-79500000D01*
D10*
X77350000Y-87000000D02*
X77650000Y-87000000D01*
D15*
X87790000Y-84766000D03*
D16*
X82710000Y-83750000D03*
D15*
X87790000Y-82734000D03*
X73540000Y-54984000D03*
D16*
X68460000Y-56000000D03*
D15*
X73540000Y-57016000D03*
M02*
