G04 #@! TF.GenerationSoftware,KiCad,Pcbnew,6.0.4-6f826c9f35~116~ubuntu20.04.1*
G04 #@! TF.CreationDate,2022-03-24T16:15:20+01:00*
G04 #@! TF.ProjectId,philphoc-luma,7068696c-7068-46f6-932d-6c756d612e6b,rev?*
G04 #@! TF.SameCoordinates,Original*
G04 #@! TF.FileFunction,Soldermask,Top*
G04 #@! TF.FilePolarity,Negative*
%FSLAX46Y46*%
G04 Gerber Fmt 4.6, Leading zero omitted, Abs format (unit mm)*
G04 Created by KiCad (PCBNEW 6.0.4-6f826c9f35~116~ubuntu20.04.1) date 2022-03-24 16:15:20*
%MOMM*%
%LPD*%
G01*
G04 APERTURE LIST*
G04 Aperture macros list*
%AMRoundRect*
0 Rectangle with rounded corners*
0 $1 Rounding radius*
0 $2 $3 $4 $5 $6 $7 $8 $9 X,Y pos of 4 corners*
0 Add a 4 corners polygon primitive as box body*
4,1,4,$2,$3,$4,$5,$6,$7,$8,$9,$2,$3,0*
0 Add four circle primitives for the rounded corners*
1,1,$1+$1,$2,$3*
1,1,$1+$1,$4,$5*
1,1,$1+$1,$6,$7*
1,1,$1+$1,$8,$9*
0 Add four rect primitives between the rounded corners*
20,1,$1+$1,$2,$3,$4,$5,0*
20,1,$1+$1,$4,$5,$6,$7,0*
20,1,$1+$1,$6,$7,$8,$9,0*
20,1,$1+$1,$8,$9,$2,$3,0*%
%AMFreePoly0*
4,1,9,3.862500,-0.866500,0.737500,-0.866500,0.737500,-0.450000,-0.737500,-0.450000,-0.737500,0.450000,0.737500,0.450000,0.737500,0.866500,3.862500,0.866500,3.862500,-0.866500,3.862500,-0.866500,$1*%
G04 Aperture macros list end*
%ADD10RoundRect,0.150000X-0.150000X0.587500X-0.150000X-0.587500X0.150000X-0.587500X0.150000X0.587500X0*%
%ADD11R,0.900000X2.000000*%
%ADD12R,2.000000X0.900000*%
%ADD13R,0.500000X0.600000*%
%ADD14R,0.600000X0.500000*%
%ADD15RoundRect,0.100000X-0.100000X0.637500X-0.100000X-0.637500X0.100000X-0.637500X0.100000X0.637500X0*%
%ADD16R,1.700000X1.700000*%
%ADD17O,1.700000X1.700000*%
%ADD18C,0.985520*%
%ADD19C,0.988060*%
%ADD20C,0.784860*%
%ADD21R,0.900000X1.300000*%
%ADD22FreePoly0,270.000000*%
%ADD23C,0.800000*%
%ADD24C,6.400000*%
%ADD25R,1.100000X1.100000*%
%ADD26R,0.900000X0.600000*%
%ADD27R,1.050000X0.650000*%
%ADD28RoundRect,0.249999X-1.550001X0.790001X-1.550001X-0.790001X1.550001X-0.790001X1.550001X0.790001X0*%
%ADD29O,3.600000X2.080000*%
%ADD30R,0.600000X0.900000*%
%ADD31RoundRect,0.150000X0.587500X0.150000X-0.587500X0.150000X-0.587500X-0.150000X0.587500X-0.150000X0*%
%ADD32RoundRect,0.249999X1.550001X-0.790001X1.550001X0.790001X-1.550001X0.790001X-1.550001X-0.790001X0*%
%ADD33C,0.650000*%
%ADD34R,1.450000X0.600000*%
%ADD35R,1.450000X0.300000*%
%ADD36O,2.100000X1.000000*%
%ADD37O,1.600000X1.000000*%
G04 APERTURE END LIST*
D10*
X58750000Y-75812500D03*
X56850000Y-75812500D03*
X57800000Y-77687500D03*
D11*
X80921000Y-59873000D03*
X79651000Y-59873000D03*
X78381000Y-59873000D03*
X77111000Y-59873000D03*
X75841000Y-59873000D03*
X74571000Y-59873000D03*
X73301000Y-59873000D03*
X72031000Y-59873000D03*
X70761000Y-59873000D03*
D12*
X68606500Y-62050500D03*
X68606500Y-63320500D03*
X68606500Y-64590500D03*
X68606500Y-65860500D03*
X68606500Y-67130500D03*
X68602000Y-68389000D03*
X68602000Y-69659000D03*
X68602000Y-70929000D03*
X68602000Y-72199000D03*
D11*
X70782500Y-75231000D03*
X72052500Y-75231000D03*
X73322500Y-75231000D03*
X74592500Y-75231000D03*
X75862500Y-75231000D03*
X77132500Y-75231000D03*
X78381000Y-75238000D03*
X79651000Y-75238000D03*
X80921000Y-75238000D03*
D13*
X94280000Y-84500000D03*
X95220000Y-84500000D03*
D14*
X76250000Y-77970000D03*
X76250000Y-77030000D03*
D15*
X80425000Y-79387500D03*
X79775000Y-79387500D03*
X79125000Y-79387500D03*
X78475000Y-79387500D03*
X77825000Y-79387500D03*
X77175000Y-79387500D03*
X76525000Y-79387500D03*
X75875000Y-79387500D03*
X75225000Y-79387500D03*
X74575000Y-79387500D03*
X74575000Y-85112500D03*
X75225000Y-85112500D03*
X75875000Y-85112500D03*
X76525000Y-85112500D03*
X77175000Y-85112500D03*
X77825000Y-85112500D03*
X78475000Y-85112500D03*
X79125000Y-85112500D03*
X79775000Y-85112500D03*
X80425000Y-85112500D03*
D16*
X65000000Y-67075000D03*
D17*
X65000000Y-64535000D03*
X65000000Y-61995000D03*
X65000000Y-59455000D03*
X65000000Y-56915000D03*
D18*
X87790000Y-84766000D03*
D19*
X82710000Y-83750000D03*
D18*
X87790000Y-82734000D03*
D20*
X83980000Y-84385000D03*
X83980000Y-83115000D03*
X85250000Y-84385000D03*
X85250000Y-83115000D03*
X86520000Y-84385000D03*
X86520000Y-83115000D03*
D21*
X67200000Y-75350000D03*
D22*
X65700000Y-75437500D03*
D21*
X64200000Y-75350000D03*
D14*
X70000000Y-77970000D03*
X70000000Y-77030000D03*
D13*
X95220000Y-83500000D03*
X94280000Y-83500000D03*
D23*
X109197056Y-54802944D03*
D24*
X107500000Y-56500000D03*
D23*
X107500000Y-54100000D03*
X105802944Y-54802944D03*
X105100000Y-56500000D03*
X105802944Y-58197056D03*
X109900000Y-56500000D03*
X107500000Y-58900000D03*
X109197056Y-58197056D03*
D25*
X58600000Y-61000000D03*
X61400000Y-61000000D03*
D26*
X65250000Y-70750000D03*
X65250000Y-72250000D03*
D25*
X92900000Y-84000000D03*
X90100000Y-84000000D03*
D27*
X75925000Y-57075000D03*
X80075000Y-57075000D03*
X80075000Y-54925000D03*
X75925000Y-54925000D03*
D14*
X59800000Y-78770000D03*
X59800000Y-77830000D03*
X75500000Y-86530000D03*
X75500000Y-87470000D03*
X74500000Y-86530000D03*
X74500000Y-87470000D03*
D13*
X64030000Y-55000000D03*
X64970000Y-55000000D03*
D23*
X55000000Y-58900000D03*
X57400000Y-56500000D03*
X56697056Y-54802944D03*
D24*
X55000000Y-56500000D03*
D23*
X52600000Y-56500000D03*
X55000000Y-54100000D03*
X56697056Y-58197056D03*
X53302944Y-54802944D03*
X53302944Y-58197056D03*
D10*
X62700000Y-79562500D03*
X60800000Y-79562500D03*
X61750000Y-81437500D03*
D18*
X73540000Y-54984000D03*
D19*
X68460000Y-56000000D03*
D18*
X73540000Y-57016000D03*
D20*
X69730000Y-56635000D03*
X69730000Y-55365000D03*
X71000000Y-56635000D03*
X71000000Y-55365000D03*
X72270000Y-56635000D03*
X72270000Y-55365000D03*
D28*
X60027500Y-65960000D03*
D29*
X60027500Y-71040000D03*
D16*
X89560000Y-87500000D03*
D17*
X87020000Y-87500000D03*
X84480000Y-87500000D03*
X81940000Y-87500000D03*
D13*
X60530000Y-83000000D03*
X61470000Y-83000000D03*
D23*
X107500000Y-91100000D03*
X107500000Y-95900000D03*
D24*
X107500000Y-93500000D03*
D23*
X105802944Y-95197056D03*
X109197056Y-95197056D03*
X109900000Y-93500000D03*
X105802944Y-91802944D03*
X105100000Y-93500000D03*
X109197056Y-91802944D03*
D30*
X67250000Y-73800000D03*
X65750000Y-73800000D03*
D16*
X95770000Y-87500000D03*
D17*
X93230000Y-87500000D03*
D31*
X62337500Y-77700000D03*
X62337500Y-75800000D03*
X60462500Y-76750000D03*
D14*
X76500000Y-86530000D03*
X76500000Y-87470000D03*
X71000000Y-78000000D03*
X71000000Y-77060000D03*
X58900000Y-85170000D03*
X58900000Y-84230000D03*
X58900000Y-81930000D03*
X58900000Y-82870000D03*
D13*
X78470000Y-78000000D03*
X77530000Y-78000000D03*
D30*
X63350000Y-73800000D03*
X64850000Y-73800000D03*
D23*
X53302944Y-91802944D03*
X57400000Y-93500000D03*
D24*
X55000000Y-93500000D03*
D23*
X52600000Y-93500000D03*
X56697056Y-91802944D03*
X55000000Y-95900000D03*
X55000000Y-91100000D03*
X53302944Y-95197056D03*
X56697056Y-95197056D03*
D13*
X62280000Y-83000000D03*
X63220000Y-83000000D03*
D14*
X73000000Y-77970000D03*
X73000000Y-77030000D03*
X72000000Y-77970000D03*
X72000000Y-77030000D03*
D30*
X78750000Y-77000000D03*
X77250000Y-77000000D03*
D13*
X75270000Y-77500000D03*
X74330000Y-77500000D03*
D32*
X102472500Y-80080000D03*
D29*
X102472500Y-75000000D03*
X102472500Y-69920000D03*
D14*
X66500000Y-71030000D03*
X66500000Y-71970000D03*
D33*
X56055000Y-80610000D03*
X56055000Y-86390000D03*
D34*
X57500000Y-80300000D03*
X57500000Y-81100000D03*
D35*
X57500000Y-82250000D03*
X57500000Y-83250000D03*
X57500000Y-83750000D03*
X57500000Y-84750000D03*
D34*
X57500000Y-81100000D03*
X57500000Y-80300000D03*
X57500000Y-86700000D03*
X57500000Y-85900000D03*
D35*
X57500000Y-85250000D03*
X57500000Y-84250000D03*
X57500000Y-82750000D03*
X57500000Y-81750000D03*
D34*
X57500000Y-85900000D03*
X57500000Y-86700000D03*
D36*
X56585000Y-79180000D03*
X56585000Y-87820000D03*
D37*
X52405000Y-87820000D03*
X52405000Y-79180000D03*
D14*
X77500000Y-86530000D03*
X77500000Y-87470000D03*
M02*
